SplineFontDB: 3.2
FontName: AnonymousProLHQwattash-BoldItalic
FullName: Anonymous Pro Bold Italic qwattash line height patch
FamilyName: AnonymousProLHQwattash
Weight: Bold
Copyright: Copyright (c) Mark Simonson 2009-2010. All rights reserved.
Version: 1.002
ItalicAngle: -12
UnderlinePosition: -248
UnderlineWidth: 123
Ascent: 1675
Descent: 473
InvalidEm: 0
sfntRevision: 0x00010083
LayerCount: 2
Layer: 0 1 "Back" 1
Layer: 1 1 "Fore" 0
XUID: [1021 424 447614775 7606464]
StyleMap: 0x0021
FSType: 0
OS2Version: 3
OS2_WeightWidthSlopeOnly: 0
OS2_UseTypoMetrics: 0
CreationTime: 1255118160
ModificationTime: 1573042498
PfmFamily: 17
TTFWeight: 700
TTFWidth: 5
LineGap: 0
VLineGap: 0
Panose: 2 6 8 9 3 2 2 0 5 4
OS2TypoAscent: 1675
OS2TypoAOffset: 0
OS2TypoDescent: -473
OS2TypoDOffset: 0
OS2TypoLinegap: 0
OS2WinAscent: 1675
OS2WinAOffset: 0
OS2WinDescent: 473
OS2WinDOffset: 0
HheadAscent: 1675
HheadAOffset: 0
HheadDescent: -473
HheadDOffset: 0
OS2SubXSize: 1434
OS2SubYSize: 1331
OS2SubXOff: 0
OS2SubYOff: 293
OS2SupXSize: 1434
OS2SupYSize: 1331
OS2SupXOff: 0
OS2SupYOff: 928
OS2StrikeYSize: 123
OS2StrikeYPos: 465
OS2CapHeight: 1305
OS2XHeight: 932
OS2FamilyClass: 1281
OS2Vendor: 'mlss'
OS2CodePages: 2000009f.00000000
OS2UnicodeRanges: a00002af.7000a9ca.00000000.00000000
MarkAttachClasses: 1
DEI: 91125
TtTable: prep
PUSHB_1
 0
CALL
SVTCA[y-axis]
PUSHB_3
 1
 8
 2
CALL
SVTCA[x-axis]
PUSHB_3
 9
 7
 2
CALL
SVTCA[x-axis]
PUSHB_8
 9
 66
 62
 46
 34
 23
 0
 8
CALL
PUSHB_8
 10
 83
 62
 60
 34
 23
 0
 8
CALL
PUSHB_8
 11
 103
 84
 60
 47
 23
 0
 8
CALL
PUSHB_8
 12
 76
 62
 46
 34
 23
 0
 8
CALL
PUSHB_8
 13
 55
 49
 38
 27
 17
 0
 8
CALL
PUSHB_8
 14
 61
 49
 38
 27
 17
 0
 8
CALL
PUSHB_8
 15
 30
 25
 19
 14
 9
 0
 8
CALL
SVTCA[y-axis]
PUSHB_8
 1
 83
 62
 60
 34
 23
 0
 8
CALL
PUSHB_8
 2
 103
 84
 60
 47
 23
 0
 8
CALL
PUSHB_8
 3
 77
 62
 46
 34
 23
 0
 8
CALL
PUSHB_8
 4
 76
 62
 46
 34
 23
 0
 8
CALL
PUSHB_8
 5
 66
 62
 46
 34
 23
 0
 8
CALL
PUSHB_8
 6
 61
 49
 38
 27
 17
 0
 8
CALL
PUSHB_8

StartChar: .notdef
Encoding: 65536 -1 0
Width: 1118
VWidth: 2048
Flags: W
LayerCount: 2
Fore
SplineSet
784 0 m 1,0,-1
 -49 0 l 1,1,-1
 227 1305 l 1,2,-1
 1061 1305 l 1,3,-1
 784 0 l 1,0,-1
197 186 m 1,4,-1
 616 186 l 1,5,-1
 815 1118 l 1,6,-1
 395 1118 l 1,7,-1
 197 186 l 1,4,-1
EndSplineSet
Validated: 1
EndChar

StartChar: numbersign
Encoding: 35 35 4
Width: 1118
VWidth: 2048
Flags: W
LayerCount: 2
Fore
SplineSet
874 187 m 1,0,-1
 688 187 l 1,1,-1
 647 1 l 1,2,-1
 461 1 l 1,3,-1
 502 187 l 1,4,-1
 315 187 l 1,5,-1
 274 1 l 1,6,-1
 88 1 l 1,7,-1
 129 187 l 1,8,-1
 -58 187 l 1,9,-1
 -19 373 l 1,10,-1
 168 373 l 1,11,-1
 207 560 l 1,12,-1
 20 560 l 1,13,-1
 61 746 l 1,14,-1
 248 746 l 1,15,-1
 287 933 l 1,16,-1
 473 933 l 1,17,-1
 434 746 l 1,18,-1
 620 746 l 1,19,-1
 659 933 l 1,20,-1
 846 933 l 1,21,-1
 807 746 l 1,22,-1
 993 746 l 1,23,-1
 952 560 l 1,24,-1
 766 560 l 1,25,-1
 727 373 l 1,26,-1
 913 373 l 1,27,-1
 874 187 l 1,0,-1
540 373 m 1,28,-1
 579 560 l 1,29,-1
 393 560 l 1,30,-1
 354 373 l 1,31,-1
 540 373 l 1,28,-1
EndSplineSet
Validated: 1
EndChar

StartChar: dollar
Encoding: 36 36 5
Width: 1118
VWidth: 2048
Flags: W
LayerCount: 2
Fore
SplineSet
270 -16 m 1,0,1
 100 6 100 6 21.5 110.5 c 128,-1,2
 -57 215 -57 215 -41 373 c 1,3,-1
 158 403 l 1,4,5
 154 211 154 211 309 172 c 1,6,-1
 403 610 l 1,7,8
 344 637 344 637 286.5 667.5 c 128,-1,9
 229 698 229 698 189.5 743 c 128,-1,10
 150 788 150 788 133.5 848.5 c 128,-1,11
 117 909 117 909 135 993 c 0,12,13
 162 1120 162 1120 272.5 1210 c 128,-1,14
 383 1300 383 1300 555 1321 c 1,15,-1
 590 1491 l 1,16,-1
 776 1491 l 1,17,-1
 739 1317 l 1,18,19
 817 1303 817 1303 872.5 1268 c 128,-1,20
 928 1233 928 1233 962.5 1183 c 128,-1,21
 997 1133 997 1133 1009.5 1070.5 c 128,-1,22
 1022 1008 1022 1008 1012 940 c 1,23,-1
 813 918 l 1,24,25
 825 1083 825 1083 698 1126 c 1,26,-1
 621 752 l 1,27,28
 682 725 682 725 741.5 692 c 128,-1,29
 801 659 801 659 843 611 c 128,-1,30
 885 563 885 563 903.5 497.5 c 128,-1,31
 922 432 922 432 903 340 c 0,32,33
 889 274 889 274 851 215 c 128,-1,34
 813 156 813 156 755.5 107.5 c 128,-1,35
 698 59 698 59 622.5 27.5 c 128,-1,36
 547 -4 547 -4 457 -16 c 1,37,-1
 420 -186 l 1,38,-1
 233 -186 l 1,39,-1
 270 -16 l 1,0,1
696 340 m 0,40,41
 711 412 711 412 674 456 c 128,-1,42
 637 500 637 500 573 535 c 1,43,-1
 496 172 l 1,44,45
 575 186 575 186 627.5 227 c 128,-1,46
 680 268 680 268 696 340 c 0,40,41
342 995 m 0,47,48
 330 936 330 936 361.5 897 c 128,-1,49
 393 858 393 858 449 827 c 1,50,-1
 514 1133 l 1,51,52
 444 1120 444 1120 399 1086.5 c 128,-1,53
 354 1053 354 1053 342 995 c 0,47,48
EndSplineSet
Validated: 33
EndChar

StartChar: percent
Encoding: 37 37 6
Width: 1118
VWidth: 2048
Flags: W
LayerCount: 2
Fore
SplineSet
1122 1257 m 1,0,-1
 10 -41 l 1,1,-1
 -106 47 l 1,2,-1
 1008 1350 l 1,3,-1
 1122 1257 l 1,0,-1
104 1073 m 0,4,5
 115 1124 115 1124 145.5 1171.5 c 128,-1,6
 176 1219 176 1219 217 1252.5 c 128,-1,7
 258 1286 258 1286 308 1306.5 c 128,-1,8
 358 1327 358 1327 412 1327 c 0,9,10
 463 1327 463 1327 506 1306.5 c 128,-1,11
 549 1286 549 1286 575.5 1252.5 c 128,-1,12
 602 1219 602 1219 612.5 1171.5 c 128,-1,13
 623 1124 623 1124 612 1073 c 0,14,15
 600 1020 600 1020 570.5 974 c 128,-1,16
 541 928 541 928 500 894 c 128,-1,17
 459 860 459 860 407.5 839.5 c 128,-1,18
 356 819 356 819 305 819 c 0,19,20
 252 819 252 819 210 839.5 c 128,-1,21
 168 860 168 860 141.5 894 c 128,-1,22
 115 928 115 928 103.5 974 c 128,-1,23
 92 1020 92 1020 104 1073 c 0,4,5
254 1075 m 0,24,25
 246 1032 246 1032 269.5 1001.5 c 128,-1,26
 293 971 293 971 336 971 c 256,27,28
 379 971 379 971 417 1001.5 c 128,-1,29
 455 1032 455 1032 463 1075 c 0,30,31
 473 1118 473 1118 448.5 1149 c 128,-1,32
 424 1180 424 1180 381 1180 c 256,33,34
 338 1180 338 1180 301 1149 c 128,-1,35
 264 1118 264 1118 254 1075 c 0,24,25
403 231 m 0,36,37
 414 283 414 283 444.5 330 c 128,-1,38
 475 377 475 377 516 410.5 c 128,-1,39
 557 444 557 444 607 464.5 c 128,-1,40
 657 485 657 485 711 485 c 0,41,42
 762 485 762 485 805 464.5 c 128,-1,43
 848 444 848 444 874.5 410.5 c 128,-1,44
 901 377 901 377 911.5 330 c 128,-1,45
 922 283 922 283 911 231 c 0,46,47
 899 178 899 178 868.5 132 c 128,-1,48
 838 86 838 86 797 52 c 128,-1,49
 756 18 756 18 704.5 -2.5 c 128,-1,50
 653 -23 653 -23 602 -23 c 0,51,52
 549 -23 549 -23 507 -2.5 c 128,-1,53
 465 18 465 18 438.5 52 c 128,-1,54
 412 86 412 86 401.5 132 c 128,-1,55
 391 178 391 178 403 231 c 0,36,37
553 233 m 0,56,57
 543 190 543 190 567.5 159.5 c 128,-1,58
 592 129 592 129 635 129 c 256,59,60
 678 129 678 129 715 159.5 c 128,-1,61
 752 190 752 190 762 233 c 0,62,63
 770 276 770 276 746.5 307 c 128,-1,64
 723 338 723 338 680 338 c 256,65,66
 637 338 637 338 599 307 c 128,-1,67
 561 276 561 276 553 233 c 0,56,57
EndSplineSet
Validated: 33
EndChar

StartChar: ampersand
Encoding: 38 38 7
Width: 1118
VWidth: 2048
Flags: W
LayerCount: 2
Fore
SplineSet
977 565 m 1,0,1
 946 492 946 492 900 415 c 128,-1,2
 854 338 854 338 791 266 c 1,3,-1
 918 121 l 1,4,-1
 758 -27 l 1,5,-1
 639 119 l 1,6,7
 553 53 553 53 459 15 c 128,-1,8
 365 -23 365 -23 260 -23 c 0,9,10
 178 -23 178 -23 112.5 5 c 128,-1,11
 47 33 47 33 5 81 c 128,-1,12
 -37 129 -37 129 -53.5 193.5 c 128,-1,13
 -70 258 -70 258 -53 334 c 0,14,15
 -25 465 -25 465 40.5 548 c 128,-1,16
 106 631 106 631 186 690 c 1,17,18
 145 762 145 762 130 834.5 c 128,-1,19
 115 907 115 907 131 991 c 0,20,21
 147 1067 147 1067 187 1129.5 c 128,-1,22
 227 1192 227 1192 280.5 1236 c 128,-1,23
 334 1280 334 1280 398.5 1303.5 c 128,-1,24
 463 1327 463 1327 530 1327 c 0,25,26
 598 1327 598 1327 653.5 1306.5 c 128,-1,27
 709 1286 709 1286 744.5 1248 c 128,-1,28
 780 1210 780 1210 793.5 1156 c 128,-1,29
 807 1102 807 1102 793 1032 c 0,30,31
 778 965 778 965 743.5 911.5 c 128,-1,32
 709 858 709 858 661.5 815 c 128,-1,33
 614 772 614 772 559 736 c 128,-1,34
 504 700 504 700 451 668 c 1,35,-1
 678 399 l 1,36,37
 713 449 713 449 742.5 503 c 128,-1,38
 772 557 772 557 799 612 c 1,39,-1
 977 565 l 1,0,1
315 164 m 0,40,41
 375 164 375 164 429 186.5 c 128,-1,42
 483 209 483 209 535 248 c 1,43,-1
 287 553 l 1,44,-1
 285 553 l 1,45,46
 240 514 240 514 206 466 c 128,-1,47
 172 418 172 418 160 358 c 0,48,49
 141 272 141 272 186 218 c 128,-1,50
 231 164 231 164 315 164 c 0,40,41
338 991 m 0,51,52
 328 936 328 936 328 892 c 128,-1,53
 328 848 328 848 354 797 c 1,54,55
 397 821 397 821 435 845.5 c 128,-1,56
 473 870 473 870 504 899 c 128,-1,57
 535 928 535 928 556.5 961.5 c 128,-1,58
 578 995 578 995 586 1036 c 0,59,60
 596 1083 596 1083 570.5 1112 c 128,-1,61
 545 1141 545 1141 500 1141 c 0,62,63
 440 1141 440 1141 396 1098 c 128,-1,64
 352 1055 352 1055 338 991 c 0,51,52
EndSplineSet
Validated: 33
EndChar

StartChar: quotesingle
Encoding: 39 39 8
Width: 1118
VWidth: 2048
Flags: W
LayerCount: 2
Fore
SplineSet
768 1305 m 1,0,-1
 616 805 l 1,1,-1
 459 805 l 1,2,-1
 520 1305 l 1,3,-1
 768 1305 l 1,0,-1
EndSplineSet
Validated: 1
EndChar

StartChar: parenleft
Encoding: 40 40 9
Width: 1118
VWidth: 2048
Flags: W
LayerCount: 2
Fore
SplineSet
395 567 m 0,0,1
 371 453 371 453 373 339 c 128,-1,2
 375 225 375 225 401.5 120.5 c 128,-1,3
 428 16 428 16 480 -77 c 128,-1,4
 532 -170 532 -170 608 -242 c 1,5,-1
 455 -369 l 1,6,7
 367 -285 367 -285 306.5 -178.5 c 128,-1,8
 246 -72 246 -72 215 49 c 128,-1,9
 184 170 184 170 182 301 c 128,-1,10
 180 432 180 432 209 567 c 256,11,12
 238 702 238 702 296 833.5 c 128,-1,13
 354 965 354 965 436 1085.5 c 128,-1,14
 518 1206 518 1206 623.5 1312.5 c 128,-1,15
 729 1419 729 1419 854 1503 c 1,16,-1
 952 1376 l 1,17,18
 846 1305 846 1305 755 1211.5 c 128,-1,19
 664 1118 664 1118 592 1013.5 c 128,-1,20
 520 909 520 909 470 795.5 c 128,-1,21
 420 682 420 682 395 567 c 0,0,1
EndSplineSet
Validated: 33
EndChar

StartChar: parenright
Encoding: 41 41 10
Width: 1118
VWidth: 2048
Flags: W
LayerCount: 2
Fore
SplineSet
582 565 m 0,0,1
 606 680 606 680 605 793.5 c 128,-1,2
 604 907 604 907 576.5 1011.5 c 128,-1,3
 549 1116 549 1116 497.5 1209.5 c 128,-1,4
 446 1303 446 1303 369 1374 c 1,5,-1
 522 1501 l 1,6,7
 612 1417 612 1417 670.5 1310.5 c 128,-1,8
 729 1204 729 1204 761 1083.5 c 128,-1,9
 793 963 793 963 795 831.5 c 128,-1,10
 797 700 797 700 768 565 c 256,11,12
 739 430 739 430 682 299 c 128,-1,13
 625 168 625 168 542 47 c 128,-1,14
 459 -74 459 -74 354.5 -180.5 c 128,-1,15
 250 -287 250 -287 125 -371 c 1,16,-1
 25 -244 l 1,17,18
 133 -172 133 -172 224 -79 c 128,-1,19
 315 14 315 14 387 118.5 c 128,-1,20
 459 223 459 223 508 337 c 128,-1,21
 557 451 557 451 582 565 c 0,0,1
EndSplineSet
Validated: 33
EndChar

StartChar: asterisk
Encoding: 42 42 11
Width: 1118
VWidth: 2048
Flags: W
LayerCount: 2
Fore
SplineSet
563 591 m 1,0,-1
 889 787 l 1,1,-1
 950 613 l 1,2,-1
 608 466 l 1,3,-1
 887 320 l 1,4,-1
 751 146 l 1,5,-1
 512 343 l 1,6,-1
 467 1 l 1,7,-1
 268 1 l 1,8,-1
 371 343 l 1,9,-1
 45 146 l 1,10,-1
 -17 320 l 1,11,-1
 323 466 l 1,12,-1
 47 613 l 1,13,-1
 182 787 l 1,14,-1
 422 591 l 1,15,-1
 467 933 l 1,16,-1
 665 933 l 1,17,-1
 563 591 l 1,0,-1
EndSplineSet
Validated: 1
EndChar

StartChar: plus
Encoding: 43 43 12
Width: 1118
VWidth: 2048
Flags: W
LayerCount: 2
Fore
SplineSet
915 385 m 1,0,-1
 543 385 l 1,1,-1
 463 13 l 1,2,-1
 276 13 l 1,3,-1
 356 385 l 1,4,-1
 -16 385 l 1,5,-1
 22 572 l 1,6,-1
 395 572 l 1,7,-1
 475 944 l 1,8,-1
 661 944 l 1,9,-1
 582 572 l 1,10,-1
 954 572 l 1,11,-1
 915 385 l 1,0,-1
EndSplineSet
Validated: 1
EndChar

StartChar: comma
Encoding: 44 44 13
Width: 1118
VWidth: 2048
Flags: W
LayerCount: 2
Fore
SplineSet
621 186 m 1,0,-1
 227 -373 l 1,1,-1
 70 -373 l 1,2,-1
 375 186 l 1,3,-1
 621 186 l 1,0,-1
EndSplineSet
Validated: 1
EndChar

StartChar: hyphen
Encoding: 45 45 14
Width: 1118
VWidth: 2048
Flags: W
LayerCount: 2
Fore
SplineSet
915 385 m 1,0,-1
 -16 385 l 1,1,-1
 22 572 l 1,2,-1
 954 572 l 1,3,-1
 915 385 l 1,0,-1
EndSplineSet
Validated: 1
EndChar

StartChar: period
Encoding: 46 46 15
Width: 1118
VWidth: 2048
Flags: W
LayerCount: 2
Fore
SplineSet
494 0 m 1,0,-1
 242 0 l 1,1,-1
 295 252 l 1,2,-1
 547 252 l 1,3,-1
 494 0 l 1,0,-1
EndSplineSet
Validated: 1
EndChar

StartChar: slash
Encoding: 47 47 16
Width: 1118
VWidth: 2048
Flags: W
LayerCount: 2
Fore
SplineSet
969 1366 m 1,0,-1
 1106 1290 l 1,1,-1
 12 -252 l 1,2,-1
 -123 -176 l 1,3,-1
 969 1366 l 1,0,-1
EndSplineSet
Validated: 1
EndChar

StartChar: zero
Encoding: 48 48 17
Width: 1118
VWidth: 2048
Flags: W
LayerCount: 2
Fore
SplineSet
6 653 m 0,0,1
 35 784 35 784 88 906 c 128,-1,2
 141 1028 141 1028 221 1121 c 128,-1,3
 301 1214 301 1214 407.5 1270.5 c 128,-1,4
 514 1327 514 1327 649 1327 c 256,5,6
 784 1327 784 1327 868 1270.5 c 128,-1,7
 952 1214 952 1214 992 1121 c 128,-1,8
 1032 1028 1032 1028 1033 906 c 128,-1,9
 1034 784 1034 784 1006 653 c 0,10,11
 979 522 979 522 925.5 400.5 c 128,-1,12
 872 279 872 279 793.5 184.5 c 128,-1,13
 715 90 715 90 607.5 33.5 c 128,-1,14
 500 -23 500 -23 362 -23 c 0,15,16
 225 -23 225 -23 142 33.5 c 128,-1,17
 59 90 59 90 19.5 184.5 c 128,-1,18
 -20 279 -20 279 -20 400.5 c 128,-1,19
 -20 522 -20 522 6 653 c 0,0,1
213 653 m 0,20,21
 195 561 195 561 188 475 c 1,22,-1
 809 989 l 1,23,24
 788 1057 788 1057 742 1099 c 128,-1,25
 696 1141 696 1141 610 1141 c 0,26,27
 467 1141 467 1141 364.5 1012 c 128,-1,28
 262 883 262 883 213 653 c 0,20,21
403 164 m 0,29,30
 492 164 492 164 556.5 207 c 128,-1,31
 621 250 621 250 669 319.5 c 128,-1,32
 717 389 717 389 748.5 477 c 128,-1,33
 780 565 780 565 799 653 c 0,34,35
 817 737 817 737 821 817 c 1,36,-1
 205 307 l 1,37,38
 227 242 227 242 272 203 c 128,-1,39
 317 164 317 164 403 164 c 0,29,30
EndSplineSet
Validated: 33
EndChar

StartChar: one
Encoding: 49 49 18
Width: 1118
VWidth: 2048
Flags: W
LayerCount: 2
Fore
SplineSet
680 0 m 1,0,-1
 53 0 l 1,1,-1
 92 186 l 1,2,-1
 303 186 l 1,3,-1
 461 928 l 1,4,5
 436 879 436 879 393 841 c 128,-1,6
 350 803 350 803 297 777.5 c 128,-1,7
 244 752 244 752 181.5 738.5 c 128,-1,8
 119 725 119 725 55 725 c 1,9,-1
 98 932 l 1,10,11
 166 932 166 932 235.5 954.5 c 128,-1,12
 305 977 305 977 365.5 1023 c 128,-1,13
 426 1069 426 1069 473 1138.5 c 128,-1,14
 520 1208 520 1208 541 1305 c 1,15,-1
 748 1305 l 1,16,-1
 510 186 l 1,17,-1
 719 186 l 1,18,-1
 680 0 l 1,0,-1
EndSplineSet
Validated: 1
EndChar

StartChar: two
Encoding: 50 50 19
Width: 1118
VWidth: 2048
Flags: W
LayerCount: 2
Fore
SplineSet
1008 948 m 0,0,1
 987 856 987 856 917.5 760 c 128,-1,2
 848 664 848 664 743 578 c 2,3,-1
 254 186 l 1,4,-1
 637 186 l 1,5,-1
 674 365 l 1,6,-1
 860 365 l 1,7,-1
 784 0 l 1,8,-1
 -55 0 l 1,9,-1
 -14 195 l 1,10,-1
 618 698 l 2,11,12
 700 768 700 768 744 829.5 c 128,-1,13
 788 891 788 891 801 948 c 0,14,15
 811 999 811 999 799.5 1036 c 128,-1,16
 788 1073 788 1073 762.5 1096.5 c 128,-1,17
 737 1120 737 1120 700.5 1130.5 c 128,-1,18
 664 1141 664 1141 625 1141 c 0,19,20
 502 1141 502 1141 416 1069 c 128,-1,21
 330 997 330 997 299 856 c 1,22,-1
 104 856 l 1,23,24
 152 1077 152 1077 296 1202 c 128,-1,25
 440 1327 440 1327 664 1327 c 0,26,27
 748 1327 748 1327 819.5 1302.5 c 128,-1,28
 891 1278 891 1278 939 1231 c 128,-1,29
 987 1184 987 1184 1006.5 1112 c 128,-1,30
 1026 1040 1026 1040 1008 948 c 0,0,1
EndSplineSet
Validated: 33
EndChar

StartChar: three
Encoding: 51 51 20
Width: 1118
VWidth: 2048
Flags: W
LayerCount: 2
Fore
SplineSet
895 354 m 0,0,1
 877 268 877 268 827.5 198.5 c 128,-1,2
 778 129 778 129 709.5 80 c 128,-1,3
 641 31 641 31 558 4 c 128,-1,4
 475 -23 475 -23 391 -23 c 0,5,6
 297 -23 297 -23 220 3 c 128,-1,7
 143 29 143 29 92 81 c 128,-1,8
 41 133 41 133 19.5 215 c 128,-1,9
 -2 297 -2 297 14 410 c 1,10,-1
 215 442 l 1,11,12
 199 313 199 313 257 238.5 c 128,-1,13
 315 164 315 164 432 164 c 0,14,15
 530 164 530 164 600 216 c 128,-1,16
 670 268 670 268 688 354 c 0,17,18
 713 471 713 471 648.5 521 c 128,-1,19
 584 571 584 571 393 571 c 1,20,-1
 432 758 l 1,21,22
 500 758 500 758 560.5 771 c 128,-1,23
 621 784 621 784 669 810 c 128,-1,24
 717 836 717 836 749.5 872.5 c 128,-1,25
 782 909 782 909 793 958 c 0,26,27
 809 1040 809 1040 771 1090.5 c 128,-1,28
 733 1141 733 1141 639 1141 c 0,29,30
 516 1141 516 1141 436 1074.5 c 128,-1,31
 356 1008 356 1008 326 862 c 1,32,-1
 129 862 l 1,33,34
 154 977 154 977 205 1064 c 128,-1,35
 256 1151 256 1151 327.5 1209.5 c 128,-1,36
 399 1268 399 1268 488.5 1297.5 c 128,-1,37
 578 1327 578 1327 678 1327 c 0,38,39
 762 1327 762 1327 829.5 1301.5 c 128,-1,40
 897 1276 897 1276 941 1228 c 128,-1,41
 985 1180 985 1180 1001.5 1112 c 128,-1,42
 1018 1044 1018 1044 999 958 c 0,43,44
 987 903 987 903 959.5 854 c 128,-1,45
 932 805 932 805 891 767 c 128,-1,46
 850 729 850 729 796.5 705.5 c 128,-1,47
 743 682 743 682 684 678 c 1,48,49
 750 672 750 672 796 643 c 128,-1,50
 842 614 842 614 868.5 570 c 128,-1,51
 895 526 895 526 901 470 c 128,-1,52
 907 414 907 414 895 354 c 0,0,1
EndSplineSet
Validated: 33
EndChar

StartChar: four
Encoding: 52 52 21
Width: 1118
VWidth: 2048
Flags: W
LayerCount: 2
Fore
SplineSet
834 0 m 1,0,-1
 207 0 l 1,1,-1
 246 186 l 1,2,-1
 455 186 l 1,3,-1
 489 348 l 1,4,-1
 -25 348 l 1,5,-1
 14 535 l 1,6,-1
 655 1305 l 1,7,-1
 897 1305 l 1,8,-1
 733 535 l 1,9,-1
 946 535 l 1,10,-1
 907 348 l 1,11,-1
 694 348 l 1,12,-1
 659 186 l 1,13,-1
 872 186 l 1,14,-1
 834 0 l 1,0,-1
528 535 m 1,15,-1
 641 1061 l 1,16,-1
 201 535 l 1,17,-1
 528 535 l 1,15,-1
EndSplineSet
Validated: 1
EndChar

StartChar: five
Encoding: 53 53 22
Width: 1118
VWidth: 2048
Flags: W
LayerCount: 2
Fore
SplineSet
936 438 m 0,0,1
 915 342 915 342 859 258 c 128,-1,2
 803 174 803 174 723 111.5 c 128,-1,3
 643 49 643 49 548 13 c 128,-1,4
 453 -23 453 -23 356 -23 c 0,5,6
 262 -23 262 -23 188.5 5 c 128,-1,7
 115 33 115 33 65.5 85 c 128,-1,8
 16 137 16 137 -5.5 213 c 128,-1,9
 -27 289 -27 289 -12 387 c 1,10,-1
 190 416 l 1,11,12
 176 303 176 303 225 233.5 c 128,-1,13
 274 164 274 164 397 164 c 0,14,15
 461 164 461 164 514 185.5 c 128,-1,16
 567 207 567 207 610 244 c 128,-1,17
 653 281 653 281 682 331 c 128,-1,18
 711 381 711 381 723 438 c 0,19,20
 752 569 752 569 699.5 642 c 128,-1,21
 647 715 647 715 537 715 c 0,22,23
 465 715 465 715 398.5 685 c 128,-1,24
 332 655 332 655 283 588 c 1,25,-1
 76 588 l 1,26,-1
 227 1305 l 1,27,-1
 1044 1305 l 1,28,-1
 1006 1118 l 1,29,-1
 395 1118 l 1,30,-1
 322 780 l 1,31,32
 440 901 440 901 616 901 c 0,33,34
 700 901 700 901 769 868.5 c 128,-1,35
 838 836 838 836 883 776.5 c 128,-1,36
 928 717 928 717 943 631 c 128,-1,37
 958 545 958 545 936 438 c 0,0,1
EndSplineSet
Validated: 33
EndChar

StartChar: six
Encoding: 54 54 23
Width: 1118
VWidth: 2048
Flags: W
LayerCount: 2
Fore
SplineSet
944 444 m 0,0,1
 920 336 920 336 866.5 250 c 128,-1,2
 813 164 813 164 737.5 103.5 c 128,-1,3
 662 43 662 43 569.5 10 c 128,-1,4
 477 -23 477 -23 381 -23 c 0,5,6
 233 -23 233 -23 150.5 33.5 c 128,-1,7
 68 90 68 90 32 183 c 128,-1,8
 -4 276 -4 276 -1 398 c 128,-1,9
 2 520 2 520 31 651 c 0,10,11
 59 784 59 784 117.5 906 c 128,-1,12
 176 1028 176 1028 264 1122.5 c 128,-1,13
 352 1217 352 1217 465 1272 c 128,-1,14
 578 1327 578 1327 717 1327 c 0,15,16
 815 1327 815 1327 896 1297.5 c 128,-1,17
 977 1268 977 1268 1030 1210 c 1,18,-1
 885 1059 l 1,19,20
 844 1104 844 1104 793.5 1122.5 c 128,-1,21
 743 1141 743 1141 678 1141 c 0,22,23
 594 1141 594 1141 521.5 1107 c 128,-1,24
 449 1073 449 1073 391.5 1011.5 c 128,-1,25
 334 950 334 950 294 866 c 128,-1,26
 254 782 254 782 231 682 c 1,27,28
 285 786 285 786 385 852 c 128,-1,29
 485 918 485 918 627 918 c 0,30,31
 711 918 711 918 778.5 882 c 128,-1,32
 846 846 846 846 890 783.5 c 128,-1,33
 934 721 934 721 949.5 634 c 128,-1,34
 965 547 965 547 944 444 c 0,0,1
737 444 m 0,35,36
 762 567 762 567 713 650 c 128,-1,37
 664 733 664 733 537 733 c 0,38,39
 414 733 414 733 323.5 656.5 c 128,-1,40
 233 580 233 580 207 455 c 0,41,42
 193 393 193 393 198 341 c 128,-1,43
 203 289 203 289 228.5 249 c 128,-1,44
 254 209 254 209 302 186.5 c 128,-1,45
 350 164 350 164 424 164 c 0,46,47
 535 164 535 164 622 237.5 c 128,-1,48
 709 311 709 311 737 444 c 0,35,36
EndSplineSet
Validated: 33
EndChar

StartChar: seven
Encoding: 55 55 24
Width: 1118
VWidth: 2048
Flags: W
LayerCount: 2
Fore
SplineSet
1071 1118 m 1,0,1
 920 985 920 985 818.5 866.5 c 128,-1,2
 717 748 717 748 648.5 620 c 128,-1,3
 580 492 580 492 530.5 342.5 c 128,-1,4
 481 193 481 193 440 0 c 1,5,-1
 229 0 l 1,6,7
 268 182 268 182 323.5 332.5 c 128,-1,8
 379 483 379 483 455.5 616.5 c 128,-1,9
 532 750 532 750 638.5 871.5 c 128,-1,10
 745 993 745 993 889 1118 c 1,11,-1
 373 1118 l 1,12,-1
 326 899 l 1,13,-1
 141 899 l 1,14,-1
 227 1305 l 1,15,-1
 1110 1305 l 1,16,-1
 1071 1118 l 1,0,1
EndSplineSet
Validated: 1
EndChar

StartChar: eight
Encoding: 56 56 25
Width: 1118
VWidth: 2048
Flags: W
LayerCount: 2
Fore
SplineSet
920 367 m 0,0,1
 897 264 897 264 845 191.5 c 128,-1,2
 793 119 793 119 718 71 c 128,-1,3
 643 23 643 23 551 0 c 128,-1,4
 459 -23 459 -23 360 -23 c 0,5,6
 260 -23 260 -23 179 0 c 128,-1,7
 98 23 98 23 44 71 c 128,-1,8
 -10 119 -10 119 -31.5 191.5 c 128,-1,9
 -53 264 -53 264 -31 367 c 0,10,11
 -20 420 -20 420 10.5 474 c 128,-1,12
 41 528 41 528 88 574.5 c 128,-1,13
 135 621 135 621 193.5 651.5 c 128,-1,14
 252 682 252 682 317 690 c 1,15,16
 264 696 264 696 227 725 c 128,-1,17
 190 754 190 754 168.5 794 c 128,-1,18
 147 834 147 834 141 880 c 128,-1,19
 135 926 135 926 143 969 c 0,20,21
 162 1057 162 1057 211 1124.5 c 128,-1,22
 260 1192 260 1192 329.5 1237 c 128,-1,23
 399 1282 399 1282 481 1304.5 c 128,-1,24
 563 1327 563 1327 647 1327 c 256,25,26
 731 1327 731 1327 805 1304.5 c 128,-1,27
 879 1282 879 1282 928 1237 c 128,-1,28
 977 1192 977 1192 997.5 1124.5 c 128,-1,29
 1018 1057 1018 1057 999 969 c 0,30,31
 991 926 991 926 964.5 880 c 128,-1,32
 938 834 938 834 900 794 c 128,-1,33
 862 754 862 754 812 725 c 128,-1,34
 762 696 762 696 705 690 c 1,35,36
 766 682 766 682 812 651.5 c 128,-1,37
 858 621 858 621 884.5 574.5 c 128,-1,38
 911 528 911 528 920.5 474 c 128,-1,39
 930 420 930 420 920 367 c 0,0,1
791 956 m 0,40,41
 809 1042 809 1042 761 1091.5 c 128,-1,42
 713 1141 713 1141 608 1141 c 0,43,44
 504 1141 504 1141 435.5 1091.5 c 128,-1,45
 367 1042 367 1042 348 956 c 0,46,47
 330 874 330 874 374 827 c 128,-1,48
 418 780 418 780 530 780 c 0,49,50
 643 780 643 780 707.5 827 c 128,-1,51
 772 874 772 874 791 956 c 0,40,41
715 379 m 0,52,53
 727 438 727 438 713.5 479 c 128,-1,54
 700 520 700 520 669.5 545.5 c 128,-1,55
 639 571 639 571 593 582.5 c 128,-1,56
 547 594 547 594 492 594 c 0,57,58
 436 594 436 594 386 582.5 c 128,-1,59
 336 571 336 571 293 545.5 c 128,-1,60
 250 520 250 520 220 479 c 128,-1,61
 190 438 190 438 178 379 c 0,62,63
 166 324 166 324 179.5 283 c 128,-1,64
 193 242 193 242 223.5 215 c 128,-1,65
 254 188 254 188 300 176 c 128,-1,66
 346 164 346 164 401 164 c 0,67,68
 457 164 457 164 507 176 c 128,-1,69
 557 188 557 188 600 215 c 128,-1,70
 643 242 643 242 672.5 283 c 128,-1,71
 702 324 702 324 715 379 c 0,52,53
EndSplineSet
Validated: 33
EndChar

StartChar: nine
Encoding: 57 57 26
Width: 1118
VWidth: 2048
Flags: W
LayerCount: 2
Fore
SplineSet
68 860 m 0,0,1
 90 969 90 969 144.5 1055 c 128,-1,2
 199 1141 199 1141 273.5 1201.5 c 128,-1,3
 348 1262 348 1262 440 1294.5 c 128,-1,4
 532 1327 532 1327 629 1327 c 0,5,6
 776 1327 776 1327 860 1270.5 c 128,-1,7
 944 1214 944 1214 979 1120 c 128,-1,8
 1014 1026 1014 1026 1011 905 c 128,-1,9
 1008 784 1008 784 979 653 c 0,10,11
 950 520 950 520 892 398 c 128,-1,12
 834 276 834 276 746.5 182 c 128,-1,13
 659 88 659 88 544.5 32.5 c 128,-1,14
 430 -23 430 -23 293 -23 c 0,15,16
 195 -23 195 -23 114 7 c 128,-1,17
 33 37 33 37 -20 94 c 1,18,-1
 125 246 l 1,19,20
 166 201 166 201 217 182.5 c 128,-1,21
 268 164 268 164 334 164 c 0,22,23
 418 164 418 164 490.5 197.5 c 128,-1,24
 563 231 563 231 619.5 292.5 c 128,-1,25
 676 354 676 354 717 438 c 128,-1,26
 758 522 758 522 778 623 c 1,27,28
 725 518 725 518 625.5 452.5 c 128,-1,29
 526 387 526 387 385 387 c 0,30,31
 301 387 301 387 232.5 423 c 128,-1,32
 164 459 164 459 120 521.5 c 128,-1,33
 76 584 76 584 60.5 671 c 128,-1,34
 45 758 45 758 68 860 c 0,0,1
274 860 m 0,35,36
 248 737 248 737 298 654 c 128,-1,37
 348 571 348 571 475 571 c 0,38,39
 598 571 598 571 688 648 c 128,-1,40
 778 725 778 725 805 850 c 0,41,42
 817 911 817 911 812 963.5 c 128,-1,43
 807 1016 807 1016 781.5 1056 c 128,-1,44
 756 1096 756 1096 709 1118.5 c 128,-1,45
 662 1141 662 1141 588 1141 c 0,46,47
 477 1141 477 1141 390 1067 c 128,-1,48
 303 993 303 993 274 860 c 0,35,36
EndSplineSet
Validated: 33
EndChar

StartChar: colon
Encoding: 58 58 27
Width: 1118
VWidth: 2048
Flags: W
LayerCount: 2
Fore
SplineSet
637 680 m 1,0,-1
 385 680 l 1,1,-1
 438 932 l 1,2,-1
 690 932 l 1,3,-1
 637 680 l 1,0,-1
494 0 m 1,4,-1
 242 0 l 1,5,-1
 295 252 l 1,6,-1
 547 252 l 1,7,-1
 494 0 l 1,4,-1
EndSplineSet
Validated: 1
EndChar

StartChar: semicolon
Encoding: 59 59 28
Width: 1118
VWidth: 2048
Flags: W
LayerCount: 2
Fore
SplineSet
637 680 m 1,0,-1
 385 680 l 1,1,-1
 438 932 l 1,2,-1
 690 932 l 1,3,-1
 637 680 l 1,0,-1
621 186 m 1,4,-1
 227 -373 l 1,5,-1
 70 -373 l 1,6,-1
 375 186 l 1,7,-1
 621 186 l 1,4,-1
EndSplineSet
Validated: 1
EndChar

StartChar: less
Encoding: 60 60 29
Width: 1118
VWidth: 2048
Flags: W
LayerCount: 2
Fore
SplineSet
749 88 m 1,0,-1
 604 -32 l 1,1,-1
 203 480 l 1,2,-1
 823 992 l 1,3,-1
 915 871 l 1,4,-1
 442 480 l 1,5,-1
 749 88 l 1,0,-1
EndSplineSet
Validated: 1
EndChar

StartChar: equal
Encoding: 61 61 30
Width: 1118
VWidth: 2048
Flags: W
LayerCount: 2
Fore
SplineSet
954 572 m 1,0,-1
 22 572 l 1,1,-1
 61 758 l 1,2,-1
 993 758 l 1,3,-1
 954 572 l 1,0,-1
874 199 m 1,4,-1
 -57 199 l 1,5,-1
 -16 385 l 1,6,-1
 915 385 l 1,7,-1
 874 199 l 1,4,-1
EndSplineSet
Validated: 1
EndChar

StartChar: greater
Encoding: 62 62 31
Width: 1118
VWidth: 2048
Flags: W
LayerCount: 2
Fore
SplineSet
498 480 m 1,0,-1
 188 871 l 1,1,-1
 334 992 l 1,2,-1
 737 480 l 1,3,-1
 115 -32 l 1,4,-1
 22 88 l 1,5,-1
 498 480 l 1,0,-1
EndSplineSet
Validated: 1
EndChar

StartChar: question
Encoding: 63 63 32
Width: 1118
VWidth: 2048
Flags: W
LayerCount: 2
Fore
SplineSet
1024 1004 m 0,0,1
 1008 930 1008 930 970 874.5 c 128,-1,2
 932 819 932 819 883 772 c 128,-1,3
 834 725 834 725 777.5 683 c 128,-1,4
 721 641 721 641 673 596 c 128,-1,5
 625 551 625 551 586 496.5 c 128,-1,6
 547 442 547 442 532 373 c 1,7,-1
 319 373 l 1,8,9
 338 455 338 455 378 519.5 c 128,-1,10
 418 584 418 584 470 636 c 128,-1,11
 522 688 522 688 577.5 732 c 128,-1,12
 633 776 633 776 683 819 c 128,-1,13
 733 862 733 862 769 907 c 128,-1,14
 805 952 805 952 817 1006 c 0,15,16
 831 1071 831 1071 799.5 1106 c 128,-1,17
 768 1141 768 1141 702 1141 c 0,18,19
 604 1141 604 1141 548 1086.5 c 128,-1,20
 492 1032 492 1032 461 936 c 1,21,-1
 274 965 l 1,22,23
 328 1133 328 1133 445.5 1230 c 128,-1,24
 563 1327 563 1327 739 1327 c 0,25,26
 905 1327 905 1327 980 1239 c 128,-1,27
 1055 1151 1055 1151 1024 1004 c 0,0,1
494 0 m 1,28,-1
 242 0 l 1,29,-1
 295 252 l 1,30,-1
 547 252 l 1,31,-1
 494 0 l 1,28,-1
EndSplineSet
Validated: 33
EndChar

StartChar: at
Encoding: 64 64 33
Width: 1118
VWidth: 2048
Flags: W
LayerCount: 2
Fore
SplineSet
1013 684 m 0,0,1
 998 616 998 616 972 546 c 128,-1,2
 946 476 946 476 905.5 419.5 c 128,-1,3
 865 363 865 363 809 327 c 128,-1,4
 753 291 753 291 679 291 c 0,5,6
 652 291 652 291 628 301.5 c 128,-1,7
 604 312 604 312 587 331.5 c 128,-1,8
 570 351 570 351 562.5 378 c 128,-1,9
 555 405 555 405 562 437 c 2,10,-1
 565 447 l 1,11,12
 549 414 549 414 526 385.5 c 128,-1,13
 503 357 503 357 475.5 336 c 128,-1,14
 448 315 448 315 417.5 303 c 128,-1,15
 387 291 387 291 355 291 c 0,16,17
 294 291 294 291 258.5 320 c 128,-1,18
 223 349 223 349 208 397 c 128,-1,19
 193 445 193 445 195.5 506 c 128,-1,20
 198 567 198 567 212 631 c 0,21,22
 227 705 227 705 258 772.5 c 128,-1,23
 289 840 289 840 332.5 891.5 c 128,-1,24
 376 943 376 943 429.5 973.5 c 128,-1,25
 483 1004 483 1004 544 1004 c 0,26,27
 562 1004 562 1004 580 998 c 128,-1,28
 598 992 598 992 612 979.5 c 128,-1,29
 626 967 626 967 635.5 948 c 128,-1,30
 645 929 645 929 647 904 c 1,31,-1
 664 985 l 1,32,-1
 825 985 l 1,33,-1
 720 490 l 2,34,35
 713 458 713 458 720.5 444 c 128,-1,36
 728 430 728 430 745 430 c 0,37,38
 767 430 767 430 786.5 450 c 128,-1,39
 806 470 806 470 823.5 504.5 c 128,-1,40
 841 539 841 539 855.5 585.5 c 128,-1,41
 870 632 870 632 881 684 c 0,42,43
 903 789 903 789 903.5 884 c 128,-1,44
 904 979 904 979 875.5 1051 c 128,-1,45
 847 1123 847 1123 785.5 1165.5 c 128,-1,46
 724 1208 724 1208 624 1208 c 0,47,48
 523 1208 523 1208 443.5 1164.5 c 128,-1,49
 364 1121 364 1121 304.5 1046 c 128,-1,50
 245 971 245 971 204 869.5 c 128,-1,51
 163 768 163 768 138 651 c 0,52,53
 114 536 114 536 112 435 c 128,-1,54
 110 334 110 334 137.5 259 c 128,-1,55
 165 184 165 184 226 140.5 c 128,-1,56
 287 97 287 97 388 97 c 0,57,58
 470 97 470 97 541 126 c 128,-1,59
 612 155 612 155 676 204 c 1,60,-1
 714 106 l 1,61,62
 559 -23 559 -23 363 -23 c 0,63,64
 271 -23 271 -23 204 2.5 c 128,-1,65
 137 28 137 28 91 74 c 128,-1,66
 45 120 45 120 19 183 c 128,-1,67
 -7 246 -7 246 -16 321 c 128,-1,68
 -25 396 -25 396 -19 480 c 128,-1,69
 -13 564 -13 564 6 651 c 0,70,71
 34 784 34 784 87 906.5 c 128,-1,72
 140 1029 140 1029 220 1122.5 c 128,-1,73
 300 1216 300 1216 407 1271.5 c 128,-1,74
 514 1327 514 1327 650 1327 c 0,75,76
 740 1327 740 1327 807 1301.5 c 128,-1,77
 874 1276 874 1276 920 1231 c 128,-1,78
 966 1186 966 1186 992.5 1125 c 128,-1,79
 1019 1064 1019 1064 1029.5 992.5 c 128,-1,80
 1040 921 1040 921 1035 842.5 c 128,-1,81
 1030 764 1030 764 1013 684 c 0,0,1
624 796 m 1,82,83
 614 834 614 834 592 850 c 128,-1,84
 570 866 570 866 545 866 c 0,85,86
 515 866 515 866 489 848 c 128,-1,87
 463 830 463 830 442 798.5 c 128,-1,88
 421 767 421 767 405 724 c 128,-1,89
 389 681 389 681 379 632 c 0,90,91
 367 578 367 578 366 541.5 c 128,-1,92
 365 505 365 505 373 483 c 128,-1,93
 381 461 381 461 397 452 c 128,-1,94
 413 443 413 443 436 443 c 0,95,96
 461 443 461 443 486 460.5 c 128,-1,97
 511 478 511 478 531.5 506 c 128,-1,98
 552 534 552 534 567.5 568.5 c 128,-1,99
 583 603 583 603 590 638 c 2,100,-1
 624 796 l 1,82,83
EndSplineSet
Validated: 33
EndChar

StartChar: A
Encoding: 65 65 34
Width: 1118
VWidth: 2048
Flags: W
LayerCount: 2
Fore
SplineSet
678 0 m 1,0,-1
 649 311 l 1,1,-1
 217 311 l 1,2,-1
 59 0 l 1,3,-1
 -158 0 l 1,4,-1
 526 1305 l 1,5,-1
 764 1305 l 1,6,-1
 895 0 l 1,7,-1
 678 0 l 1,0,-1
311 494 m 1,8,-1
 633 494 l 1,9,-1
 588 1032 l 1,10,-1
 311 494 l 1,8,-1
EndSplineSet
Validated: 1
EndChar

StartChar: B
Encoding: 66 66 35
Width: 1118
VWidth: 2048
Flags: W
LayerCount: 2
Fore
SplineSet
907 358 m 0,0,1
 868 180 868 180 729 90 c 128,-1,2
 590 0 590 0 367 0 c 2,3,-1
 -49 0 l 1,4,-1
 227 1305 l 1,5,-1
 621 1305 l 2,6,7
 702 1305 702 1305 778 1291.5 c 128,-1,8
 854 1278 854 1278 908.5 1241 c 128,-1,9
 963 1204 963 1204 988.5 1137.5 c 128,-1,10
 1014 1071 1014 1071 991 965 c 0,11,12
 969 866 969 866 901.5 784 c 128,-1,13
 834 702 834 702 725 666 c 1,14,15
 842 627 842 627 888 557 c 128,-1,16
 934 487 934 487 907 358 c 0,0,1
780 938 m 0,17,18
 793 995 793 995 778.5 1031 c 128,-1,19
 764 1067 764 1067 734.5 1086.5 c 128,-1,20
 705 1106 705 1106 665 1112 c 128,-1,21
 625 1118 625 1118 582 1118 c 2,22,-1
 395 1118 l 1,23,-1
 317 758 l 1,24,-1
 504 758 l 2,25,26
 547 758 547 758 590 764 c 128,-1,27
 633 770 633 770 671 789.5 c 128,-1,28
 709 809 709 809 738.5 845 c 128,-1,29
 768 881 768 881 780 938 c 0,17,18
707 379 m 0,30,31
 727 477 727 477 668.5 524 c 128,-1,32
 610 571 610 571 487 571 c 2,33,-1
 279 571 l 1,34,-1
 197 186 l 1,35,-1
 406 186 l 2,36,37
 528 186 528 186 607 233.5 c 128,-1,38
 686 281 686 281 707 379 c 0,30,31
EndSplineSet
Validated: 33
EndChar

StartChar: C
Encoding: 67 67 36
Width: 1118
VWidth: 2048
Flags: W
LayerCount: 2
Fore
SplineSet
938 399 m 1,0,1
 893 303 893 303 836.5 225 c 128,-1,2
 780 147 780 147 710.5 92 c 128,-1,3
 641 37 641 37 558 7 c 128,-1,4
 475 -23 475 -23 377 -23 c 0,5,6
 240 -23 240 -23 157 33.5 c 128,-1,7
 74 90 74 90 33 184.5 c 128,-1,8
 -8 279 -8 279 -8 400.5 c 128,-1,9
 -8 522 -8 522 18 653 c 0,10,11
 47 784 47 784 99.5 906 c 128,-1,12
 152 1028 152 1028 231.5 1121 c 128,-1,13
 311 1214 311 1214 414.5 1270.5 c 128,-1,14
 518 1327 518 1327 651 1327 c 0,15,16
 694 1327 694 1327 736 1316 c 128,-1,17
 778 1305 778 1305 811 1282.5 c 128,-1,18
 844 1260 844 1260 865.5 1227 c 128,-1,19
 887 1194 887 1194 891 1151 c 1,20,-1
 924 1305 l 1,21,-1
 1110 1305 l 1,22,-1
 1006 811 l 1,23,-1
 819 811 l 1,24,25
 831 872 831 872 828 931.5 c 128,-1,26
 825 991 825 991 802.5 1037 c 128,-1,27
 780 1083 780 1083 736 1112 c 128,-1,28
 692 1141 692 1141 625 1141 c 0,29,30
 537 1141 537 1141 471.5 1098 c 128,-1,31
 406 1055 406 1055 357.5 985 c 128,-1,32
 309 915 309 915 276.5 828 c 128,-1,33
 244 741 244 741 225 653 c 0,34,35
 207 565 207 565 202 477 c 128,-1,36
 197 389 197 389 214 319.5 c 128,-1,37
 231 250 231 250 280.5 207 c 128,-1,38
 330 164 330 164 418 164 c 0,39,40
 545 164 545 164 630 245 c 128,-1,41
 715 326 715 326 786 463 c 1,42,-1
 938 399 l 1,0,1
EndSplineSet
Validated: 33
EndChar

StartChar: D
Encoding: 68 68 37
Width: 1118
VWidth: 2048
Flags: W
LayerCount: 2
Fore
SplineSet
1014 653 m 0,0,1
 987 522 987 522 934 403.5 c 128,-1,2
 881 285 881 285 802 195.5 c 128,-1,3
 723 106 723 106 616.5 53 c 128,-1,4
 510 0 510 0 375 0 c 2,5,-1
 -49 0 l 1,6,-1
 227 1305 l 1,7,-1
 651 1305 l 2,8,9
 784 1305 784 1305 868 1251.5 c 128,-1,10
 952 1198 952 1198 993 1109 c 128,-1,11
 1034 1020 1034 1020 1038 902 c 128,-1,12
 1042 784 1042 784 1014 653 c 0,0,1
807 653 m 0,13,14
 856 879 856 879 805 998.5 c 128,-1,15
 754 1118 754 1118 612 1118 c 2,16,-1
 395 1118 l 1,17,-1
 197 186 l 1,18,-1
 414 186 l 2,19,20
 555 186 555 186 657.5 308 c 128,-1,21
 760 430 760 430 807 653 c 0,13,14
EndSplineSet
Validated: 33
EndChar

StartChar: E
Encoding: 69 69 38
Width: 1118
VWidth: 2048
Flags: W
LayerCount: 2
Fore
SplineSet
784 0 m 1,0,-1
 -49 0 l 1,1,-1
 227 1305 l 1,2,-1
 1061 1305 l 1,3,-1
 1022 1118 l 1,4,-1
 395 1118 l 1,5,-1
 317 758 l 1,6,-1
 807 758 l 1,7,-1
 768 571 l 1,8,-1
 279 571 l 1,9,-1
 197 186 l 1,10,-1
 823 186 l 1,11,-1
 784 0 l 1,0,-1
EndSplineSet
Validated: 1
EndChar

StartChar: F
Encoding: 70 70 39
Width: 1118
VWidth: 2048
Flags: W
LayerCount: 2
Fore
SplineSet
1022 1118 m 1,0,-1
 395 1118 l 1,1,-1
 317 758 l 1,2,-1
 807 758 l 1,3,-1
 768 571 l 1,4,-1
 279 571 l 1,5,-1
 158 0 l 1,6,-1
 -49 0 l 1,7,-1
 227 1305 l 1,8,-1
 1061 1305 l 1,9,-1
 1022 1118 l 1,0,-1
EndSplineSet
Validated: 1
EndChar

StartChar: G
Encoding: 71 71 40
Width: 1118
VWidth: 2048
Flags: W
LayerCount: 2
Fore
SplineSet
1022 649 m 1,0,1
 993 516 993 516 941 395 c 128,-1,2
 889 274 889 274 809 181 c 128,-1,3
 729 88 729 88 621.5 32.5 c 128,-1,4
 514 -23 514 -23 377 -23 c 256,5,6
 240 -23 240 -23 157 33.5 c 128,-1,7
 74 90 74 90 33 183 c 128,-1,8
 -8 276 -8 276 -9 398 c 128,-1,9
 -10 520 -10 520 18 651 c 0,10,11
 47 782 47 782 99.5 904 c 128,-1,12
 152 1026 152 1026 232.5 1120 c 128,-1,13
 313 1214 313 1214 419.5 1270.5 c 128,-1,14
 526 1327 526 1327 664 1327 c 0,15,16
 702 1327 702 1327 741 1316 c 128,-1,17
 780 1305 780 1305 812 1282.5 c 128,-1,18
 844 1260 844 1260 865.5 1227 c 128,-1,19
 887 1194 887 1194 891 1151 c 1,20,-1
 924 1305 l 1,21,-1
 1110 1305 l 1,22,-1
 1012 842 l 1,23,-1
 825 842 l 1,24,25
 838 903 838 903 830.5 957.5 c 128,-1,26
 823 1012 823 1012 796.5 1053 c 128,-1,27
 770 1094 770 1094 726 1117.5 c 128,-1,28
 682 1141 682 1141 625 1141 c 0,29,30
 537 1141 537 1141 471.5 1097 c 128,-1,31
 406 1053 406 1053 356.5 983 c 128,-1,32
 307 913 307 913 275.5 826 c 128,-1,33
 244 739 244 739 225 651 c 0,34,35
 207 563 207 563 202 476 c 128,-1,36
 197 389 197 389 214 319.5 c 128,-1,37
 231 250 231 250 280.5 207 c 128,-1,38
 330 164 330 164 418 164 c 0,39,40
 545 164 545 164 639 245 c 128,-1,41
 733 326 733 326 799 496 c 1,42,-1
 524 496 l 1,43,-1
 563 682 l 1,44,-1
 1028 682 l 1,45,-1
 1022 649 l 1,0,1
EndSplineSet
Validated: 33
EndChar

StartChar: H
Encoding: 72 72 41
Width: 1118
VWidth: 2048
Flags: W
LayerCount: 2
Fore
SplineSet
784 0 m 1,0,-1
 578 0 l 1,1,-1
 698 571 l 1,2,-1
 279 571 l 1,3,-1
 158 0 l 1,4,-1
 -49 0 l 1,5,-1
 227 1305 l 1,6,-1
 434 1305 l 1,7,-1
 317 758 l 1,8,-1
 737 758 l 1,9,-1
 854 1305 l 1,10,-1
 1061 1305 l 1,11,-1
 784 0 l 1,0,-1
EndSplineSet
Validated: 1
EndChar

StartChar: I
Encoding: 73 73 42
Width: 1118
VWidth: 2048
Flags: W
LayerCount: 2
Fore
SplineSet
684 0 m 1,0,-1
 57 0 l 1,1,-1
 96 186 l 1,2,-1
 303 186 l 1,3,-1
 502 1118 l 1,4,-1
 295 1118 l 1,5,-1
 334 1305 l 1,6,-1
 961 1305 l 1,7,-1
 922 1118 l 1,8,-1
 709 1118 l 1,9,-1
 510 186 l 1,10,-1
 723 186 l 1,11,-1
 684 0 l 1,0,-1
EndSplineSet
Validated: 1
EndChar

StartChar: J
Encoding: 74 74 43
Width: 1118
VWidth: 2048
Flags: W
LayerCount: 2
Fore
SplineSet
889 498 m 2,0,1
 836 250 836 250 701.5 113.5 c 128,-1,2
 567 -23 567 -23 350 -23 c 0,3,4
 176 -23 176 -23 78 68.5 c 128,-1,5
 -20 160 -20 160 -29 342 c 1,6,-1
 172 412 l 1,7,8
 176 295 176 295 228.5 229.5 c 128,-1,9
 281 164 281 164 391 164 c 0,10,11
 459 164 459 164 507 191.5 c 128,-1,12
 555 219 555 219 590 265 c 128,-1,13
 625 311 625 311 646.5 371.5 c 128,-1,14
 668 432 668 432 682 498 c 2,15,-1
 854 1305 l 1,16,-1
 1061 1305 l 1,17,-1
 889 498 l 2,0,1
EndSplineSet
Validated: 1
EndChar

StartChar: K
Encoding: 75 75 44
Width: 1118
VWidth: 2048
Flags: W
LayerCount: 2
Fore
SplineSet
827 0 m 1,0,-1
 586 0 l 1,1,-1
 373 608 l 1,2,-1
 264 506 l 1,3,-1
 158 0 l 1,4,-1
 -49 0 l 1,5,-1
 227 1305 l 1,6,-1
 434 1305 l 1,7,-1
 326 793 l 1,8,-1
 840 1305 l 1,9,-1
 1106 1305 l 1,10,-1
 537 764 l 1,11,-1
 827 0 l 1,0,-1
EndSplineSet
Validated: 1
EndChar

StartChar: L
Encoding: 76 76 45
Width: 1118
VWidth: 2048
Flags: W
LayerCount: 2
Fore
SplineSet
784 0 m 1,0,-1
 -49 0 l 1,1,-1
 227 1305 l 1,2,-1
 434 1305 l 1,3,-1
 197 186 l 1,4,-1
 823 186 l 1,5,-1
 784 0 l 1,0,-1
EndSplineSet
Validated: 1
EndChar

StartChar: M
Encoding: 77 77 46
Width: 1118
VWidth: 2048
Flags: W
LayerCount: 2
Fore
SplineSet
784 0 m 1,0,-1
 578 0 l 1,1,-1
 764 883 l 1,2,-1
 532 414 l 1,3,-1
 373 414 l 1,4,-1
 344 883 l 1,5,-1
 158 0 l 1,6,-1
 -49 0 l 1,7,-1
 227 1305 l 1,8,-1
 473 1305 l 1,9,-1
 518 715 l 1,10,-1
 813 1305 l 1,11,-1
 1061 1305 l 1,12,-1
 784 0 l 1,0,-1
EndSplineSet
Validated: 1
EndChar

StartChar: N
Encoding: 78 78 47
Width: 1118
VWidth: 2048
Flags: W
LayerCount: 2
Fore
SplineSet
784 0 m 1,0,-1
 545 0 l 1,1,-1
 358 946 l 1,2,-1
 158 0 l 1,3,-1
 -49 0 l 1,4,-1
 227 1305 l 1,5,-1
 487 1305 l 1,6,-1
 664 406 l 1,7,-1
 854 1305 l 1,8,-1
 1061 1305 l 1,9,-1
 784 0 l 1,0,-1
EndSplineSet
Validated: 1
EndChar

StartChar: O
Encoding: 79 79 48
Width: 1118
VWidth: 2048
Flags: W
LayerCount: 2
Fore
SplineSet
6 653 m 0,0,1
 35 784 35 784 88 906 c 128,-1,2
 141 1028 141 1028 221 1121 c 128,-1,3
 301 1214 301 1214 407.5 1270.5 c 128,-1,4
 514 1327 514 1327 649 1327 c 256,5,6
 784 1327 784 1327 868 1270.5 c 128,-1,7
 952 1214 952 1214 992 1121 c 128,-1,8
 1032 1028 1032 1028 1033 906 c 128,-1,9
 1034 784 1034 784 1006 653 c 0,10,11
 979 522 979 522 925.5 400.5 c 128,-1,12
 872 279 872 279 793.5 184.5 c 128,-1,13
 715 90 715 90 607.5 33.5 c 128,-1,14
 500 -23 500 -23 362 -23 c 0,15,16
 225 -23 225 -23 142 33.5 c 128,-1,17
 59 90 59 90 19.5 184.5 c 128,-1,18
 -20 279 -20 279 -20 400.5 c 128,-1,19
 -20 522 -20 522 6 653 c 0,0,1
213 653 m 0,20,21
 195 565 195 565 189.5 477 c 128,-1,22
 184 389 184 389 201.5 319.5 c 128,-1,23
 219 250 219 250 267 207 c 128,-1,24
 315 164 315 164 403 164 c 0,25,26
 492 164 492 164 556.5 207 c 128,-1,27
 621 250 621 250 669 319.5 c 128,-1,28
 717 389 717 389 748.5 477 c 128,-1,29
 780 565 780 565 799 653 c 0,30,31
 817 741 817 741 823 828 c 128,-1,32
 829 915 829 915 811 985 c 128,-1,33
 793 1055 793 1055 744.5 1098 c 128,-1,34
 696 1141 696 1141 610 1141 c 0,35,36
 467 1141 467 1141 364.5 1012 c 128,-1,37
 262 883 262 883 213 653 c 0,20,21
EndSplineSet
Validated: 33
EndChar

StartChar: P
Encoding: 80 80 49
Width: 1118
VWidth: 2048
Flags: W
LayerCount: 2
Fore
SplineSet
1028 915 m 0,0,1
 985 719 985 719 846 623.5 c 128,-1,2
 707 528 707 528 494 528 c 2,3,-1
 268 528 l 1,4,-1
 158 0 l 1,5,-1
 -49 0 l 1,6,-1
 227 1305 l 1,7,-1
 657 1305 l 2,8,9
 872 1305 872 1305 969.5 1206.5 c 128,-1,10
 1067 1108 1067 1108 1028 915 c 0,0,1
821 918 m 0,11,12
 842 1018 842 1018 787.5 1068 c 128,-1,13
 733 1118 733 1118 621 1118 c 2,14,-1
 395 1118 l 1,15,-1
 309 715 l 1,16,-1
 535 715 l 2,17,18
 647 715 647 715 723 765 c 128,-1,19
 799 815 799 815 821 918 c 0,11,12
EndSplineSet
Validated: 33
EndChar

StartChar: Q
Encoding: 81 81 50
Width: 1118
VWidth: 2048
Flags: W
LayerCount: 2
Fore
SplineSet
6 653 m 0,0,1
 35 784 35 784 88 906 c 128,-1,2
 141 1028 141 1028 221 1121 c 128,-1,3
 301 1214 301 1214 407.5 1270.5 c 128,-1,4
 514 1327 514 1327 649 1327 c 256,5,6
 784 1327 784 1327 868 1270.5 c 128,-1,7
 952 1214 952 1214 992 1121 c 128,-1,8
 1032 1028 1032 1028 1033 906 c 128,-1,9
 1034 784 1034 784 1006 653 c 0,10,11
 981 532 981 532 936 420.5 c 128,-1,12
 891 309 891 309 822.5 219 c 128,-1,13
 754 129 754 129 663.5 66.5 c 128,-1,14
 573 4 573 4 459 -14 c 1,15,16
 449 -113 449 -113 512 -149.5 c 128,-1,17
 575 -186 575 -186 709 -186 c 0,18,19
 727 -186 727 -186 748.5 -185 c 128,-1,20
 770 -184 770 -184 793 -184 c 1,21,-1
 754 -369 l 1,22,23
 725 -371 725 -371 698.5 -372 c 128,-1,24
 672 -373 672 -373 647 -373 c 0,25,26
 444 -373 444 -373 337.5 -280.5 c 128,-1,27
 231 -188 231 -188 246 -8 c 1,28,29
 147 16 147 16 88 78.5 c 128,-1,30
 29 141 29 141 3 230 c 128,-1,31
 -23 319 -23 319 -20.5 428 c 128,-1,32
 -18 537 -18 537 6 653 c 0,0,1
213 653 m 0,33,34
 195 565 195 565 189.5 477 c 128,-1,35
 184 389 184 389 201.5 319.5 c 128,-1,36
 219 250 219 250 267 207 c 128,-1,37
 315 164 315 164 403 164 c 0,38,39
 492 164 492 164 556.5 207 c 128,-1,40
 621 250 621 250 669 319.5 c 128,-1,41
 717 389 717 389 748.5 477 c 128,-1,42
 780 565 780 565 799 653 c 0,43,44
 817 741 817 741 823 828 c 128,-1,45
 829 915 829 915 811 985 c 128,-1,46
 793 1055 793 1055 744.5 1098 c 128,-1,47
 696 1141 696 1141 610 1141 c 0,48,49
 467 1141 467 1141 364.5 1012 c 128,-1,50
 262 883 262 883 213 653 c 0,33,34
EndSplineSet
Validated: 33
EndChar

StartChar: R
Encoding: 82 82 51
Width: 1118
VWidth: 2048
Flags: W
LayerCount: 2
Fore
SplineSet
852 0 m 1,0,-1
 590 0 l 1,1,-1
 362 528 l 1,2,-1
 268 528 l 1,3,-1
 158 0 l 1,4,-1
 -49 0 l 1,5,-1
 227 1305 l 1,6,-1
 657 1305 l 2,7,8
 872 1305 872 1305 969.5 1206.5 c 128,-1,9
 1067 1108 1067 1108 1028 915 c 0,10,11
 1010 829 1010 829 969 763.5 c 128,-1,12
 928 698 928 698 869.5 651 c 128,-1,13
 811 604 811 604 740.5 576.5 c 128,-1,14
 670 549 670 549 592 539 c 1,15,-1
 852 0 l 1,0,-1
821 918 m 0,16,17
 842 1018 842 1018 787.5 1068 c 128,-1,18
 733 1118 733 1118 618 1118 c 2,19,-1
 395 1118 l 1,20,-1
 309 715 l 1,21,-1
 532 715 l 2,22,23
 647 715 647 715 723 765 c 128,-1,24
 799 815 799 815 821 918 c 0,16,17
EndSplineSet
Validated: 33
EndChar

StartChar: S
Encoding: 83 83 52
Width: 1118
VWidth: 2048
Flags: W
LayerCount: 2
Fore
SplineSet
877 358 m 0,0,1
 856 268 856 268 811 197.5 c 128,-1,2
 766 127 766 127 702.5 78 c 128,-1,3
 639 29 639 29 561 3 c 128,-1,4
 483 -23 483 -23 401 -23 c 0,5,6
 309 -23 309 -23 242.5 10 c 128,-1,7
 176 43 176 43 139 119 c 1,8,-1
 115 0 l 1,9,-1
 -72 0 l 1,10,-1
 18 426 l 1,11,-1
 205 426 l 1,12,13
 190 362 190 362 202.5 313 c 128,-1,14
 215 264 215 264 244.5 230.5 c 128,-1,15
 274 197 274 197 319.5 179.5 c 128,-1,16
 365 162 365 162 420 162 c 0,17,18
 512 162 512 162 578.5 205 c 128,-1,19
 645 248 645 248 666 342 c 0,20,21
 676 391 676 391 665.5 426 c 128,-1,22
 655 461 655 461 628.5 488.5 c 128,-1,23
 602 516 602 516 559 536.5 c 128,-1,24
 516 557 516 557 463 580 c 1,25,26
 395 604 395 604 330.5 634 c 128,-1,27
 266 664 266 664 220 708 c 128,-1,28
 174 752 174 752 152.5 816.5 c 128,-1,29
 131 881 131 881 152 979 c 0,30,31
 170 1065 170 1065 215 1129.5 c 128,-1,32
 260 1194 260 1194 322.5 1238 c 128,-1,33
 385 1282 385 1282 458.5 1304.5 c 128,-1,34
 532 1327 532 1327 610 1327 c 0,35,36
 700 1327 700 1327 756.5 1289 c 128,-1,37
 813 1251 813 1251 836 1188 c 1,38,-1
 860 1305 l 1,39,-1
 1047 1305 l 1,40,-1
 961 899 l 1,41,-1
 774 899 l 1,42,43
 799 1014 799 1014 752 1078.5 c 128,-1,44
 705 1143 705 1143 602 1143 c 0,45,46
 512 1143 512 1143 443.5 1101 c 128,-1,47
 375 1059 375 1059 360 983 c 0,48,49
 350 944 350 944 360.5 916.5 c 128,-1,50
 371 889 371 889 395.5 866.5 c 128,-1,51
 420 844 420 844 461 824.5 c 128,-1,52
 502 805 502 805 557 782 c 0,53,54
 625 756 625 756 690.5 723 c 128,-1,55
 756 690 756 690 804 642 c 128,-1,56
 852 594 852 594 874.5 525.5 c 128,-1,57
 897 457 897 457 877 358 c 0,0,1
EndSplineSet
Validated: 33
EndChar

StartChar: T
Encoding: 84 84 53
Width: 1118
VWidth: 2048
Flags: W
LayerCount: 2
Fore
SplineSet
1008 829 m 1,0,-1
 823 829 l 1,1,-1
 885 1118 l 1,2,-1
 709 1118 l 1,3,-1
 510 186 l 1,4,-1
 717 186 l 1,5,-1
 678 0 l 1,6,-1
 57 0 l 1,7,-1
 96 186 l 1,8,-1
 303 186 l 1,9,-1
 502 1118 l 1,10,-1
 324 1118 l 1,11,-1
 262 829 l 1,12,-1
 78 829 l 1,13,-1
 178 1305 l 1,14,-1
 1108 1305 l 1,15,-1
 1008 829 l 1,0,-1
EndSplineSet
Validated: 1
EndChar

StartChar: U
Encoding: 85 85 54
Width: 1118
VWidth: 2048
Flags: W
LayerCount: 2
Fore
SplineSet
883 465 m 2,0,1
 858 354 858 354 815 264 c 128,-1,2
 772 174 772 174 706.5 110.5 c 128,-1,3
 641 47 641 47 555 12 c 128,-1,4
 469 -23 469 -23 360 -23 c 0,5,6
 252 -23 252 -23 181.5 12 c 128,-1,7
 111 47 111 47 74 110.5 c 128,-1,8
 37 174 37 174 31 265 c 128,-1,9
 25 356 25 356 49 467 c 2,10,-1
 227 1305 l 1,11,-1
 434 1305 l 1,12,-1
 256 465 l 2,13,14
 246 416 246 416 242 363.5 c 128,-1,15
 238 311 238 311 249 266 c 128,-1,16
 260 221 260 221 297 192.5 c 128,-1,17
 334 164 334 164 401 164 c 0,18,19
 469 164 469 164 516 192.5 c 128,-1,20
 563 221 563 221 596 265 c 128,-1,21
 629 309 629 309 647.5 362.5 c 128,-1,22
 666 416 666 416 676 465 c 2,23,-1
 854 1305 l 1,24,-1
 1061 1305 l 1,25,-1
 883 465 l 2,0,1
EndSplineSet
Validated: 33
EndChar

StartChar: V
Encoding: 86 86 55
Width: 1118
VWidth: 2048
Flags: W
LayerCount: 2
Fore
SplineSet
1169 1305 m 1,0,-1
 485 0 l 1,1,-1
 250 0 l 1,2,-1
 119 1305 l 1,3,-1
 336 1305 l 1,4,-1
 426 272 l 1,5,-1
 952 1305 l 1,6,-1
 1169 1305 l 1,0,-1
EndSplineSet
Validated: 1
EndChar

StartChar: W
Encoding: 87 87 56
Width: 1118
VWidth: 2048
Flags: W
LayerCount: 2
Fore
SplineSet
1174 1305 m 1,0,-1
 694 0 l 1,1,-1
 481 0 l 1,2,-1
 485 563 l 1,3,-1
 254 0 l 1,4,-1
 41 0 l 1,5,-1
 115 1305 l 1,6,-1
 330 1305 l 1,7,-1
 264 426 l 1,8,-1
 465 932 l 1,9,-1
 664 932 l 1,10,-1
 649 426 l 1,11,-1
 958 1305 l 1,12,-1
 1174 1305 l 1,0,-1
EndSplineSet
Validated: 1
EndChar

StartChar: X
Encoding: 88 88 57
Width: 1118
VWidth: 2048
Flags: W
LayerCount: 2
Fore
SplineSet
854 0 m 1,0,-1
 428 0 l 1,1,-1
 467 186 l 1,2,-1
 541 186 l 1,3,-1
 465 481 l 1,4,-1
 266 186 l 1,5,-1
 340 186 l 1,6,-1
 301 0 l 1,7,-1
 -121 0 l 1,8,-1
 -82 186 l 1,9,-1
 31 186 l 1,10,-1
 385 659 l 1,11,-1
 233 1118 l 1,12,-1
 139 1118 l 1,13,-1
 178 1305 l 1,14,-1
 592 1305 l 1,15,-1
 553 1118 l 1,16,-1
 469 1118 l 1,17,-1
 541 829 l 1,18,-1
 737 1118 l 1,19,-1
 655 1118 l 1,20,-1
 694 1305 l 1,21,-1
 1110 1305 l 1,22,-1
 1071 1118 l 1,23,-1
 971 1118 l 1,24,-1
 623 659 l 1,25,-1
 776 186 l 1,26,-1
 893 186 l 1,27,-1
 854 0 l 1,0,-1
EndSplineSet
Validated: 1
EndChar

StartChar: Y
Encoding: 89 89 58
Width: 1118
VWidth: 2048
Flags: W
LayerCount: 2
Fore
SplineSet
1092 1118 m 1,0,-1
 997 1118 l 1,1,-1
 584 532 l 1,2,-1
 510 186 l 1,3,-1
 719 186 l 1,4,-1
 680 0 l 1,5,-1
 55 0 l 1,6,-1
 94 186 l 1,7,-1
 303 186 l 1,8,-1
 377 532 l 1,9,-1
 213 1118 l 1,10,-1
 119 1118 l 1,11,-1
 158 1305 l 1,12,-1
 569 1305 l 1,13,-1
 530 1118 l 1,14,-1
 440 1118 l 1,15,-1
 524 735 l 1,16,-1
 770 1118 l 1,17,-1
 680 1118 l 1,18,-1
 719 1305 l 1,19,-1
 1130 1305 l 1,20,-1
 1092 1118 l 1,0,-1
EndSplineSet
Validated: 1
EndChar

StartChar: Z
Encoding: 90 90 59
Width: 1118
VWidth: 2048
Flags: W
LayerCount: 2
Fore
SplineSet
784 0 m 1,0,-1
 -49 0 l 1,1,-1
 -10 184 l 1,2,-1
 772 1118 l 1,3,-1
 375 1118 l 1,4,-1
 313 834 l 1,5,-1
 127 834 l 1,6,-1
 227 1305 l 1,7,-1
 1044 1305 l 1,8,-1
 1006 1118 l 1,9,-1
 240 186 l 1,10,-1
 641 186 l 1,11,-1
 702 473 l 1,12,-1
 885 473 l 1,13,-1
 784 0 l 1,0,-1
EndSplineSet
Validated: 1
EndChar

StartChar: bracketleft
Encoding: 91 91 60
Width: 1118
VWidth: 2048
Flags: W
LayerCount: 2
Fore
SplineSet
629 -373 m 1,0,-1
 195 -373 l 1,1,-1
 590 1491 l 1,2,-1
 1024 1491 l 1,3,-1
 985 1305 l 1,4,-1
 737 1305 l 1,5,-1
 420 -186 l 1,6,-1
 668 -186 l 1,7,-1
 629 -373 l 1,0,-1
EndSplineSet
Validated: 1
EndChar

StartChar: backslash
Encoding: 92 92 61
Width: 1118
VWidth: 2048
Flags: W
LayerCount: 2
Fore
SplineSet
795 -176 m 1,0,-1
 625 -252 l 1,1,-1
 186 1290 l 1,2,-1
 356 1366 l 1,3,-1
 795 -176 l 1,0,-1
EndSplineSet
Validated: 1
EndChar

StartChar: bracketright
Encoding: 93 93 62
Width: 1118
VWidth: 2048
Flags: W
LayerCount: 2
Fore
SplineSet
381 -373 m 1,0,-1
 -53 -373 l 1,1,-1
 -14 -186 l 1,2,-1
 233 -186 l 1,3,-1
 551 1305 l 1,4,-1
 303 1305 l 1,5,-1
 342 1491 l 1,6,-1
 776 1491 l 1,7,-1
 381 -373 l 1,0,-1
EndSplineSet
Validated: 1
EndChar

StartChar: asciicircum
Encoding: 94 94 63
Width: 1118
VWidth: 2048
Flags: W
LayerCount: 2
Fore
SplineSet
1015 559 m 1,0,-1
 787 559 l 1,1,-1
 607 1121 l 1,2,-1
 189 559 l 1,3,-1
 -39 559 l 1,4,-1
 522 1305 l 1,5,-1
 770 1305 l 1,6,-1
 1015 559 l 1,0,-1
EndSplineSet
Validated: 1
EndChar

StartChar: underscore
Encoding: 95 95 64
Width: 1118
VWidth: 2048
Flags: W
LayerCount: 2
Fore
SplineSet
794 -186 m 1,0,-1
 -137 -186 l 1,1,-1
 -98 0 l 1,2,-1
 834 0 l 1,3,-1
 794 -186 l 1,0,-1
EndSplineSet
Validated: 1
EndChar

StartChar: grave
Encoding: 96 96 65
Width: 1118
VWidth: 2048
Flags: W
LayerCount: 2
Fore
SplineSet
543 1405 m 1,0,-1
 887 1118 l 1,1,-1
 768 981 l 1,2,-1
 389 1225 l 1,3,-1
 543 1405 l 1,0,-1
EndSplineSet
Validated: 1
EndChar

StartChar: a
Encoding: 97 97 66
Width: 1118
VWidth: 2048
Flags: W
LayerCount: 2
Fore
SplineSet
-47 268 m 0,0,1
 -29 350 -29 350 28.5 411.5 c 128,-1,2
 86 473 86 473 166 514 c 128,-1,3
 246 555 246 555 342 575.5 c 128,-1,4
 438 596 438 596 535 596 c 0,5,6
 588 596 588 596 626 594 c 128,-1,7
 664 592 664 592 702 588 c 1,8,-1
 709 625 l 2,9,10
 725 698 725 698 676 734 c 128,-1,11
 627 770 627 770 535 770 c 0,12,13
 451 770 451 770 359.5 746.5 c 128,-1,14
 268 723 268 723 180 678 c 1,15,-1
 131 840 l 1,16,17
 233 893 233 893 346 923.5 c 128,-1,18
 459 954 459 954 575 954 c 0,19,20
 651 954 651 954 721 937 c 128,-1,21
 791 920 791 920 841 881 c 128,-1,22
 891 842 891 842 912.5 779.5 c 128,-1,23
 934 717 934 717 913 625 c 2,24,-1
 782 0 l 1,25,-1
 578 0 l 1,26,-1
 606 137 l 1,27,28
 541 61 541 61 436.5 19 c 128,-1,29
 332 -23 332 -23 221 -23 c 0,30,31
 154 -23 154 -23 97.5 -4.5 c 128,-1,32
 41 14 41 14 5 51 c 128,-1,33
 -31 88 -31 88 -46 142.5 c 128,-1,34
 -61 197 -61 197 -47 268 c 0,0,1
313 162 m 0,35,36
 375 162 375 162 431 177.5 c 128,-1,37
 487 193 487 193 534.5 220.5 c 128,-1,38
 582 248 582 248 613.5 287 c 128,-1,39
 645 326 645 326 655 373 c 2,40,-1
 664 408 l 1,41,42
 616 416 616 416 573 417 c 128,-1,43
 530 418 530 418 498 418 c 0,44,45
 346 418 346 418 260 378 c 128,-1,46
 174 338 174 338 160 279 c 0,47,48
 135 162 135 162 313 162 c 0,35,36
EndSplineSet
Validated: 33
EndChar

StartChar: b
Encoding: 98 98 67
Width: 1118
VWidth: 2048
Flags: W
LayerCount: 2
Fore
SplineSet
227 1305 m 1,0,-1
 434 1305 l 1,1,-1
 336 848 l 1,2,3
 408 901 408 901 474.5 927.5 c 128,-1,4
 541 954 541 954 618 954 c 0,5,6
 709 954 709 954 777.5 917.5 c 128,-1,7
 846 881 846 881 888 816.5 c 128,-1,8
 930 752 930 752 942 661.5 c 128,-1,9
 954 571 954 571 932 465 c 0,10,11
 909 358 909 358 858 268 c 128,-1,12
 807 178 807 178 738.5 113.5 c 128,-1,13
 670 49 670 49 585 13 c 128,-1,14
 500 -23 500 -23 410 -23 c 0,15,16
 332 -23 332 -23 277.5 5 c 128,-1,17
 223 33 223 33 174 86 c 1,18,-1
 158 0 l 1,19,-1
 -49 0 l 1,20,-1
 227 1305 l 1,0,-1
209 248 m 1,21,22
 238 207 238 207 291 185.5 c 128,-1,23
 344 164 344 164 397 164 c 0,24,25
 514 164 514 164 605 247 c 128,-1,26
 696 330 696 330 725 465 c 256,27,28
 754 600 754 600 697.5 684 c 128,-1,29
 641 768 641 768 524 768 c 0,30,31
 471 768 471 768 409.5 746.5 c 128,-1,32
 348 725 348 725 301 684 c 1,33,-1
 209 248 l 1,21,22
EndSplineSet
Validated: 33
EndChar

StartChar: c
Encoding: 99 99 68
Width: 1118
VWidth: 2048
Flags: W
LayerCount: 2
Fore
SplineSet
825 133 m 1,0,1
 717 43 717 43 610.5 10 c 128,-1,2
 504 -23 504 -23 387 -23 c 256,3,4
 270 -23 270 -23 182 12 c 128,-1,5
 94 47 94 47 42 110.5 c 128,-1,6
 -10 174 -10 174 -27.5 264 c 128,-1,7
 -45 354 -45 354 -20 465 c 0,8,9
 2 571 2 571 57.5 661.5 c 128,-1,10
 113 752 113 752 186.5 816.5 c 128,-1,11
 260 881 260 881 350 917.5 c 128,-1,12
 440 954 440 954 532 954 c 0,13,14
 629 954 629 954 690.5 914 c 128,-1,15
 752 874 752 874 768 797 c 1,16,-1
 797 932 l 1,17,-1
 981 932 l 1,18,-1
 889 498 l 1,19,-1
 705 498 l 1,20,21
 731 621 731 621 679 694.5 c 128,-1,22
 627 768 627 768 518 768 c 0,23,24
 475 768 475 768 425 750.5 c 128,-1,25
 375 733 375 733 327 696 c 128,-1,26
 279 659 279 659 241 602 c 128,-1,27
 203 545 203 545 186 465 c 0,28,29
 170 387 170 387 182.5 330.5 c 128,-1,30
 195 274 195 274 227.5 237.5 c 128,-1,31
 260 201 260 201 312.5 182.5 c 128,-1,32
 365 164 365 164 424 164 c 0,33,34
 524 164 524 164 605 195.5 c 128,-1,35
 686 227 686 227 750 279 c 1,36,-1
 825 133 l 1,0,1
EndSplineSet
Validated: 33
EndChar

StartChar: d
Encoding: 100 100 69
Width: 1118
VWidth: 2048
Flags: W
LayerCount: 2
Fore
SplineSet
784 0 m 1,0,-1
 578 0 l 1,1,-1
 594 86 l 1,2,3
 524 33 524 33 456.5 5 c 128,-1,4
 389 -23 389 -23 311 -23 c 0,5,6
 221 -23 221 -23 152.5 13 c 128,-1,7
 84 49 84 49 42 113.5 c 128,-1,8
 0 178 0 178 -12.5 268 c 128,-1,9
 -25 358 -25 358 -2 465 c 0,10,11
 20 571 20 571 71.5 661.5 c 128,-1,12
 123 752 123 752 191.5 816.5 c 128,-1,13
 260 881 260 881 345 917.5 c 128,-1,14
 430 954 430 954 520 954 c 0,15,16
 598 954 598 954 653.5 927.5 c 128,-1,17
 709 901 709 901 756 848 c 1,18,-1
 815 1118 l 1,19,-1
 635 1118 l 1,20,-1
 674 1305 l 1,21,-1
 1061 1305 l 1,22,-1
 784 0 l 1,0,-1
721 684 m 1,23,24
 694 725 694 725 640 746.5 c 128,-1,25
 586 768 586 768 532 768 c 0,26,27
 416 768 416 768 324.5 684 c 128,-1,28
 233 600 233 600 205 465 c 0,29,30
 176 330 176 330 232.5 247 c 128,-1,31
 289 164 289 164 406 164 c 0,32,33
 459 164 459 164 521.5 185.5 c 128,-1,34
 584 207 584 207 629 248 c 1,35,-1
 721 684 l 1,23,24
EndSplineSet
Validated: 33
EndChar

StartChar: e
Encoding: 101 101 70
Width: 1118
VWidth: 2048
Flags: W
LayerCount: 2
Fore
SplineSet
174 387 m 1,0,1
 168 291 168 291 231.5 227.5 c 128,-1,2
 295 164 295 164 424 164 c 0,3,4
 524 164 524 164 605 195.5 c 128,-1,5
 686 227 686 227 750 279 c 1,6,-1
 825 133 l 1,7,8
 717 43 717 43 609.5 10 c 128,-1,9
 502 -23 502 -23 383 -23 c 0,10,11
 274 -23 274 -23 189 13 c 128,-1,12
 104 49 104 49 50 113.5 c 128,-1,13
 -4 178 -4 178 -24.5 267 c 128,-1,14
 -45 356 -45 356 -20 465 c 0,15,16
 2 571 2 571 56.5 660.5 c 128,-1,17
 111 750 111 750 189.5 815.5 c 128,-1,18
 268 881 268 881 366.5 917.5 c 128,-1,19
 465 954 465 954 573 954 c 0,20,21
 686 954 686 954 769 915.5 c 128,-1,22
 852 877 852 877 902 804 c 128,-1,23
 952 731 952 731 966.5 625.5 c 128,-1,24
 981 520 981 520 954 387 c 1,25,-1
 174 387 l 1,0,1
760 569 m 1,26,27
 762 659 762 659 696.5 713.5 c 128,-1,28
 631 768 631 768 532 768 c 0,29,30
 434 768 434 768 345 713.5 c 128,-1,31
 256 659 256 659 221 569 c 1,32,-1
 760 569 l 1,26,27
EndSplineSet
Validated: 33
EndChar

StartChar: f
Encoding: 102 102 71
Width: 1118
VWidth: 2048
Flags: W
LayerCount: 2
Fore
SplineSet
991 745 m 1,0,-1
 629 745 l 1,1,-1
 510 186 l 1,2,-1
 723 186 l 1,3,-1
 684 0 l 1,4,-1
 57 0 l 1,5,-1
 96 186 l 1,6,-1
 303 186 l 1,7,-1
 422 745 l 1,8,-1
 215 745 l 1,9,-1
 254 932 l 1,10,-1
 461 932 l 1,11,12
 502 1124 502 1124 641 1225.5 c 128,-1,13
 780 1327 780 1327 981 1327 c 0,14,15
 1012 1327 1012 1327 1045.5 1324 c 128,-1,16
 1079 1321 1079 1321 1112 1317 c 1,17,-1
 1073 1135 l 1,18,19
 1016 1141 1016 1141 967 1141 c 0,20,21
 887 1141 887 1141 835.5 1129.5 c 128,-1,22
 784 1118 784 1118 750.5 1092.5 c 128,-1,23
 717 1067 717 1067 698.5 1027 c 128,-1,24
 680 987 680 987 668 932 c 1,25,-1
 1030 932 l 1,26,-1
 991 745 l 1,0,-1
EndSplineSet
Validated: 1
EndChar

StartChar: g
Encoding: 103 103 72
Width: 1118
VWidth: 2048
Flags: W
LayerCount: 2
Fore
SplineSet
786 10 m 2,0,1
 766 -86 766 -86 717 -161 c 128,-1,2
 668 -236 668 -236 597 -288 c 128,-1,3
 526 -340 526 -340 439 -367.5 c 128,-1,4
 352 -395 352 -395 254 -395 c 0,5,6
 10 -395 10 -395 -127 -248 c 1,7,-1
 2 -88 l 1,8,9
 121 -211 121 -211 295 -211 c 0,10,11
 401 -211 401 -211 477 -158.5 c 128,-1,12
 553 -106 553 -106 578 6 c 2,13,-1
 600 106 l 1,14,15
 524 51 524 51 458.5 24.5 c 128,-1,16
 393 -2 393 -2 315 -2 c 0,17,18
 225 -2 225 -2 156.5 36 c 128,-1,19
 88 74 88 74 47 139.5 c 128,-1,20
 6 205 6 205 -7 292 c 128,-1,21
 -20 379 -20 379 0 477 c 256,22,23
 20 575 20 575 70.5 662.5 c 128,-1,24
 121 750 121 750 190.5 814.5 c 128,-1,25
 260 879 260 879 345 916.5 c 128,-1,26
 430 954 430 954 520 954 c 0,27,28
 598 954 598 954 653.5 927.5 c 128,-1,29
 709 901 709 901 756 848 c 1,30,-1
 774 932 l 1,31,-1
 981 932 l 1,32,-1
 786 10 l 2,0,1
721 684 m 1,33,34
 694 725 694 725 640 746.5 c 128,-1,35
 586 768 586 768 530 768 c 0,36,37
 414 768 414 768 323.5 686 c 128,-1,38
 233 604 233 604 207 477 c 0,39,40
 193 414 193 414 201 360.5 c 128,-1,41
 209 307 209 307 235.5 268 c 128,-1,42
 262 229 262 229 306 206.5 c 128,-1,43
 350 184 350 184 408 184 c 0,44,45
 463 184 463 184 525.5 206.5 c 128,-1,46
 588 229 588 229 635 270 c 1,47,-1
 721 684 l 1,33,34
EndSplineSet
Validated: 33
EndChar

StartChar: h
Encoding: 104 104 73
Width: 1118
VWidth: 2048
Flags: W
LayerCount: 2
Fore
SplineSet
784 0 m 1,0,-1
 578 0 l 1,1,-1
 698 575 l 2,2,3
 721 684 721 684 689 726 c 128,-1,4
 657 768 657 768 580 768 c 0,5,6
 465 768 465 768 373 675 c 128,-1,7
 281 582 281 582 246 418 c 2,8,-1
 158 0 l 1,9,-1
 -49 0 l 1,10,-1
 227 1305 l 1,11,-1
 434 1305 l 1,12,-1
 305 698 l 1,13,14
 362 819 362 819 460.5 886.5 c 128,-1,15
 559 954 559 954 682 954 c 0,16,17
 825 954 825 954 885.5 861 c 128,-1,18
 946 768 946 768 905 575 c 2,19,-1
 784 0 l 1,0,-1
EndSplineSet
Validated: 33
EndChar

StartChar: i
Encoding: 105 105 74
Width: 1118
VWidth: 2048
Flags: W
LayerCount: 2
Fore
SplineSet
717 1053 m 1,0,-1
 465 1053 l 1,1,-1
 518 1305 l 1,2,-1
 770 1305 l 1,3,-1
 717 1053 l 1,0,-1
684 0 m 1,4,-1
 57 0 l 1,5,-1
 96 186 l 1,6,-1
 303 186 l 1,7,-1
 422 745 l 1,8,-1
 215 745 l 1,9,-1
 254 932 l 1,10,-1
 668 932 l 1,11,-1
 510 186 l 1,12,-1
 723 186 l 1,13,-1
 684 0 l 1,4,-1
EndSplineSet
Validated: 1
EndChar

StartChar: j
Encoding: 106 106 75
Width: 1118
VWidth: 2048
Flags: W
LayerCount: 2
Fore
SplineSet
160 -395 m 0,0,1
 -53 -395 -53 -395 -147 -236 c 1,2,-1
 2 -98 l 1,3,4
 39 -154 39 -154 86 -181.5 c 128,-1,5
 133 -209 133 -209 201 -209 c 0,6,7
 305 -209 305 -209 367.5 -151.5 c 128,-1,8
 430 -94 430 -94 451 0 c 2,9,-1
 608 745 l 1,10,-1
 397 745 l 1,11,-1
 436 932 l 1,12,-1
 854 932 l 1,13,-1
 657 0 l 2,14,15
 637 -90 637 -90 592 -163 c 128,-1,16
 547 -236 547 -236 481.5 -288 c 128,-1,17
 416 -340 416 -340 334 -367.5 c 128,-1,18
 252 -395 252 -395 160 -395 c 0,0,1
903 1053 m 1,19,-1
 651 1053 l 1,20,-1
 705 1305 l 1,21,-1
 956 1305 l 1,22,-1
 903 1053 l 1,19,-1
EndSplineSet
Validated: 1
EndChar

StartChar: k
Encoding: 107 107 76
Width: 1118
VWidth: 2048
Flags: W
LayerCount: 2
Fore
SplineSet
831 0 m 1,0,-1
 563 0 l 1,1,-1
 332 377 l 1,2,-1
 217 281 l 1,3,-1
 158 0 l 1,4,-1
 -49 0 l 1,5,-1
 227 1305 l 1,6,-1
 434 1305 l 1,7,-1
 270 537 l 1,8,-1
 727 932 l 1,9,-1
 1012 932 l 1,10,-1
 492 504 l 1,11,-1
 831 0 l 1,0,-1
EndSplineSet
Validated: 1
EndChar

StartChar: l
Encoding: 108 108 77
Width: 1118
VWidth: 2048
Flags: W
LayerCount: 2
Fore
SplineSet
686 0 m 1,0,-1
 59 0 l 1,1,-1
 98 186 l 1,2,-1
 303 186 l 1,3,-1
 502 1118 l 1,4,-1
 297 1118 l 1,5,-1
 336 1305 l 1,6,-1
 748 1305 l 1,7,-1
 510 186 l 1,8,-1
 725 186 l 1,9,-1
 686 0 l 1,0,-1
EndSplineSet
Validated: 1
EndChar

StartChar: m
Encoding: 109 109 78
Width: 1118
VWidth: 2048
Flags: W
LayerCount: 2
Fore
SplineSet
834 0 m 1,0,-1
 627 0 l 1,1,-1
 762 639 l 2,2,3
 776 705 776 705 769 736.5 c 128,-1,4
 762 768 762 768 727 768 c 0,5,6
 666 768 666 768 635 698.5 c 128,-1,7
 604 629 604 629 575 496 c 2,8,-1
 471 0 l 1,9,-1
 264 0 l 1,10,-1
 399 639 l 2,11,12
 414 705 414 705 405.5 736.5 c 128,-1,13
 397 768 397 768 362 768 c 0,14,15
 301 768 301 768 271.5 698.5 c 128,-1,16
 242 629 242 629 213 496 c 2,17,-1
 109 0 l 1,18,-1
 -98 0 l 1,19,-1
 98 932 l 1,20,-1
 307 932 l 1,21,-1
 279 797 l 1,22,23
 317 874 317 874 369.5 914 c 128,-1,24
 422 954 422 954 494 954 c 0,25,26
 553 954 553 954 585.5 917.5 c 128,-1,27
 618 881 618 881 618 817 c 1,28,29
 670 887 670 887 715 920.5 c 128,-1,30
 760 954 760 954 838 954 c 0,31,32
 934 954 934 954 970 883.5 c 128,-1,33
 1006 813 1006 813 975 670 c 2,34,-1
 834 0 l 1,0,-1
EndSplineSet
Validated: 33
EndChar

StartChar: n
Encoding: 110 110 79
Width: 1118
VWidth: 2048
Flags: W
LayerCount: 2
Fore
SplineSet
784 0 m 1,0,-1
 578 0 l 1,1,-1
 698 575 l 2,2,3
 721 684 721 684 689 726 c 128,-1,4
 657 768 657 768 580 768 c 0,5,6
 465 768 465 768 373 675 c 128,-1,7
 281 582 281 582 246 418 c 2,8,-1
 158 0 l 1,9,-1
 -49 0 l 1,10,-1
 147 932 l 1,11,-1
 354 932 l 1,12,-1
 305 698 l 1,13,14
 362 819 362 819 460.5 886.5 c 128,-1,15
 559 954 559 954 682 954 c 0,16,17
 825 954 825 954 885.5 861 c 128,-1,18
 946 768 946 768 905 575 c 2,19,-1
 784 0 l 1,0,-1
EndSplineSet
Validated: 33
EndChar

StartChar: o
Encoding: 111 111 80
Width: 1118
VWidth: 2048
Flags: W
LayerCount: 2
Fore
SplineSet
956 465 m 0,0,1
 932 356 932 356 878.5 267 c 128,-1,2
 825 178 825 178 747.5 113.5 c 128,-1,3
 670 49 670 49 571.5 13 c 128,-1,4
 473 -23 473 -23 362 -23 c 0,5,6
 254 -23 254 -23 172 13 c 128,-1,7
 90 49 90 49 39 113.5 c 128,-1,8
 -12 178 -12 178 -28.5 267 c 128,-1,9
 -45 356 -45 356 -20 465 c 0,10,11
 2 571 2 571 56.5 661.5 c 128,-1,12
 111 752 111 752 188.5 817.5 c 128,-1,13
 266 883 266 883 364.5 918.5 c 128,-1,14
 463 954 463 954 571 954 c 0,15,16
 682 954 682 954 764 918.5 c 128,-1,17
 846 883 846 883 897 817.5 c 128,-1,18
 948 752 948 752 963.5 661.5 c 128,-1,19
 979 571 979 571 956 465 c 0,0,1
750 465 m 0,20,21
 762 528 762 528 755 584.5 c 128,-1,22
 748 641 748 641 719 681 c 128,-1,23
 690 721 690 721 643 744.5 c 128,-1,24
 596 768 596 768 530 768 c 0,25,26
 465 768 465 768 407.5 744.5 c 128,-1,27
 350 721 350 721 306 681 c 128,-1,28
 262 641 262 641 230.5 584.5 c 128,-1,29
 199 528 199 528 186 465 c 0,30,31
 172 399 172 399 180 345 c 128,-1,32
 188 291 188 291 215 250 c 128,-1,33
 242 209 242 209 290 186.5 c 128,-1,34
 338 164 338 164 403 164 c 0,35,36
 469 164 469 164 525.5 186.5 c 128,-1,37
 582 209 582 209 628 250 c 128,-1,38
 674 291 674 291 704.5 345 c 128,-1,39
 735 399 735 399 750 465 c 0,20,21
EndSplineSet
Validated: 33
EndChar

StartChar: p
Encoding: 112 112 81
Width: 1118
VWidth: 2048
Flags: W
LayerCount: 2
Fore
SplineSet
147 932 m 1,0,-1
 354 932 l 1,1,-1
 336 848 l 1,2,3
 408 901 408 901 474.5 927.5 c 128,-1,4
 541 954 541 954 618 954 c 0,5,6
 709 954 709 954 777.5 917.5 c 128,-1,7
 846 881 846 881 888 816.5 c 128,-1,8
 930 752 930 752 942 661.5 c 128,-1,9
 954 571 954 571 932 465 c 0,10,11
 909 358 909 358 858 268 c 128,-1,12
 807 178 807 178 738.5 113.5 c 128,-1,13
 670 49 670 49 585 13 c 128,-1,14
 500 -23 500 -23 410 -23 c 0,15,16
 332 -23 332 -23 277.5 5 c 128,-1,17
 223 33 223 33 174 86 c 1,18,-1
 78 -373 l 1,19,-1
 -127 -373 l 1,20,-1
 147 932 l 1,0,-1
209 250 m 1,21,22
 238 209 238 209 291 186.5 c 128,-1,23
 344 164 344 164 397 164 c 0,24,25
 514 164 514 164 605 247 c 128,-1,26
 696 330 696 330 725 465 c 256,27,28
 754 600 754 600 697.5 684 c 128,-1,29
 641 768 641 768 524 768 c 0,30,31
 471 768 471 768 409.5 746.5 c 128,-1,32
 348 725 348 725 301 684 c 1,33,-1
 209 250 l 1,21,22
EndSplineSet
Validated: 33
EndChar

StartChar: q
Encoding: 113 113 82
Width: 1118
VWidth: 2048
Flags: W
LayerCount: 2
Fore
SplineSet
705 -373 m 1,0,-1
 498 -373 l 1,1,-1
 594 86 l 1,2,3
 524 33 524 33 456.5 5 c 128,-1,4
 389 -23 389 -23 311 -23 c 0,5,6
 221 -23 221 -23 152.5 13 c 128,-1,7
 84 49 84 49 42 113.5 c 128,-1,8
 0 178 0 178 -12.5 268 c 128,-1,9
 -25 358 -25 358 -2 465 c 0,10,11
 20 571 20 571 71.5 661.5 c 128,-1,12
 123 752 123 752 191.5 816.5 c 128,-1,13
 260 881 260 881 345 917.5 c 128,-1,14
 430 954 430 954 520 954 c 0,15,16
 598 954 598 954 653.5 927.5 c 128,-1,17
 709 901 709 901 756 848 c 1,18,-1
 774 932 l 1,19,-1
 981 932 l 1,20,-1
 705 -373 l 1,0,-1
721 684 m 1,21,22
 694 725 694 725 640 746.5 c 128,-1,23
 586 768 586 768 532 768 c 0,24,25
 416 768 416 768 324.5 684 c 128,-1,26
 233 600 233 600 205 465 c 0,27,28
 176 330 176 330 232.5 247 c 128,-1,29
 289 164 289 164 406 164 c 0,30,31
 459 164 459 164 521.5 185.5 c 128,-1,32
 584 207 584 207 629 248 c 1,33,-1
 721 684 l 1,21,22
EndSplineSet
Validated: 33
EndChar

StartChar: r
Encoding: 114 114 83
Width: 1118
VWidth: 2048
Flags: W
LayerCount: 2
Fore
SplineSet
961 711 m 1,0,1
 928 729 928 729 891 738.5 c 128,-1,2
 854 748 854 748 805 748 c 0,3,4
 735 748 735 748 670.5 727.5 c 128,-1,5
 606 707 606 707 553 666 c 128,-1,6
 500 625 500 625 463 563.5 c 128,-1,7
 426 502 426 502 408 418 c 2,8,-1
 358 186 l 1,9,-1
 567 186 l 1,10,-1
 528 0 l 1,11,-1
 -98 0 l 1,12,-1
 -59 186 l 1,13,-1
 152 186 l 1,14,-1
 270 745 l 1,15,-1
 59 745 l 1,16,-1
 98 932 l 1,17,-1
 516 932 l 1,18,-1
 467 698 l 1,19,20
 547 838 547 838 659.5 896 c 128,-1,21
 772 954 772 954 909 954 c 0,22,23
 952 954 952 954 997 945 c 128,-1,24
 1042 936 1042 936 1081 913 c 1,25,-1
 961 711 l 1,0,1
EndSplineSet
Validated: 1
EndChar

StartChar: s
Encoding: 115 115 84
Width: 1118
VWidth: 2048
Flags: W
LayerCount: 2
Fore
SplineSet
866 279 m 0,0,1
 848 188 848 188 794.5 131 c 128,-1,2
 741 74 741 74 669.5 39 c 128,-1,3
 598 4 598 4 515 -9.5 c 128,-1,4
 432 -23 432 -23 356 -23 c 0,5,6
 229 -23 229 -23 111.5 14 c 128,-1,7
 -6 51 -6 51 -86 111 c 1,8,-1
 37 281 l 1,9,10
 133 217 133 217 219 190.5 c 128,-1,11
 305 164 305 164 397 164 c 0,12,13
 522 164 522 164 584.5 190.5 c 128,-1,14
 647 217 647 217 657 264 c 0,15,16
 662 287 662 287 648.5 302 c 128,-1,17
 635 317 635 317 601 329.5 c 128,-1,18
 567 342 567 342 510 354.5 c 128,-1,19
 453 367 453 367 365 381 c 0,20,21
 295 393 295 393 234.5 410.5 c 128,-1,22
 174 428 174 428 132 460 c 128,-1,23
 90 492 90 492 70.5 541 c 128,-1,24
 51 590 51 590 66 664 c 0,25,26
 82 739 82 739 133 794.5 c 128,-1,27
 184 850 184 850 254 886 c 128,-1,28
 324 922 324 922 405.5 938 c 128,-1,29
 487 954 487 954 565 954 c 0,30,31
 676 954 676 954 773 925.5 c 128,-1,32
 870 897 870 897 936 844 c 1,33,-1
 819 684 l 1,34,35
 754 733 754 733 683 750.5 c 128,-1,36
 612 768 612 768 524 768 c 0,37,38
 487 768 487 768 446.5 764 c 128,-1,39
 406 760 406 760 370 748.5 c 128,-1,40
 334 737 334 737 307.5 717.5 c 128,-1,41
 281 698 281 698 274 670 c 0,42,43
 266 633 266 633 326.5 609.5 c 128,-1,44
 387 586 387 586 541 563 c 0,45,46
 625 551 625 551 691.5 532.5 c 128,-1,47
 758 514 758 514 802 482.5 c 128,-1,48
 846 451 846 451 864.5 401.5 c 128,-1,49
 883 352 883 352 866 279 c 0,0,1
EndSplineSet
Validated: 33
EndChar

StartChar: t
Encoding: 116 116 85
Width: 1118
VWidth: 2048
Flags: W
LayerCount: 2
Fore
SplineSet
905 297 m 1,0,1
 858 150 858 150 740.5 63.5 c 128,-1,2
 623 -23 623 -23 473 -23 c 0,3,4
 391 -23 391 -23 329.5 4 c 128,-1,5
 268 31 268 31 230.5 79 c 128,-1,6
 193 127 193 127 180.5 194.5 c 128,-1,7
 168 262 168 262 184 342 c 2,8,-1
 270 745 l 1,9,-1
 59 745 l 1,10,-1
 98 932 l 1,11,-1
 309 932 l 1,12,-1
 389 1305 l 1,13,-1
 596 1305 l 1,14,-1
 516 932 l 1,15,-1
 907 932 l 1,16,-1
 868 745 l 1,17,-1
 477 745 l 1,18,-1
 391 342 l 2,19,20
 373 252 373 252 407.5 208 c 128,-1,21
 442 164 442 164 514 164 c 0,22,23
 602 164 602 164 655.5 215 c 128,-1,24
 709 266 709 266 733 338 c 1,25,-1
 905 297 l 1,0,1
EndSplineSet
Validated: 33
EndChar

StartChar: u
Encoding: 117 117 86
Width: 1118
VWidth: 2048
Flags: W
LayerCount: 2
Fore
SplineSet
147 932 m 1,0,-1
 354 932 l 1,1,-1
 231 356 l 2,2,3
 209 248 209 248 241.5 206 c 128,-1,4
 274 164 274 164 352 164 c 0,5,6
 467 164 467 164 559 257 c 128,-1,7
 651 350 651 350 686 514 c 2,8,-1
 774 932 l 1,9,-1
 981 932 l 1,10,-1
 784 0 l 1,11,-1
 578 0 l 1,12,-1
 627 233 l 1,13,14
 569 113 569 113 471 45 c 128,-1,15
 373 -23 373 -23 250 -23 c 0,16,17
 106 -23 106 -23 46 70.5 c 128,-1,18
 -14 164 -14 164 25 356 c 2,19,-1
 147 932 l 1,0,-1
EndSplineSet
Validated: 33
EndChar

StartChar: v
Encoding: 118 118 87
Width: 1118
VWidth: 2048
Flags: W
LayerCount: 2
Fore
SplineSet
1030 932 m 1,0,-1
 489 0 l 1,1,-1
 246 0 l 1,2,-1
 98 932 l 1,3,-1
 319 932 l 1,4,-1
 416 227 l 1,5,-1
 809 932 l 1,6,-1
 1030 932 l 1,0,-1
EndSplineSet
Validated: 1
EndChar

StartChar: w
Encoding: 119 119 88
Width: 1118
VWidth: 2048
Flags: W
LayerCount: 2
Fore
SplineSet
1059 932 m 1,0,-1
 723 0 l 1,1,-1
 467 0 l 1,2,-1
 487 561 l 1,3,-1
 268 0 l 1,4,-1
 12 0 l 1,5,-1
 70 932 l 1,6,-1
 272 932 l 1,7,-1
 223 309 l 1,8,-1
 455 932 l 1,9,-1
 674 932 l 1,10,-1
 643 309 l 1,11,-1
 856 932 l 1,12,-1
 1059 932 l 1,0,-1
EndSplineSet
Validated: 1
EndChar

StartChar: x
Encoding: 120 120 89
Width: 1118
VWidth: 2048
Flags: W
LayerCount: 2
Fore
SplineSet
856 0 m 1,0,-1
 414 0 l 1,1,-1
 453 186 l 1,2,-1
 535 186 l 1,3,-1
 449 381 l 1,4,-1
 283 186 l 1,5,-1
 358 186 l 1,6,-1
 319 0 l 1,7,-1
 -119 0 l 1,8,-1
 -80 186 l 1,9,-1
 55 186 l 1,10,-1
 326 473 l 1,11,-1
 184 745 l 1,12,-1
 59 745 l 1,13,-1
 98 932 l 1,14,-1
 518 932 l 1,15,-1
 479 745 l 1,16,-1
 414 745 l 1,17,-1
 487 565 l 1,18,-1
 641 745 l 1,19,-1
 567 745 l 1,20,-1
 606 932 l 1,21,-1
 1030 932 l 1,22,-1
 991 745 l 1,23,-1
 870 745 l 1,24,-1
 614 473 l 1,25,-1
 762 186 l 1,26,-1
 895 186 l 1,27,-1
 856 0 l 1,0,-1
EndSplineSet
Validated: 1
EndChar

StartChar: y
Encoding: 121 121 90
Width: 1118
VWidth: 2048
Flags: W
LayerCount: 2
Fore
SplineSet
1022 932 m 1,0,-1
 385 -182 l 2,1,2
 313 -303 313 -303 218 -348 c 128,-1,3
 123 -393 123 -393 4 -393 c 0,4,5
 -37 -393 -37 -393 -82 -385 c 128,-1,6
 -127 -377 -127 -377 -174 -358 c 1,7,-1
 -92 -168 l 1,8,9
 -53 -184 -53 -184 -18.5 -190.5 c 128,-1,10
 16 -197 16 -197 45 -197 c 0,11,12
 137 -197 137 -197 190 -115 c 2,13,-1
 246 -25 l 1,14,-1
 92 932 l 1,15,-1
 307 932 l 1,16,-1
 414 227 l 1,17,-1
 801 932 l 1,18,-1
 1022 932 l 1,0,-1
EndSplineSet
Validated: 1
EndChar

StartChar: z
Encoding: 122 122 91
Width: 1118
VWidth: 2048
Flags: W
LayerCount: 2
Fore
SplineSet
784 0 m 1,0,-1
 -49 0 l 1,1,-1
 -10 184 l 1,2,-1
 639 745 l 1,3,-1
 291 745 l 1,4,-1
 250 557 l 1,5,-1
 68 557 l 1,6,-1
 147 932 l 1,7,-1
 963 932 l 1,8,-1
 924 745 l 1,9,-1
 272 186 l 1,10,-1
 641 186 l 1,11,-1
 680 371 l 1,12,-1
 862 371 l 1,13,-1
 784 0 l 1,0,-1
EndSplineSet
Validated: 1
EndChar

StartChar: braceleft
Encoding: 123 123 92
Width: 1118
VWidth: 2048
Flags: W
LayerCount: 2
Fore
SplineSet
627 -373 m 1,0,-1
 473 -373 l 2,1,2
 412 -373 412 -373 364.5 -352.5 c 128,-1,3
 317 -332 317 -332 288.5 -294 c 128,-1,4
 260 -256 260 -256 251 -205 c 128,-1,5
 242 -154 242 -154 254 -92 c 2,6,-1
 344 334 l 2,7,8
 362 416 362 416 320.5 440.5 c 128,-1,9
 279 465 279 465 186 465 c 1,10,-1
 225 651 l 1,11,12
 317 651 317 651 369.5 674.5 c 128,-1,13
 422 698 422 698 440 782 c 2,14,-1
 530 1208 l 2,15,16
 543 1270 543 1270 574.5 1321 c 128,-1,17
 606 1372 606 1372 651 1410 c 128,-1,18
 696 1448 696 1448 751.5 1469.5 c 128,-1,19
 807 1491 807 1491 868 1491 c 2,20,-1
 1022 1491 l 1,21,-1
 983 1305 l 1,22,-1
 829 1305 l 2,23,24
 776 1305 776 1305 751.5 1283.5 c 128,-1,25
 727 1262 727 1262 717 1208 c 2,26,-1
 627 782 l 2,27,28
 606 688 606 688 536.5 629.5 c 128,-1,29
 467 571 467 571 389 557 c 1,30,31
 426 551 426 551 455.5 533.5 c 128,-1,32
 485 516 485 516 504.5 486.5 c 128,-1,33
 524 457 524 457 532.5 418 c 128,-1,34
 541 379 541 379 530 334 c 2,35,-1
 440 -92 l 2,36,37
 428 -145 428 -145 443.5 -166.5 c 128,-1,38
 459 -188 459 -188 512 -188 c 2,39,-1
 666 -188 l 1,40,-1
 627 -373 l 1,0,-1
EndSplineSet
Validated: 33
EndChar

StartChar: bar
Encoding: 124 124 93
Width: 1118
VWidth: 2048
Flags: W
LayerCount: 2
Fore
SplineSet
420 -186 m 1,0,-1
 233 -186 l 1,1,-1
 590 1491 l 1,2,-1
 776 1491 l 1,3,-1
 420 -186 l 1,0,-1
EndSplineSet
Validated: 1
EndChar

StartChar: braceright
Encoding: 125 125 94
Width: 1118
VWidth: 2048
Flags: W
LayerCount: 2
Fore
SplineSet
-12 -188 m 1,0,-1
 141 -188 l 2,1,2
 195 -188 195 -188 218.5 -166.5 c 128,-1,3
 242 -145 242 -145 254 -92 c 2,4,-1
 346 338 l 2,5,6
 354 383 354 383 378.5 422 c 128,-1,7
 403 461 403 461 435 490.5 c 128,-1,8
 467 520 467 520 505 537.5 c 128,-1,9
 543 555 543 555 582 561 c 1,10,11
 510 575 510 575 465 633.5 c 128,-1,12
 420 692 420 692 440 786 c 2,13,-1
 530 1212 l 2,14,15
 543 1266 543 1266 527.5 1285.5 c 128,-1,16
 512 1305 512 1305 459 1305 c 2,17,-1
 305 1305 l 1,18,-1
 344 1491 l 1,19,-1
 498 1491 l 2,20,21
 559 1491 559 1491 606 1470.5 c 128,-1,22
 653 1450 653 1450 682 1413 c 128,-1,23
 711 1376 711 1376 721 1325 c 128,-1,24
 731 1274 731 1274 717 1212 c 2,25,-1
 627 786 l 2,26,27
 608 702 608 702 651 678.5 c 128,-1,28
 694 655 694 655 786 655 c 1,29,-1
 745 469 l 1,30,31
 653 469 653 469 601 444.5 c 128,-1,32
 549 420 549 420 532 338 c 2,33,-1
 440 -92 l 2,34,35
 428 -154 428 -154 396.5 -205 c 128,-1,36
 365 -256 365 -256 319.5 -294 c 128,-1,37
 274 -332 274 -332 219 -352.5 c 128,-1,38
 164 -373 164 -373 102 -373 c 2,39,-1
 -51 -373 l 1,40,-1
 -12 -188 l 1,0,-1
EndSplineSet
Validated: 33
EndChar

StartChar: asciitilde
Encoding: 126 126 95
Width: 1118
VWidth: 2048
Flags: W
LayerCount: 2
Fore
SplineSet
614 435 m 0,0,1
 668 435 668 435 704.5 492 c 128,-1,2
 741 549 741 549 786 682 c 1,3,-1
 979 668 l 1,4,5
 954 578 954 578 916.5 501 c 128,-1,6
 879 424 879 424 827.5 368 c 128,-1,7
 776 312 776 312 712.5 279 c 128,-1,8
 649 246 649 246 573 246 c 0,9,10
 491 246 491 246 454.5 285 c 128,-1,11
 418 324 418 324 398.5 372 c 128,-1,12
 379 420 379 420 365.5 459 c 128,-1,13
 352 498 352 498 317 498 c 0,14,15
 264 498 264 498 228 441.5 c 128,-1,16
 192 385 192 385 147 252 c 1,17,-1
 -47 267 l 1,18,19
 -21 355 -21 355 17 432.5 c 128,-1,20
 55 510 55 510 105.5 566.5 c 128,-1,21
 156 623 156 623 219.5 655.5 c 128,-1,22
 283 688 283 688 358 688 c 0,23,24
 440 688 440 688 478 648.5 c 128,-1,25
 516 609 516 609 534.5 561.5 c 128,-1,26
 553 514 553 514 567.5 474.5 c 128,-1,27
 582 435 582 435 614 435 c 0,0,1
EndSplineSet
Validated: 1
EndChar

StartChar: Aring
Encoding: 197 197 97
Width: 1118
VWidth: 2048
Flags: W
LayerCount: 2
Fore
SplineSet
451 1450 m 0,0,1
 461 1497 461 1497 486.5 1538 c 128,-1,2
 512 1579 512 1579 550 1609.5 c 128,-1,3
 588 1640 588 1640 632 1657.5 c 128,-1,4
 676 1675 676 1675 723 1675 c 256,5,6
 770 1675 770 1675 808 1657.5 c 128,-1,7
 846 1640 846 1640 869.5 1609.5 c 128,-1,8
 893 1579 893 1579 902 1538 c 128,-1,9
 911 1497 911 1497 901 1450 c 0,10,11
 889 1393 889 1393 853 1344.5 c 128,-1,12
 817 1296 817 1296 768 1266 c 1,13,-1
 895 0 l 1,14,-1
 678 0 l 1,15,-1
 649 311 l 1,16,-1
 217 311 l 1,17,-1
 59 0 l 1,18,-1
 -158 0 l 1,19,-1
 506 1266 l 1,20,21
 469 1296 469 1296 453.5 1344.5 c 128,-1,22
 438 1393 438 1393 451 1450 c 0,0,1
311 494 m 1,23,-1
 633 494 l 1,24,-1
 588 1032 l 1,25,-1
 311 494 l 1,23,-1
584 1450 m 0,26,27
 575 1411 575 1411 595.5 1384.5 c 128,-1,28
 616 1358 616 1358 655 1358 c 256,29,30
 694 1358 694 1358 727 1384.5 c 128,-1,31
 760 1411 760 1411 768 1450 c 256,32,33
 776 1489 776 1489 755.5 1515.5 c 128,-1,34
 735 1542 735 1542 696 1542 c 256,35,36
 657 1542 657 1542 624.5 1515.5 c 128,-1,37
 592 1489 592 1489 584 1450 c 0,26,27
EndSplineSet
Validated: 33
EndChar

StartChar: Ccedilla
Encoding: 199 199 98
Width: 1118
VWidth: 2048
Flags: W
LayerCount: 2
Fore
SplineSet
938 399 m 1,0,1
 860 236 860 236 749.5 126 c 128,-1,2
 639 16 639 16 487 -12 c 1,3,-1
 481 -41 l 2,4,5
 467 -111 467 -111 430 -171 c 128,-1,6
 393 -231 393 -231 339 -275 c 128,-1,7
 285 -319 285 -319 215 -345 c 128,-1,8
 145 -371 145 -371 63 -371 c 1,9,-1
 102 -193 l 1,10,11
 190 -193 190 -193 240.5 -153 c 128,-1,12
 291 -113 291 -113 305 -41 c 1,13,-1
 311 -18 l 1,14,15
 195 -4 195 -4 126 56.5 c 128,-1,16
 57 117 57 117 24.5 209 c 128,-1,17
 -8 301 -8 301 -7 415.5 c 128,-1,18
 -6 530 -6 530 18 653 c 0,19,20
 47 784 47 784 99.5 906 c 128,-1,21
 152 1028 152 1028 231.5 1121 c 128,-1,22
 311 1214 311 1214 414.5 1270.5 c 128,-1,23
 518 1327 518 1327 651 1327 c 0,24,25
 694 1327 694 1327 736 1316 c 128,-1,26
 778 1305 778 1305 811 1282.5 c 128,-1,27
 844 1260 844 1260 865.5 1227 c 128,-1,28
 887 1194 887 1194 891 1151 c 1,29,-1
 924 1305 l 1,30,-1
 1110 1305 l 1,31,-1
 1006 811 l 1,32,-1
 819 811 l 1,33,34
 831 872 831 872 828 931.5 c 128,-1,35
 825 991 825 991 802.5 1037 c 128,-1,36
 780 1083 780 1083 736 1112 c 128,-1,37
 692 1141 692 1141 625 1141 c 0,38,39
 537 1141 537 1141 471.5 1098 c 128,-1,40
 406 1055 406 1055 357.5 985 c 128,-1,41
 309 915 309 915 276.5 828 c 128,-1,42
 244 741 244 741 225 653 c 0,43,44
 207 565 207 565 202 477 c 128,-1,45
 197 389 197 389 214 319.5 c 128,-1,46
 231 250 231 250 280.5 207 c 128,-1,47
 330 164 330 164 418 164 c 0,48,49
 545 164 545 164 630 245 c 128,-1,50
 715 326 715 326 786 463 c 1,51,-1
 938 399 l 1,0,1
EndSplineSet
Validated: 33
EndChar

StartChar: ccedilla
Encoding: 231 231 109
Width: 1118
VWidth: 2048
Flags: W
LayerCount: 2
Fore
SplineSet
825 133 m 1,0,1
 739 61 739 61 657 27.5 c 128,-1,2
 575 -6 575 -6 487 -16 c 1,3,-1
 481 -41 l 2,4,5
 467 -111 467 -111 430 -171 c 128,-1,6
 393 -231 393 -231 339 -275 c 128,-1,7
 285 -319 285 -319 215 -345 c 128,-1,8
 145 -371 145 -371 63 -371 c 1,9,-1
 102 -193 l 1,10,11
 190 -193 190 -193 240.5 -153 c 128,-1,12
 291 -113 291 -113 305 -41 c 1,13,-1
 311 -18 l 1,14,15
 113 4 113 4 23.5 132 c 128,-1,16
 -66 260 -66 260 -20 465 c 0,17,18
 2 571 2 571 57.5 661.5 c 128,-1,19
 113 752 113 752 186.5 816.5 c 128,-1,20
 260 881 260 881 350 917.5 c 128,-1,21
 440 954 440 954 532 954 c 0,22,23
 629 954 629 954 690.5 914 c 128,-1,24
 752 874 752 874 768 797 c 1,25,-1
 797 932 l 1,26,-1
 981 932 l 1,27,-1
 889 498 l 1,28,-1
 705 498 l 1,29,30
 731 621 731 621 679 694.5 c 128,-1,31
 627 768 627 768 518 768 c 0,32,33
 475 768 475 768 425 750.5 c 128,-1,34
 375 733 375 733 327 696 c 128,-1,35
 279 659 279 659 241 602 c 128,-1,36
 203 545 203 545 186 465 c 0,37,38
 170 387 170 387 182.5 330.5 c 128,-1,39
 195 274 195 274 227.5 237.5 c 128,-1,40
 260 201 260 201 312.5 182.5 c 128,-1,41
 365 164 365 164 424 164 c 0,42,43
 524 164 524 164 605 195.5 c 128,-1,44
 686 227 686 227 750 279 c 1,45,-1
 825 133 l 1,0,1
EndSplineSet
Validated: 33
EndChar

StartChar: dagger
Encoding: 8224 8224 128
Width: 1118
VWidth: 2048
Flags: W
LayerCount: 2
Fore
SplineSet
872 907 m 1,0,-1
 637 922 l 1,1,-1
 532 373 l 1,2,-1
 360 373 l 1,3,-1
 492 922 l 1,4,-1
 252 907 l 1,5,-1
 289 1081 l 1,6,-1
 522 1067 l 1,7,-1
 559 1305 l 1,8,-1
 731 1305 l 1,9,-1
 668 1067 l 1,10,-1
 909 1081 l 1,11,-1
 872 907 l 1,0,-1
EndSplineSet
Validated: 1
EndChar

StartChar: degree
Encoding: 176 176 129
Width: 1118
VWidth: 2048
Flags: W
LayerCount: 2
Fore
SplineSet
139 1118 m 0,0,1
 154 1194 154 1194 199 1262.5 c 128,-1,2
 244 1331 244 1331 304.5 1381.5 c 128,-1,3
 365 1432 365 1432 438.5 1461.5 c 128,-1,4
 512 1491 512 1491 590 1491 c 0,5,6
 666 1491 666 1491 728.5 1461.5 c 128,-1,7
 791 1432 791 1432 830.5 1381.5 c 128,-1,8
 870 1331 870 1331 884.5 1262.5 c 128,-1,9
 899 1194 899 1194 885 1118 c 1,10,11
 866 1040 866 1040 822 972.5 c 128,-1,12
 778 905 778 905 717.5 855 c 128,-1,13
 657 805 657 805 582.5 775 c 128,-1,14
 508 745 508 745 432 745 c 0,15,16
 354 745 354 745 292.5 775 c 128,-1,17
 231 805 231 805 191.5 855 c 128,-1,18
 152 905 152 905 136.5 972.5 c 128,-1,19
 121 1040 121 1040 139 1118 c 0,0,1
279 1116 m 0,20,21
 268 1069 268 1069 278.5 1027 c 128,-1,22
 289 985 289 985 312.5 954.5 c 128,-1,23
 336 924 336 924 375 905.5 c 128,-1,24
 414 887 414 887 461 887 c 256,25,26
 508 887 508 887 553 905.5 c 128,-1,27
 598 924 598 924 636 954.5 c 128,-1,28
 674 985 674 985 700.5 1027 c 128,-1,29
 727 1069 727 1069 737 1116 c 0,30,31
 748 1163 748 1163 738.5 1205 c 128,-1,32
 729 1247 729 1247 704.5 1278 c 128,-1,33
 680 1309 680 1309 642 1327.5 c 128,-1,34
 604 1346 604 1346 557 1346 c 256,35,36
 510 1346 510 1346 464 1327.5 c 128,-1,37
 418 1309 418 1309 381 1278 c 128,-1,38
 344 1247 344 1247 316.5 1205 c 128,-1,39
 289 1163 289 1163 279 1116 c 0,20,21
EndSplineSet
Validated: 33
EndChar

StartChar: cent
Encoding: 162 162 130
Width: 1118
VWidth: 2048
Flags: W
LayerCount: 2
Fore
SplineSet
18 653 m 0,0,1
 59 846 59 846 190.5 972 c 128,-1,2
 322 1098 322 1098 514 1130 c 1,3,-1
 551 1305 l 1,4,-1
 737 1305 l 1,5,-1
 700 1137 l 1,6,7
 795 1128 795 1128 870.5 1094.5 c 128,-1,8
 946 1061 946 1061 1008 985 c 1,9,-1
 870 840 l 1,10,11
 836 881 836 881 784.5 909.5 c 128,-1,12
 733 938 733 938 662 948 c 1,13,-1
 535 356 l 1,14,15
 612 367 612 367 675.5 396.5 c 128,-1,16
 739 426 739 426 791 467 c 1,17,-1
 866 322 l 1,18,19
 772 244 772 244 682 210 c 128,-1,20
 592 176 592 176 496 168 c 1,21,-1
 461 0 l 1,22,-1
 274 0 l 1,23,-1
 311 176 l 1,24,25
 133 209 133 209 55 335 c 128,-1,26
 -23 461 -23 461 18 653 c 0,0,1
225 653 m 0,27,28
 201 537 201 537 238.5 468 c 128,-1,29
 276 399 276 399 352 371 c 1,30,-1
 473 936 l 1,31,32
 385 907 385 907 317.5 838.5 c 128,-1,33
 250 770 250 770 225 653 c 0,27,28
EndSplineSet
Validated: 33
EndChar

StartChar: sterling
Encoding: 163 163 131
Width: 1118
VWidth: 2048
Flags: W
LayerCount: 2
Fore
SplineSet
59 745 m 1,0,-1
 246 745 l 1,1,-1
 295 975 l 2,2,3
 311 1051 311 1051 351 1116.5 c 128,-1,4
 391 1182 391 1182 447.5 1228 c 128,-1,5
 504 1274 504 1274 570.5 1300.5 c 128,-1,6
 637 1327 637 1327 705 1327 c 0,7,8
 827 1327 827 1327 899 1261.5 c 128,-1,9
 971 1196 971 1196 967 1075 c 1,10,-1
 770 1030 l 1,11,12
 764 1141 764 1141 666 1141 c 0,13,14
 608 1141 608 1141 564 1103 c 128,-1,15
 520 1065 520 1065 502 975 c 2,16,-1
 453 745 l 1,17,-1
 639 745 l 1,18,-1
 600 559 l 1,19,-1
 414 559 l 1,20,-1
 373 373 l 2,21,22
 358 307 358 307 322.5 258 c 128,-1,23
 287 209 287 209 242 186 c 1,24,-1
 414 186 l 2,25,26
 481 186 481 186 531.5 194.5 c 128,-1,27
 582 203 582 203 623 223.5 c 128,-1,28
 664 244 664 244 698.5 279.5 c 128,-1,29
 733 315 733 315 774 371 c 1,30,-1
 926 281 l 1,31,32
 829 139 829 139 685 69.5 c 128,-1,33
 541 0 541 0 375 0 c 2,34,-1
 -98 0 l 1,35,-1
 -59 186 l 1,36,-1
 2 186 l 2,37,38
 37 186 37 186 62.5 198.5 c 128,-1,39
 88 211 88 211 107.5 230.5 c 128,-1,40
 127 250 127 250 139.5 274.5 c 128,-1,41
 152 299 152 299 156 322 c 2,42,-1
 207 559 l 1,43,-1
 20 559 l 1,44,-1
 59 745 l 1,0,-1
EndSplineSet
Validated: 33
EndChar

StartChar: section
Encoding: 167 167 132
Width: 1118
VWidth: 2048
Flags: W
LayerCount: 2
Fore
SplineSet
141 813 m 0,0,1
 158 887 158 887 201 954.5 c 128,-1,2
 244 1022 244 1022 297 1065 c 1,3,4
 258 1106 258 1106 242.5 1162.5 c 128,-1,5
 227 1219 227 1219 246 1305 c 0,6,7
 266 1399 266 1399 312 1468.5 c 128,-1,8
 358 1538 358 1538 422.5 1584 c 128,-1,9
 487 1630 487 1630 564 1652.5 c 128,-1,10
 641 1675 641 1675 723 1675 c 0,11,12
 803 1675 803 1675 873.5 1653.5 c 128,-1,13
 944 1632 944 1632 996.5 1588 c 128,-1,14
 1049 1544 1049 1544 1075.5 1477.5 c 128,-1,15
 1102 1411 1102 1411 1094 1319 c 1,16,-1
 895 1286 l 1,17,18
 903 1401 903 1401 849 1445 c 128,-1,19
 795 1489 795 1489 684 1489 c 0,20,21
 610 1489 610 1489 542.5 1449 c 128,-1,22
 475 1409 475 1409 459 1331 c 0,23,24
 444 1264 444 1264 483 1222 c 128,-1,25
 522 1180 522 1180 586.5 1148 c 128,-1,26
 651 1116 651 1116 729 1085.5 c 128,-1,27
 807 1055 807 1055 869.5 1011 c 128,-1,28
 932 967 932 967 965.5 900.5 c 128,-1,29
 999 834 999 834 977 729 c 0,30,31
 956 633 956 633 914 568.5 c 128,-1,32
 872 504 872 504 813 446 c 1,33,34
 852 406 852 406 867.5 347.5 c 128,-1,35
 883 289 883 289 866 205 c 0,36,37
 846 113 846 113 798 41 c 128,-1,38
 750 -31 750 -31 683 -82 c 128,-1,39
 616 -133 616 -133 535.5 -159.5 c 128,-1,40
 455 -186 455 -186 373 -186 c 0,41,42
 287 -186 287 -186 213 -164.5 c 128,-1,43
 139 -143 139 -143 83 -99 c 128,-1,44
 27 -55 27 -55 -7 13.5 c 128,-1,45
 -41 82 -41 82 -41 178 c 1,46,-1
 156 225 l 1,47,48
 162 121 162 121 221.5 60.5 c 128,-1,49
 281 0 281 0 414 0 c 0,50,51
 496 0 496 0 565.5 48 c 128,-1,52
 635 96 635 96 655 184 c 0,53,54
 672 262 672 262 633 307 c 128,-1,55
 594 352 594 352 528.5 383 c 128,-1,56
 463 414 463 414 385 441.5 c 128,-1,57
 307 469 307 469 244.5 513 c 128,-1,58
 182 557 182 557 149.5 626.5 c 128,-1,59
 117 696 117 696 141 813 c 0,0,1
352 831 m 0,60,61
 338 770 338 770 364.5 729 c 128,-1,62
 391 688 391 688 439 658.5 c 128,-1,63
 487 629 487 629 549.5 604.5 c 128,-1,64
 612 580 612 580 672 549 c 1,65,66
 707 575 707 575 729.5 608 c 128,-1,67
 752 641 752 641 764 694 c 0,68,69
 778 762 778 762 752.5 804 c 128,-1,70
 727 846 727 846 679 874.5 c 128,-1,71
 631 903 631 903 569.5 924.5 c 128,-1,72
 508 946 508 946 444 971 c 1,73,74
 369 913 369 913 352 831 c 0,60,61
EndSplineSet
Validated: 33
EndChar

StartChar: bullet
Encoding: 8226 8226 133
Width: 1118
VWidth: 2048
Flags: W
LayerCount: 2
Fore
SplineSet
207 559 m 1,0,1
 221 635 221 635 266 703.5 c 128,-1,2
 311 772 311 772 371.5 822 c 128,-1,3
 432 872 432 872 506 902 c 128,-1,4
 580 932 580 932 657 932 c 0,5,6
 733 932 733 932 795.5 902 c 128,-1,7
 858 872 858 872 898 822 c 128,-1,8
 938 772 938 772 952.5 703.5 c 128,-1,9
 967 635 967 635 952 559 c 0,10,11
 934 481 934 481 890 413.5 c 128,-1,12
 846 346 846 346 785.5 296 c 128,-1,13
 725 246 725 246 650 216 c 128,-1,14
 575 186 575 186 500 186 c 0,15,16
 422 186 422 186 360.5 216 c 128,-1,17
 299 246 299 246 259 296 c 128,-1,18
 219 346 219 346 203.5 413.5 c 128,-1,19
 188 481 188 481 207 559 c 1,0,1
EndSplineSet
Validated: 33
EndChar

StartChar: paragraph
Encoding: 182 182 134
Width: 1118
VWidth: 2048
Flags: W
LayerCount: 2
Fore
SplineSet
96 915 m 0,0,1
 135 1108 135 1108 275.5 1206.5 c 128,-1,2
 416 1305 416 1305 631 1305 c 2,3,-1
 1110 1305 l 1,4,-1
 834 0 l 1,5,-1
 627 0 l 1,6,-1
 737 526 l 1,7,-1
 582 526 l 1,8,-1
 471 0 l 1,9,-1
 264 0 l 1,10,-1
 377 532 l 1,11,12
 217 555 217 555 138 650 c 128,-1,13
 59 745 59 745 96 915 c 0,0,1
709 1118 m 1,14,-1
 621 713 l 1,15,-1
 776 713 l 1,16,-1
 864 1118 l 1,17,-1
 709 1118 l 1,14,-1
303 915 m 0,18,19
 287 842 287 842 315.5 783.5 c 128,-1,20
 344 725 344 725 416 717 c 1,21,-1
 500 1114 l 1,22,23
 463 1110 463 1110 430 1092.5 c 128,-1,24
 397 1075 397 1075 370.5 1047.5 c 128,-1,25
 344 1020 344 1020 326.5 986 c 128,-1,26
 309 952 309 952 303 915 c 0,18,19
EndSplineSet
Validated: 33
EndChar

StartChar: germandbls
Encoding: 223 223 135
Width: 1118
VWidth: 2048
Flags: W
LayerCount: 2
Fore
SplineSet
889 268 m 0,0,1
 877 207 877 207 839 153.5 c 128,-1,2
 801 100 801 100 745.5 61.5 c 128,-1,3
 690 23 690 23 620.5 0 c 128,-1,4
 551 -23 551 -23 475 -23 c 0,5,6
 377 -23 377 -23 311.5 5 c 128,-1,7
 246 33 246 33 190 86 c 1,8,-1
 342 248 l 1,9,10
 385 199 385 199 426 181.5 c 128,-1,11
 467 164 467 164 516 164 c 0,12,13
 592 164 592 164 633 195.5 c 128,-1,14
 674 227 674 227 684 270 c 0,15,16
 692 311 692 311 668.5 341 c 128,-1,17
 645 371 645 371 607 397.5 c 128,-1,18
 569 424 569 424 523 450.5 c 128,-1,19
 477 477 477 477 441.5 511 c 128,-1,20
 406 545 406 545 385.5 590 c 128,-1,21
 365 635 365 635 379 698 c 0,22,23
 395 772 395 772 437 816 c 128,-1,24
 479 860 479 860 526 893 c 128,-1,25
 573 926 573 926 612 958.5 c 128,-1,26
 651 991 651 991 662 1040 c 0,27,28
 670 1077 670 1077 653.5 1109 c 128,-1,29
 637 1141 637 1141 569 1141 c 0,30,31
 469 1141 469 1141 418 1065 c 128,-1,32
 367 989 367 989 336 846 c 2,33,-1
 158 0 l 1,34,-1
 -49 0 l 1,35,-1
 129 844 l 2,36,37
 145 920 145 920 176 1005 c 128,-1,38
 207 1090 207 1090 261 1161.5 c 128,-1,39
 315 1233 315 1233 400 1280 c 128,-1,40
 485 1327 485 1327 608 1327 c 0,41,42
 684 1327 684 1327 739.5 1304.5 c 128,-1,43
 795 1282 795 1282 827.5 1244 c 128,-1,44
 860 1206 860 1206 870.5 1154 c 128,-1,45
 881 1102 881 1102 866 1040 c 0,46,47
 850 958 850 958 807 909 c 128,-1,48
 764 860 764 860 717 827.5 c 128,-1,49
 670 795 670 795 632 769 c 128,-1,50
 594 743 594 743 586 709 c 0,51,52
 580 682 580 682 605.5 660.5 c 128,-1,53
 631 639 631 639 670 615.5 c 128,-1,54
 709 592 709 592 754 563.5 c 128,-1,55
 799 535 799 535 834.5 495 c 128,-1,56
 870 455 870 455 887.5 399.5 c 128,-1,57
 905 344 905 344 889 268 c 0,0,1
EndSplineSet
Validated: 33
EndChar

StartChar: registered
Encoding: 174 174 136
Width: 1118
VWidth: 2048
Flags: W
LayerCount: 2
Fore
SplineSet
1217 932 m 0,0,1
 1194 821 1194 821 1130.5 719.5 c 128,-1,2
 1067 618 1067 618 977 541.5 c 128,-1,3
 887 465 887 465 774.5 419 c 128,-1,4
 662 373 662 373 541 373 c 0,5,6
 432 373 432 373 339 413 c 128,-1,7
 246 453 246 453 184.5 526.5 c 128,-1,8
 123 600 123 600 97.5 702.5 c 128,-1,9
 72 805 72 805 98 932 c 0,10,11
 123 1047 123 1047 188.5 1149 c 128,-1,12
 254 1251 254 1251 346 1327 c 128,-1,13
 438 1403 438 1403 550 1447 c 128,-1,14
 662 1491 662 1491 778 1491 c 0,15,16
 891 1491 891 1491 983 1449 c 128,-1,17
 1075 1407 1075 1407 1135.5 1331 c 128,-1,18
 1196 1255 1196 1255 1219.5 1153 c 128,-1,19
 1243 1051 1243 1051 1217 932 c 0,0,1
1151 932 m 0,20,21
 1174 1032 1174 1032 1154.5 1121 c 128,-1,22
 1135 1210 1135 1210 1082.5 1278 c 128,-1,23
 1030 1346 1030 1346 948 1385.5 c 128,-1,24
 866 1425 866 1425 764 1425 c 256,25,26
 662 1425 662 1425 564.5 1387.5 c 128,-1,27
 467 1350 467 1350 385 1283.5 c 128,-1,28
 303 1217 303 1217 244.5 1126.5 c 128,-1,29
 186 1036 186 1036 164 932 c 0,30,31
 141 827 141 827 161.5 737 c 128,-1,32
 182 647 182 647 234.5 580.5 c 128,-1,33
 287 514 287 514 369 476 c 128,-1,34
 451 438 451 438 555 438 c 0,35,36
 655 438 655 438 753.5 476 c 128,-1,37
 852 514 852 514 933 580.5 c 128,-1,38
 1014 647 1014 647 1071 737 c 128,-1,39
 1128 827 1128 827 1151 932 c 0,20,21
893 596 m 1,40,-1
 686 596 l 1,41,-1
 612 823 l 1,42,-1
 578 823 l 1,43,-1
 528 596 l 1,44,-1
 354 596 l 1,45,-1
 498 1272 l 1,46,-1
 766 1272 l 2,47,48
 817 1272 817 1272 862 1258.5 c 128,-1,49
 907 1245 907 1245 937 1217.5 c 128,-1,50
 967 1190 967 1190 978 1147 c 128,-1,51
 989 1104 989 1104 977 1047 c 0,52,53
 961 967 961 967 920 916.5 c 128,-1,54
 879 866 879 866 791 829 c 1,55,-1
 893 596 l 1,40,-1
805 1047 m 0,56,57
 815 1092 815 1092 796.5 1112.5 c 128,-1,58
 778 1133 778 1133 737 1133 c 2,59,-1
 643 1133 l 1,60,-1
 608 965 l 1,61,-1
 702 965 l 2,62,63
 743 965 743 965 771 989.5 c 128,-1,64
 799 1014 799 1014 805 1047 c 0,56,57
EndSplineSet
Validated: 33
EndChar

StartChar: copyright
Encoding: 169 169 137
Width: 1118
VWidth: 2048
Flags: W
LayerCount: 2
Fore
SplineSet
879 532 m 1,0,1
 750 385 750 385 545 385 c 0,2,3
 465 385 465 385 403.5 411.5 c 128,-1,4
 342 438 342 438 305 486.5 c 128,-1,5
 268 535 268 535 256 601.5 c 128,-1,6
 244 668 244 668 260 748 c 0,7,8
 276 823 276 823 315 888.5 c 128,-1,9
 354 954 354 954 411.5 1003.5 c 128,-1,10
 469 1053 469 1053 541.5 1081.5 c 128,-1,11
 614 1110 614 1110 700 1110 c 0,12,13
 905 1110 905 1110 969 963 c 1,14,-1
 807 864 l 1,15,16
 780 946 780 946 666 946 c 0,17,18
 582 946 582 946 522.5 890 c 128,-1,19
 463 834 463 834 444 748 c 0,20,21
 426 662 426 662 460 605.5 c 128,-1,22
 494 549 494 549 580 549 c 0,23,24
 694 549 694 549 758 631 c 1,25,-1
 879 532 l 1,0,1
1178 745 m 0,26,27
 1153 635 1153 635 1089.5 533.5 c 128,-1,28
 1026 432 1026 432 936 355.5 c 128,-1,29
 846 279 846 279 734.5 232.5 c 128,-1,30
 623 186 623 186 502 186 c 0,31,32
 393 186 393 186 300 226 c 128,-1,33
 207 266 207 266 144.5 340 c 128,-1,34
 82 414 82 414 57.5 516 c 128,-1,35
 33 618 33 618 59 745 c 0,36,37
 84 860 84 860 149.5 962.5 c 128,-1,38
 215 1065 215 1065 307 1141 c 128,-1,39
 399 1217 399 1217 511 1261 c 128,-1,40
 623 1305 623 1305 739 1305 c 0,41,42
 852 1305 852 1305 943 1263 c 128,-1,43
 1034 1221 1034 1221 1094.5 1145 c 128,-1,44
 1155 1069 1155 1069 1178.5 966.5 c 128,-1,45
 1202 864 1202 864 1178 745 c 0,26,27
1112 745 m 0,46,47
 1133 846 1133 846 1114.5 935 c 128,-1,48
 1096 1024 1096 1024 1043.5 1091.5 c 128,-1,49
 991 1159 991 1159 909 1199 c 128,-1,50
 827 1239 827 1239 725 1239 c 256,51,52
 623 1239 623 1239 524.5 1201 c 128,-1,53
 426 1163 426 1163 344 1096.5 c 128,-1,54
 262 1030 262 1030 204.5 940 c 128,-1,55
 147 850 147 850 125 745 c 0,56,57
 102 641 102 641 121.5 551 c 128,-1,58
 141 461 141 461 194.5 394.5 c 128,-1,59
 248 328 248 328 330 290 c 128,-1,60
 412 252 412 252 516 252 c 0,61,62
 616 252 616 252 714.5 290 c 128,-1,63
 813 328 813 328 893 394.5 c 128,-1,64
 973 461 973 461 1031.5 551 c 128,-1,65
 1090 641 1090 641 1112 745 c 0,46,47
EndSplineSet
Validated: 33
EndChar

StartChar: trademark
Encoding: 8482 8482 138
Width: 1118
VWidth: 2048
Flags: W
LayerCount: 2
Fore
SplineSet
1219 932 m 1,0,-1
 1108 932 l 1,1,-1
 1192 1325 l 1,2,-1
 989 991 l 1,3,-1
 911 991 l 1,4,-1
 854 1325 l 1,5,-1
 770 932 l 1,6,-1
 659 932 l 1,7,-1
 778 1491 l 1,8,-1
 936 1491 l 1,9,-1
 987 1163 l 1,10,-1
 1178 1491 l 1,11,-1
 1337 1491 l 1,12,-1
 1219 932 l 1,0,-1
659 1378 m 1,13,-1
 483 1378 l 1,14,-1
 387 932 l 1,15,-1
 274 932 l 1,16,-1
 371 1378 l 1,17,-1
 195 1378 l 1,18,-1
 217 1491 l 1,19,-1
 682 1491 l 1,20,-1
 659 1378 l 1,13,-1
EndSplineSet
Validated: 1
EndChar

StartChar: acute
Encoding: 180 180 139
Width: 1118
VWidth: 2048
Flags: W
LayerCount: 2
Fore
SplineSet
872 1225 m 1,0,-1
 387 981 l 1,1,-1
 330 1118 l 1,2,-1
 793 1405 l 1,3,-1
 872 1225 l 1,0,-1
EndSplineSet
Validated: 1
EndChar

StartChar: dieresis
Encoding: 168 168 140
Width: 1118
VWidth: 2048
Flags: W
LayerCount: 2
Fore
SplineSet
903 1053 m 1,0,-1
 651 1053 l 1,1,-1
 705 1305 l 1,2,-1
 956 1305 l 1,3,-1
 903 1053 l 1,0,-1
530 1053 m 1,4,-1
 279 1053 l 1,5,-1
 332 1305 l 1,6,-1
 584 1305 l 1,7,-1
 530 1053 l 1,4,-1
EndSplineSet
Validated: 1
EndChar

StartChar: notequal
Encoding: 8800 8800 141
Width: 1118
VWidth: 2048
Flags: W
LayerCount: 2
Fore
SplineSet
317 385 m 1,0,-1
 446 572 l 1,1,-1
 22 572 l 1,2,-1
 61 758 l 1,3,-1
 575 758 l 1,4,-1
 706 944 l 1,5,-1
 879 944 l 1,6,-1
 747 758 l 1,7,-1
 993 758 l 1,8,-1
 954 572 l 1,9,-1
 618 572 l 1,10,-1
 489 385 l 1,11,-1
 915 385 l 1,12,-1
 874 199 l 1,13,-1
 360 199 l 1,14,-1
 231 13 l 1,15,-1
 59 13 l 1,16,-1
 188 199 l 1,17,-1
 -57 199 l 1,18,-1
 -16 385 l 1,19,-1
 317 385 l 1,0,-1
EndSplineSet
Validated: 1
EndChar

StartChar: AE
Encoding: 198 198 142
Width: 1118
VWidth: 2048
Flags: W
LayerCount: 2
Fore
SplineSet
297 0 m 1,0,-1
 362 311 l 1,1,-1
 193 311 l 1,2,-1
 51 0 l 1,3,-1
 -162 0 l 1,4,-1
 479 1305 l 1,5,-1
 1110 1305 l 1,6,-1
 1071 1118 l 1,7,-1
 741 1118 l 1,8,-1
 664 758 l 1,9,-1
 944 758 l 1,10,-1
 905 571 l 1,11,-1
 625 571 l 1,12,-1
 543 186 l 1,13,-1
 872 186 l 1,14,-1
 834 0 l 1,15,-1
 297 0 l 1,0,-1
274 494 m 1,16,-1
 401 494 l 1,17,-1
 510 1010 l 1,18,-1
 274 494 l 1,16,-1
EndSplineSet
Validated: 1
EndChar

StartChar: Oslash
Encoding: 216 216 143
Width: 1118
VWidth: 2048
Flags: W
LayerCount: 2
Fore
SplineSet
6 653 m 0,0,1
 35 784 35 784 88 906 c 128,-1,2
 141 1028 141 1028 221 1121 c 128,-1,3
 301 1214 301 1214 407.5 1270.5 c 128,-1,4
 514 1327 514 1327 649 1327 c 0,5,6
 782 1327 782 1327 864 1275 c 128,-1,7
 946 1223 946 1223 987 1133 c 1,8,-1
 1149 1266 l 1,9,-1
 1102 1044 l 1,10,-1
 1028 983 l 1,11,12
 1044 831 1044 831 1006 653 c 0,13,14
 979 522 979 522 925.5 400.5 c 128,-1,15
 872 279 872 279 793.5 184.5 c 128,-1,16
 715 90 715 90 607.5 33.5 c 128,-1,17
 500 -23 500 -23 362 -23 c 0,18,19
 233 -23 233 -23 152.5 25.5 c 128,-1,20
 72 74 72 74 31 158 c 1,21,-1
 -133 20 l 1,22,-1
 -88 242 l 1,23,-1
 -14 303 l 1,24,25
 -27 381 -27 381 -19.5 470 c 128,-1,26
 -12 559 -12 559 6 653 c 0,0,1
213 653 m 0,27,28
 203 606 203 606 195.5 561 c 128,-1,29
 188 516 188 516 186 471 c 1,30,-1
 811 985 l 1,31,32
 791 1055 791 1055 743.5 1098 c 128,-1,33
 696 1141 696 1141 610 1141 c 0,34,35
 467 1141 467 1141 364.5 1012 c 128,-1,36
 262 883 262 883 213 653 c 0,27,28
403 164 m 0,37,38
 492 164 492 164 556.5 207 c 128,-1,39
 621 250 621 250 669 319.5 c 128,-1,40
 717 389 717 389 748.5 477 c 128,-1,41
 780 565 780 565 799 653 c 0,42,43
 809 694 809 694 814 733 c 128,-1,44
 819 772 819 772 823 813 c 1,45,-1
 207 303 l 1,46,47
 227 240 227 240 273 202 c 128,-1,48
 319 164 319 164 403 164 c 0,37,38
EndSplineSet
Validated: 33
EndChar

StartChar: infinity
Encoding: 8734 8734 144
Width: 1118
VWidth: 2048
Flags: W
LayerCount: 2
Fore
SplineSet
950 465 m 256,0,1
 940 414 940 414 912.5 369 c 128,-1,2
 885 324 885 324 847 291 c 128,-1,3
 809 258 809 258 761 239 c 128,-1,4
 713 220 713 220 661 220 c 0,5,6
 590 220 590 220 538.5 253.5 c 128,-1,7
 487 287 487 287 453 377 c 1,8,9
 381 289 381 289 318.5 254.5 c 128,-1,10
 256 220 256 220 178 220 c 0,11,12
 129 220 129 220 90 239 c 128,-1,13
 51 258 51 258 24.5 291 c 128,-1,14
 -2 324 -2 324 -10.5 369 c 128,-1,15
 -19 414 -19 414 -8 465 c 0,16,17
 2 516 2 516 30.5 561.5 c 128,-1,18
 59 607 59 607 98 639.5 c 128,-1,19
 137 672 137 672 183 690.5 c 128,-1,20
 229 709 229 709 280 709 c 0,21,22
 358 709 358 709 406.5 674 c 128,-1,23
 455 639 455 639 489 549 c 1,24,25
 561 639 561 639 626.5 674 c 128,-1,26
 692 709 692 709 764 709 c 0,27,28
 813 709 813 709 853 690.5 c 128,-1,29
 893 672 893 672 918.5 639.5 c 128,-1,30
 944 607 944 607 952 561.5 c 128,-1,31
 960 516 960 516 950 465 c 256,0,1
387 465 m 1,32,33
 358 576 358 576 262 576 c 0,34,35
 217 576 217 576 177 544 c 128,-1,36
 137 512 137 512 127 465 c 256,37,38
 117 418 117 418 140.5 385.5 c 128,-1,39
 164 353 164 353 213 353 c 0,40,41
 311 353 311 353 387 465 c 1,32,33
555 465 m 1,42,43
 582 353 582 353 680 353 c 0,44,45
 729 353 729 353 767 385.5 c 128,-1,46
 805 418 805 418 815 465 c 256,47,48
 825 512 825 512 799.5 544 c 128,-1,49
 774 576 774 576 729 576 c 0,50,51
 631 576 631 576 555 465 c 1,42,43
EndSplineSet
Validated: 33
EndChar

StartChar: plusminus
Encoding: 177 177 145
Width: 1118
VWidth: 2048
Flags: W
LayerCount: 2
Fore
SplineSet
915 385 m 1,0,-1
 543 385 l 1,1,-1
 473 62 l 1,2,-1
 287 62 l 1,3,-1
 356 385 l 1,4,-1
 -16 385 l 1,5,-1
 22 572 l 1,6,-1
 395 572 l 1,7,-1
 475 944 l 1,8,-1
 661 944 l 1,9,-1
 582 572 l 1,10,-1
 954 572 l 1,11,-1
 915 385 l 1,0,-1
795 -186 m 1,12,-1
 -137 -186 l 1,13,-1
 -98 0 l 1,14,-1
 833 0 l 1,15,-1
 795 -186 l 1,12,-1
EndSplineSet
Validated: 1
EndChar

StartChar: lessequal
Encoding: 8804 8804 146
Width: 1118
VWidth: 2048
Flags: W
LayerCount: 2
Fore
SplineSet
749 88 m 1,0,-1
 643 0 l 1,1,-1
 833 0 l 1,2,-1
 795 -186 l 1,3,-1
 49 -186 l 1,4,-1
 88 0 l 1,5,-1
 579 0 l 1,6,-1
 203 480 l 1,7,-1
 823 992 l 1,8,-1
 915 871 l 1,9,-1
 442 480 l 1,10,-1
 749 88 l 1,0,-1
EndSplineSet
Validated: 1
EndChar

StartChar: greaterequal
Encoding: 8805 8805 147
Width: 1118
VWidth: 2048
Flags: W
LayerCount: 2
Fore
SplineSet
684 480 m 1,0,-1
 375 871 l 1,1,-1
 520 992 l 1,2,-1
 924 480 l 1,3,-1
 342 0 l 1,4,-1
 833 0 l 1,5,-1
 795 -186 l 1,6,-1
 49 -186 l 1,7,-1
 88 0 l 1,8,-1
 276 0 l 1,9,-1
 209 88 l 1,10,-1
 684 480 l 1,0,-1
EndSplineSet
Validated: 1
EndChar

StartChar: yen
Encoding: 165 165 148
Width: 1118
VWidth: 2048
Flags: W
LayerCount: 2
Fore
SplineSet
385 559 m 1,0,-1
 385 563 l 1,1,-1
 340 745 l 1,2,-1
 59 745 l 1,3,-1
 98 932 l 1,4,-1
 295 932 l 1,5,-1
 207 1305 l 1,6,-1
 422 1305 l 1,7,-1
 528 750 l 1,8,-1
 870 1305 l 1,9,-1
 1085 1305 l 1,10,-1
 836 932 l 1,11,-1
 1030 932 l 1,12,-1
 991 745 l 1,13,-1
 713 745 l 1,14,-1
 592 563 l 1,15,-1
 592 559 l 1,16,-1
 952 559 l 1,17,-1
 911 373 l 1,18,-1
 551 373 l 1,19,-1
 473 0 l 1,20,-1
 266 0 l 1,21,-1
 344 373 l 1,22,-1
 -20 373 l 1,23,-1
 20 559 l 1,24,-1
 385 559 l 1,0,-1
EndSplineSet
Validated: 1
EndChar

StartChar: mu
Encoding: 181 181 149
Width: 1118
VWidth: 2048
Flags: W
LayerCount: 2
Fore
SplineSet
301 -23 m 0,0,1
 203 -23 203 -23 166 31 c 1,2,-1
 80 -373 l 1,3,-1
 -127 -373 l 1,4,-1
 147 932 l 1,5,-1
 356 932 l 1,6,-1
 233 354 l 2,7,8
 211 246 211 246 243.5 205 c 128,-1,9
 276 164 276 164 354 164 c 0,10,11
 469 164 469 164 560 256 c 128,-1,12
 651 348 651 348 686 512 c 2,13,-1
 774 932 l 1,14,-1
 981 932 l 1,15,-1
 784 0 l 1,16,-1
 578 0 l 1,17,-1
 627 231 l 1,18,19
 569 111 569 111 478 44 c 128,-1,20
 387 -23 387 -23 301 -23 c 0,0,1
EndSplineSet
Validated: 33
EndChar

StartChar: partialdiff
Encoding: 8706 8706 150
Width: 1118
VWidth: 2048
Flags: W
LayerCount: 2
Fore
SplineSet
-45 354 m 0,0,1
 -23 457 -23 457 43 537.5 c 128,-1,2
 109 618 109 618 210 679.5 c 128,-1,3
 311 741 311 741 445.5 783 c 128,-1,4
 580 825 580 825 739 850 c 1,5,6
 692 954 692 954 589.5 1022 c 128,-1,7
 487 1090 487 1090 346 1147 c 1,8,-1
 446 1327 l 1,9,10
 571 1274 571 1274 681 1205.5 c 128,-1,11
 791 1137 791 1137 865.5 1042.5 c 128,-1,12
 940 948 940 948 969.5 824 c 128,-1,13
 999 700 999 700 965 537 c 0,14,15
 938 408 938 408 879.5 304.5 c 128,-1,16
 821 201 821 201 738 128 c 128,-1,17
 655 55 655 55 550.5 16 c 128,-1,18
 446 -23 446 -23 326 -23 c 0,19,20
 121 -23 121 -23 18.5 73.5 c 128,-1,21
 -84 170 -84 170 -45 354 c 0,0,1
758 537 m 0,22,23
 774 608 774 608 774 670 c 1,24,25
 514 647 514 647 352 565 c 128,-1,26
 190 483 190 483 162 354 c 0,27,28
 143 262 143 262 197.5 213 c 128,-1,29
 252 164 252 164 367 164 c 0,30,31
 506 164 506 164 612.5 260 c 128,-1,32
 719 356 719 356 758 537 c 0,22,23
EndSplineSet
Validated: 33
EndChar

StartChar: summation
Encoding: 8721 8721 151
Width: 1118
VWidth: 2048
Flags: W
LayerCount: 2
Fore
SplineSet
784 0 m 1,0,-1
 -55 0 l 1,1,-1
 -16 186 l 1,2,-1
 377 651 l 1,3,-1
 182 1118 l 1,4,-1
 221 1305 l 1,5,-1
 1061 1305 l 1,6,-1
 967 864 l 1,7,-1
 780 864 l 1,8,-1
 836 1118 l 1,9,-1
 434 1118 l 1,10,-1
 621 651 l 1,11,-1
 236 186 l 1,12,-1
 637 186 l 1,13,-1
 690 442 l 1,14,-1
 877 442 l 1,15,-1
 784 0 l 1,0,-1
EndSplineSet
Validated: 1
EndChar

StartChar: product
Encoding: 8719 8719 152
Width: 1118
VWidth: 2048
Flags: W
LayerCount: 2
Fore
SplineSet
1071 1118 m 1,0,-1
 895 1118 l 1,1,-1
 657 0 l 1,2,-1
 451 0 l 1,3,-1
 688 1118 l 1,4,-1
 522 1118 l 1,5,-1
 285 0 l 1,6,-1
 78 0 l 1,7,-1
 315 1118 l 1,8,-1
 139 1118 l 1,9,-1
 178 1305 l 1,10,-1
 1110 1305 l 1,11,-1
 1071 1118 l 1,0,-1
EndSplineSet
Validated: 1
EndChar

StartChar: pi
Encoding: 960 960 153
Width: 1118
VWidth: 2048
Flags: W
LayerCount: 2
Fore
SplineSet
723 268 m 2,0,1
 713 219 713 219 731.5 189.5 c 128,-1,2
 750 160 750 160 801 160 c 0,3,4
 829 160 829 160 847.5 164 c 128,-1,5
 866 168 866 168 883 176 c 1,6,-1
 872 2 l 1,7,8
 825 -23 825 -23 743 -23 c 0,9,10
 602 -23 602 -23 542.5 46 c 128,-1,11
 483 115 483 115 516 268 c 2,12,-1
 618 745 l 1,13,-1
 432 745 l 1,14,15
 412 647 412 647 389.5 556 c 128,-1,16
 367 465 367 465 342 376 c 128,-1,17
 317 287 317 287 289.5 194.5 c 128,-1,18
 262 102 262 102 231 0 c 1,19,-1
 23 0 l 1,20,21
 55 100 55 100 83 190.5 c 128,-1,22
 111 281 111 281 134.5 370 c 128,-1,23
 158 459 158 459 180.5 551 c 128,-1,24
 203 643 203 643 225 745 c 1,25,-1
 59 745 l 1,26,-1
 98 932 l 1,27,-1
 1030 932 l 1,28,-1
 991 745 l 1,29,-1
 825 745 l 1,30,-1
 723 268 l 2,0,1
EndSplineSet
Validated: 33
EndChar

StartChar: integral
Encoding: 8747 8747 154
Width: 1118
VWidth: 2048
Flags: W
LayerCount: 2
Fore
SplineSet
1151 1497 m 1,0,1
 1094 1503 1094 1503 1047 1503 c 0,2,3
 899 1503 899 1503 834.5 1457 c 128,-1,4
 770 1411 770 1411 748 1309 c 2,5,-1
 467 -16 l 2,6,7
 426 -207 426 -207 288 -301 c 128,-1,8
 150 -395 150 -395 -51 -395 c 0,9,10
 -82 -395 -82 -395 -113.5 -393 c 128,-1,11
 -145 -391 -145 -391 -180 -387 c 1,12,-1
 -141 -203 l 1,13,14
 -86 -209 -86 -209 -37 -209 c 0,15,16
 109 -209 109 -209 173.5 -163 c 128,-1,17
 238 -117 238 -117 260 -16 c 2,18,-1
 541 1309 l 2,19,20
 582 1499 582 1499 721 1594.5 c 128,-1,21
 860 1690 860 1690 1061 1690 c 0,22,23
 1092 1690 1092 1690 1123.5 1686.5 c 128,-1,24
 1155 1683 1155 1683 1190 1679 c 1,25,-1
 1151 1497 l 1,0,1
EndSplineSet
Validated: 1
EndChar

StartChar: ordfeminine
Encoding: 170 170 155
Width: 1118
VWidth: 2048
Flags: W
LayerCount: 2
Fore
SplineSet
57 780 m 0,0,1
 74 850 74 850 119 899 c 128,-1,2
 164 948 164 948 228.5 977 c 128,-1,3
 293 1006 293 1006 368.5 1019 c 128,-1,4
 444 1032 444 1032 522 1032 c 0,5,6
 553 1032 553 1032 571.5 1032 c 128,-1,7
 590 1032 590 1032 604 1030 c 128,-1,8
 618 1028 618 1028 634.5 1026 c 128,-1,9
 651 1024 651 1024 676 1020 c 1,10,-1
 690 1079 l 2,11,12
 700 1128 700 1128 658 1152 c 128,-1,13
 616 1176 616 1176 541 1176 c 0,14,15
 469 1176 469 1176 388 1159.5 c 128,-1,16
 307 1143 307 1143 233 1106 c 1,17,-1
 199 1235 l 1,18,19
 268 1276 268 1276 362.5 1299.5 c 128,-1,20
 457 1323 457 1323 571 1323 c 0,21,22
 643 1323 643 1323 704.5 1309.5 c 128,-1,23
 766 1296 766 1296 809 1266.5 c 128,-1,24
 852 1237 852 1237 870.5 1191 c 128,-1,25
 889 1145 889 1145 877 1079 c 2,26,-1
 766 559 l 1,27,-1
 580 559 l 1,28,-1
 602 668 l 1,29,30
 543 616 543 616 466 578.5 c 128,-1,31
 389 541 389 541 285 541 c 0,32,33
 150 541 150 541 93.5 608.5 c 128,-1,34
 37 676 37 676 57 780 c 0,0,1
360 688 m 0,35,36
 401 688 401 688 447.5 699.5 c 128,-1,37
 494 711 494 711 533.5 728 c 128,-1,38
 573 745 573 745 601 768 c 128,-1,39
 629 791 629 791 633 813 c 2,40,-1
 647 879 l 1,41,42
 596 887 596 887 562 888 c 128,-1,43
 528 889 528 889 492 889 c 0,44,45
 260 889 260 889 236 780 c 0,46,47
 229 745 229 745 251.5 716.5 c 128,-1,48
 274 688 274 688 360 688 c 0,35,36
688 199 m 1,49,-1
 -57 199 l 1,50,-1
 -18 385 l 1,51,-1
 727 385 l 1,52,-1
 688 199 l 1,49,-1
EndSplineSet
Validated: 33
EndChar

StartChar: ordmasculine
Encoding: 186 186 156
Width: 1118
VWidth: 2048
Flags: W
LayerCount: 2
Fore
SplineSet
862 930 m 0,0,1
 844 844 844 844 800 771 c 128,-1,2
 756 698 756 698 693.5 647 c 128,-1,3
 631 596 631 596 552 567.5 c 128,-1,4
 473 539 473 539 387 539 c 256,5,6
 301 539 301 539 234.5 566.5 c 128,-1,7
 168 594 168 594 127 645 c 128,-1,8
 86 696 86 696 72.5 768 c 128,-1,9
 59 840 59 840 78 930 c 0,10,11
 96 1018 96 1018 140 1091.5 c 128,-1,12
 184 1165 184 1165 247.5 1216.5 c 128,-1,13
 311 1268 311 1268 390 1296.5 c 128,-1,14
 469 1325 469 1325 555 1325 c 256,15,16
 641 1325 641 1325 707.5 1296.5 c 128,-1,17
 774 1268 774 1268 814 1216.5 c 128,-1,18
 854 1165 854 1165 867.5 1091.5 c 128,-1,19
 881 1018 881 1018 862 930 c 0,0,1
686 930 m 0,20,21
 711 1044 711 1044 664.5 1109 c 128,-1,22
 618 1174 618 1174 522 1174 c 256,23,24
 426 1174 426 1174 352.5 1109 c 128,-1,25
 279 1044 279 1044 254 930 c 0,26,27
 229 815 229 815 275.5 752.5 c 128,-1,28
 322 690 322 690 420 690 c 256,29,30
 518 690 518 690 590 752.5 c 128,-1,31
 662 815 662 815 686 930 c 0,20,21
688 199 m 1,32,-1
 -57 199 l 1,33,-1
 -18 385 l 1,34,-1
 727 385 l 1,35,-1
 688 199 l 1,32,-1
EndSplineSet
Validated: 33
EndChar

StartChar: Omega
Encoding: 8486 8486 157
Width: 1118
VWidth: 2048
Flags: W
LayerCount: 2
Fore
SplineSet
1010 741 m 0,0,1
 979 596 979 596 898 460 c 128,-1,2
 817 324 817 324 674 231 c 1,3,-1
 664 186 l 1,4,-1
 872 186 l 1,5,-1
 834 0 l 1,6,-1
 461 0 l 1,7,-1
 537 358 l 1,8,9
 596 383 596 383 641 425 c 128,-1,10
 686 467 686 467 719 519 c 128,-1,11
 752 571 752 571 772.5 629.5 c 128,-1,12
 793 688 793 688 803 741 c 0,13,14
 819 811 819 811 819 882.5 c 128,-1,15
 819 954 819 954 797.5 1011.5 c 128,-1,16
 776 1069 776 1069 731 1105 c 128,-1,17
 686 1141 686 1141 610 1141 c 0,18,19
 537 1141 537 1141 476.5 1105 c 128,-1,20
 416 1069 416 1069 370 1011.5 c 128,-1,21
 324 954 324 954 292 882.5 c 128,-1,22
 260 811 260 811 244 741 c 0,23,24
 233 688 233 688 229 629.5 c 128,-1,25
 225 571 225 571 235.5 519 c 128,-1,26
 246 467 246 467 272.5 425 c 128,-1,27
 299 383 299 383 350 358 c 1,28,-1
 274 0 l 1,29,-1
 -98 0 l 1,30,-1
 -59 186 l 1,31,-1
 154 186 l 1,32,-1
 164 231 l 1,33,34
 59 317 59 317 32.5 454.5 c 128,-1,35
 6 592 6 592 37 741 c 0,36,37
 61 854 61 854 115.5 960.5 c 128,-1,38
 170 1067 170 1067 249 1148 c 128,-1,39
 328 1229 328 1229 429 1278 c 128,-1,40
 530 1327 530 1327 649 1327 c 256,41,42
 768 1327 768 1327 848 1278 c 128,-1,43
 928 1229 928 1229 972 1148 c 128,-1,44
 1016 1067 1016 1067 1025 960.5 c 128,-1,45
 1034 854 1034 854 1010 741 c 0,0,1
EndSplineSet
Validated: 33
EndChar

StartChar: ae
Encoding: 230 230 158
Width: 1118
VWidth: 2048
Flags: W
LayerCount: 2
Fore
SplineSet
379 131 m 1,0,1
 326 66 326 66 265.5 21.5 c 128,-1,2
 205 -23 205 -23 125 -23 c 0,3,4
 63 -23 63 -23 23.5 0 c 128,-1,5
 -16 23 -16 23 -39.5 60.5 c 128,-1,6
 -63 98 -63 98 -69.5 148.5 c 128,-1,7
 -76 199 -76 199 -63 254 c 0,8,9
 -47 334 -47 334 -9 395.5 c 128,-1,10
 29 457 29 457 81 498 c 128,-1,11
 133 539 133 539 195.5 559.5 c 128,-1,12
 258 580 258 580 322 580 c 0,13,14
 344 580 344 580 358.5 579 c 128,-1,15
 373 578 373 578 395 573 c 1,16,-1
 408 633 l 2,17,18
 424 707 424 707 402.5 738.5 c 128,-1,19
 381 770 381 770 336 770 c 0,20,21
 301 770 301 770 255 751.5 c 128,-1,22
 209 733 209 733 160 674 c 1,23,-1
 61 793 l 1,24,25
 135 879 135 879 220 916.5 c 128,-1,26
 305 954 305 954 367 954 c 0,27,28
 438 954 438 954 488.5 925.5 c 128,-1,29
 539 897 539 897 547 825 c 1,30,31
 596 893 596 893 653.5 923.5 c 128,-1,32
 711 954 711 954 780 954 c 0,33,34
 874 954 874 954 916 904 c 128,-1,35
 958 854 958 854 969.5 774 c 128,-1,36
 981 694 981 694 966.5 593 c 128,-1,37
 952 492 952 492 930 387 c 1,38,-1
 543 387 l 1,39,40
 516 262 516 262 540.5 215 c 128,-1,41
 565 168 565 168 610 168 c 0,42,43
 643 168 643 168 669.5 186.5 c 128,-1,44
 696 205 696 205 715 248 c 1,45,-1
 877 190 l 1,46,47
 819 82 819 82 745.5 29.5 c 128,-1,48
 672 -23 672 -23 569 -23 c 0,49,50
 541 -23 541 -23 511 -15.5 c 128,-1,51
 481 -8 481 -8 454.5 9.5 c 128,-1,52
 428 27 428 27 407.5 56.5 c 128,-1,53
 387 86 387 86 379 131 c 1,0,1
762 569 m 1,54,55
 782 688 782 688 769 729 c 128,-1,56
 756 770 756 770 717 770 c 0,57,58
 674 770 674 770 641 725 c 128,-1,59
 608 680 608 680 582 569 c 1,60,-1
 762 569 l 1,54,55
356 391 m 1,61,62
 344 393 344 393 330.5 394 c 128,-1,63
 317 395 317 395 295 395 c 0,64,65
 246 395 246 395 200 360.5 c 128,-1,66
 154 326 154 326 141 264 c 0,67,68
 131 213 131 213 146.5 189.5 c 128,-1,69
 162 166 162 166 195 166 c 0,70,71
 250 166 250 166 290 215 c 128,-1,72
 330 264 330 264 344 330 c 2,73,-1
 356 391 l 1,61,62
EndSplineSet
Validated: 33
EndChar

StartChar: oslash
Encoding: 248 248 159
Width: 1118
VWidth: 2048
Flags: W
LayerCount: 2
Fore
SplineSet
-61 180 m 1,0,-1
 -14 213 l 1,1,2
 -33 266 -33 266 -36 329.5 c 128,-1,3
 -39 393 -39 393 -23 465 c 0,4,5
 0 571 0 571 55.5 661.5 c 128,-1,6
 111 752 111 752 188.5 817.5 c 128,-1,7
 266 883 266 883 364.5 918.5 c 128,-1,8
 463 954 463 954 571 954 c 0,9,10
 670 954 670 954 745.5 923.5 c 128,-1,11
 821 893 821 893 874 840 c 1,12,-1
 1036 954 l 1,13,-1
 993 752 l 1,14,-1
 946 719 l 1,15,16
 963 664 963 664 966 600.5 c 128,-1,17
 969 537 969 537 954 465 c 0,18,19
 930 356 930 356 876.5 267 c 128,-1,20
 823 178 823 178 745.5 113.5 c 128,-1,21
 668 49 668 49 570.5 13 c 128,-1,22
 473 -23 473 -23 362 -23 c 0,23,24
 262 -23 262 -23 185.5 7 c 128,-1,25
 109 37 109 37 57 90 c 1,26,-1
 -102 -23 l 1,27,-1
 -61 180 l 1,0,-1
748 465 m 0,28,29
 760 528 760 528 754 584 c 1,30,-1
 238 219 l 1,31,32
 266 193 266 193 308 178.5 c 128,-1,33
 350 164 350 164 403 164 c 0,34,35
 469 164 469 164 525.5 186.5 c 128,-1,36
 582 209 582 209 627 250 c 128,-1,37
 672 291 672 291 702.5 345 c 128,-1,38
 733 399 733 399 748 465 c 0,28,29
184 465 m 0,39,40
 170 399 170 399 178 348 c 1,41,-1
 690 711 l 1,42,43
 633 768 633 768 530 768 c 0,44,45
 465 768 465 768 407.5 744.5 c 128,-1,46
 350 721 350 721 305 681 c 128,-1,47
 260 641 260 641 228.5 584.5 c 128,-1,48
 197 528 197 528 184 465 c 0,39,40
EndSplineSet
Validated: 33
EndChar

StartChar: questiondown
Encoding: 191 191 160
Width: 1118
VWidth: 2048
Flags: W
LayerCount: 2
Fore
SplineSet
174 301 m 0,0,1
 188 375 188 375 227 430 c 128,-1,2
 266 485 266 485 315.5 532.5 c 128,-1,3
 365 580 365 580 420 622 c 128,-1,4
 475 664 475 664 524 709 c 128,-1,5
 573 754 573 754 611 808 c 128,-1,6
 649 862 649 862 664 932 c 1,7,-1
 877 932 l 1,8,9
 858 848 858 848 818 784.5 c 128,-1,10
 778 721 778 721 726 668.5 c 128,-1,11
 674 616 674 616 618.5 572 c 128,-1,12
 563 528 563 528 513 485 c 128,-1,13
 463 442 463 442 427 397 c 128,-1,14
 391 352 391 352 381 299 c 0,15,16
 367 233 367 233 398.5 198.5 c 128,-1,17
 430 164 430 164 496 164 c 0,18,19
 594 164 594 164 650.5 218 c 128,-1,20
 707 272 707 272 737 369 c 1,21,-1
 924 340 l 1,22,23
 868 172 868 172 750.5 74.5 c 128,-1,24
 633 -23 633 -23 457 -23 c 0,25,26
 291 -23 291 -23 216 65.5 c 128,-1,27
 141 154 141 154 174 301 c 0,0,1
705 1305 m 1,28,-1
 956 1305 l 1,29,-1
 903 1053 l 1,30,-1
 651 1053 l 1,31,-1
 705 1305 l 1,28,-1
EndSplineSet
Validated: 33
EndChar

StartChar: exclamdown
Encoding: 161 161 161
Width: 1118
VWidth: 2048
Flags: W
LayerCount: 2
Fore
SplineSet
418 0 m 1,0,-1
 666 932 l 1,1,-1
 836 932 l 1,2,-1
 690 0 l 1,3,-1
 418 0 l 1,0,-1
903 1053 m 1,4,-1
 651 1053 l 1,5,-1
 705 1305 l 1,6,-1
 956 1305 l 1,7,-1
 903 1053 l 1,4,-1
EndSplineSet
Validated: 1
EndChar

StartChar: logicalnot
Encoding: 172 172 162
Width: 1118
VWidth: 2048
Flags: W
LayerCount: 2
Fore
SplineSet
835 13 m 1,0,-1
 649 13 l 1,1,-1
 729 385 l 1,2,-1
 -16 385 l 1,3,-1
 22 572 l 1,4,-1
 954 572 l 1,5,-1
 835 13 l 1,0,-1
EndSplineSet
Validated: 1
EndChar

StartChar: radical
Encoding: 8730 8730 163
Width: 1118
VWidth: 2048
Flags: W
LayerCount: 2
Fore
SplineSet
1030 932 m 1,0,-1
 760 932 l 1,1,-1
 313 0 l 1,2,-1
 92 0 l 1,3,-1
 57 725 l 1,4,-1
 248 774 l 1,5,-1
 268 305 l 1,6,-1
 651 1118 l 1,7,-1
 1071 1118 l 1,8,-1
 1030 932 l 1,0,-1
EndSplineSet
Validated: 1
EndChar

StartChar: florin
Encoding: 402 402 164
Width: 1118
VWidth: 2048
Flags: W
LayerCount: 2
Fore
SplineSet
422 745 m 1,0,-1
 215 745 l 1,1,-1
 254 932 l 1,2,-1
 461 932 l 1,3,4
 502 1124 502 1124 641 1225.5 c 128,-1,5
 780 1327 780 1327 981 1327 c 0,6,7
 1012 1327 1012 1327 1045.5 1324 c 128,-1,8
 1079 1321 1079 1321 1112 1317 c 1,9,-1
 1073 1135 l 1,10,11
 1016 1141 1016 1141 967 1141 c 0,12,13
 887 1141 887 1141 835.5 1129.5 c 128,-1,14
 784 1118 784 1118 750.5 1092.5 c 128,-1,15
 717 1067 717 1067 698.5 1027 c 128,-1,16
 680 987 680 987 668 932 c 1,17,-1
 1030 932 l 1,18,-1
 991 745 l 1,19,-1
 629 745 l 1,20,-1
 467 -16 l 2,21,22
 426 -207 426 -207 288 -301 c 128,-1,23
 150 -395 150 -395 -51 -395 c 0,24,25
 -82 -395 -82 -395 -113.5 -393 c 128,-1,26
 -145 -391 -145 -391 -180 -387 c 1,27,-1
 -141 -203 l 1,28,29
 -86 -209 -86 -209 -37 -209 c 0,30,31
 109 -209 109 -209 173.5 -163 c 128,-1,32
 238 -117 238 -117 260 -16 c 2,33,-1
 422 745 l 1,0,-1
EndSplineSet
Validated: 1
EndChar

StartChar: approxequal
Encoding: 8776 8776 165
Width: 1118
VWidth: 2048
Flags: W
LayerCount: 2
Fore
SplineSet
1046 738 m 1,0,1
 962 615 962 615 861 546.5 c 128,-1,2
 760 478 760 478 643 478 c 0,3,4
 582 478 582 478 542 500.5 c 128,-1,5
 502 523 502 523 470 550.5 c 128,-1,6
 438 578 438 578 405.5 601.5 c 128,-1,7
 373 625 373 625 326 625 c 0,8,9
 260 625 260 625 208 586 c 128,-1,10
 156 547 156 547 98 476 c 1,11,-1
 -37 564 l 1,12,13
 49 682 49 682 149.5 752 c 128,-1,14
 250 822 250 822 367 822 c 0,15,16
 428 822 428 822 468 798.5 c 128,-1,17
 508 775 508 775 539.5 747 c 128,-1,18
 571 719 571 719 605 695.5 c 128,-1,19
 639 672 639 672 686 672 c 0,20,21
 752 672 752 672 804 713 c 128,-1,22
 856 754 856 754 913 826 c 1,23,-1
 1046 738 l 1,0,1
969 367 m 1,24,25
 883 244 883 244 782.5 175.5 c 128,-1,26
 682 107 682 107 565 107 c 0,27,28
 504 107 504 107 464 129.5 c 128,-1,29
 424 152 424 152 391 179.5 c 128,-1,30
 358 207 358 207 325.5 230.5 c 128,-1,31
 293 254 293 254 246 254 c 0,32,33
 180 254 180 254 128 215 c 128,-1,34
 76 176 76 176 20 105 c 1,35,-1
 -115 193 l 1,36,37
 -31 312 -31 312 70.5 381.5 c 128,-1,38
 172 451 172 451 289 451 c 0,39,40
 350 451 350 451 390 427.5 c 128,-1,41
 430 404 430 404 461.5 376.5 c 128,-1,42
 493 349 493 349 526 325 c 128,-1,43
 559 301 559 301 606 301 c 0,44,45
 672 301 672 301 725 342 c 128,-1,46
 778 383 778 383 833 455 c 1,47,-1
 969 367 l 1,24,25
EndSplineSet
Validated: 1
EndChar

StartChar: Delta
Encoding: 8710 8710 166
Width: 1118
VWidth: 2048
Flags: W
LayerCount: 2
Fore
SplineSet
-158 0 m 1,0,-1
 526 1305 l 1,1,-1
 764 1305 l 1,2,-1
 895 0 l 1,3,-1
 -158 0 l 1,0,-1
154 184 m 1,4,-1
 662 184 l 1,5,-1
 588 1032 l 1,6,-1
 154 184 l 1,4,-1
EndSplineSet
Validated: 1
EndChar

StartChar: guillemotleft
Encoding: 171 171 167
Width: 1118
VWidth: 2048
Flags: W
LayerCount: 2
Fore
SplineSet
453 444 m 1,0,-1
 307 324 l 1,1,-1
 53 651 l 1,2,-1
 446 981 l 1,3,-1
 541 860 l 1,4,-1
 293 651 l 1,5,-1
 453 444 l 1,0,-1
823 444 m 1,6,-1
 678 324 l 1,7,-1
 424 651 l 1,8,-1
 817 981 l 1,9,-1
 911 860 l 1,10,-1
 664 651 l 1,11,-1
 823 444 l 1,6,-1
EndSplineSet
Validated: 1
EndChar

StartChar: guillemotright
Encoding: 187 187 168
Width: 1118
VWidth: 2048
Flags: W
LayerCount: 2
Fore
SplineSet
719 651 m 1,0,-1
 561 860 l 1,1,-1
 705 981 l 1,2,-1
 958 651 l 1,3,-1
 565 324 l 1,4,-1
 473 444 l 1,5,-1
 719 651 l 1,0,-1
348 651 m 1,6,-1
 190 860 l 1,7,-1
 334 981 l 1,8,-1
 588 651 l 1,9,-1
 195 324 l 1,10,-1
 102 444 l 1,11,-1
 348 651 l 1,6,-1
EndSplineSet
Validated: 1
EndChar

StartChar: ellipsis
Encoding: 8230 8230 169
Width: 1118
VWidth: 2048
Flags: W
LayerCount: 2
Fore
SplineSet
494 0 m 1,0,-1
 242 0 l 1,1,-1
 295 252 l 1,2,-1
 547 252 l 1,3,-1
 494 0 l 1,0,-1
866 0 m 1,4,-1
 614 0 l 1,5,-1
 668 252 l 1,6,-1
 920 252 l 1,7,-1
 866 0 l 1,4,-1
121 0 m 1,8,-1
 -131 0 l 1,9,-1
 -78 252 l 1,10,-1
 174 252 l 1,11,-1
 121 0 l 1,8,-1
EndSplineSet
Validated: 1
EndChar

StartChar: OE
Encoding: 338 338 174
Width: 1118
VWidth: 2048
Flags: W
LayerCount: 2
Fore
SplineSet
834 0 m 1,0,-1
 360 0 l 1,1,-1
 385 123 l 1,2,3
 301 -23 301 -23 172 -23 c 0,4,5
 -119 -23 -119 -23 23 651 c 0,6,7
 166 1327 166 1327 459 1327 c 0,8,9
 522 1327 522 1327 560 1288 c 128,-1,10
 598 1249 598 1249 610 1178 c 1,11,-1
 637 1305 l 1,12,-1
 1110 1305 l 1,13,-1
 1071 1118 l 1,14,-1
 735 1118 l 1,15,-1
 657 758 l 1,16,-1
 903 758 l 1,17,-1
 864 571 l 1,18,-1
 618 571 l 1,19,-1
 537 186 l 1,20,-1
 872 186 l 1,21,-1
 834 0 l 1,0,-1
434 651 m 0,22,23
 457 760 457 760 472 850 c 128,-1,24
 487 940 487 940 490.5 1004.5 c 128,-1,25
 494 1069 494 1069 481.5 1105 c 128,-1,26
 469 1141 469 1141 438 1141 c 0,27,28
 408 1141 408 1141 379 1105 c 128,-1,29
 350 1069 350 1069 324.5 1004.5 c 128,-1,30
 299 940 299 940 275.5 850 c 128,-1,31
 252 760 252 760 229 651 c 0,32,33
 207 543 207 543 191.5 452.5 c 128,-1,34
 176 362 176 362 175 297.5 c 128,-1,35
 174 233 174 233 187.5 198.5 c 128,-1,36
 201 164 201 164 231 164 c 0,37,38
 262 164 262 164 289.5 198.5 c 128,-1,39
 317 233 317 233 341 297.5 c 128,-1,40
 365 362 365 362 388.5 452.5 c 128,-1,41
 412 543 412 543 434 651 c 0,22,23
EndSplineSet
Validated: 33
EndChar

StartChar: oe
Encoding: 339 339 175
Width: 1118
VWidth: 2048
Flags: W
LayerCount: 2
Fore
SplineSet
551 385 m 1,0,1
 530 289 530 289 543.5 226.5 c 128,-1,2
 557 164 557 164 610 164 c 0,3,4
 651 164 651 164 679 189.5 c 128,-1,5
 707 215 707 215 729 274 c 1,6,-1
 899 221 l 1,7,8
 846 98 846 98 764 37.5 c 128,-1,9
 682 -23 682 -23 590 -23 c 0,10,11
 410 -23 410 -23 403 180 c 1,12,13
 317 -23 317 -23 150 -23 c 0,14,15
 -129 -23 -129 -23 -27 467 c 0,16,17
 78 954 78 954 358 954 c 0,18,19
 522 954 522 954 526 762 c 1,20,21
 610 954 610 954 786 954 c 0,22,23
 887 954 887 954 931 901 c 128,-1,24
 975 848 975 848 985 765 c 128,-1,25
 995 682 995 682 981 580.5 c 128,-1,26
 967 479 967 479 946 385 c 1,27,-1
 551 385 l 1,0,1
780 571 m 1,28,29
 799 664 799 664 791.5 716 c 128,-1,30
 784 768 784 768 729 768 c 256,31,32
 674 768 674 768 644 716 c 128,-1,33
 614 664 614 664 592 571 c 1,34,-1
 780 571 l 1,28,29
362 467 m 0,35,36
 426 768 426 768 336 768 c 0,37,38
 244 768 244 768 180 467 c 0,39,40
 117 164 117 164 209 164 c 0,41,42
 299 164 299 164 362 467 c 0,35,36
EndSplineSet
Validated: 33
EndChar

StartChar: endash
Encoding: 8211 8211 176
Width: 1118
VWidth: 2048
Flags: W
LayerCount: 2
Fore
SplineSet
-18 385 m 1,0,-1
 23 571 l 1,1,-1
 954 571 l 1,2,-1
 913 385 l 1,3,-1
 -18 385 l 1,0,-1
EndSplineSet
Validated: 1
EndChar

StartChar: emdash
Encoding: 8212 8212 177
Width: 1118
VWidth: 2048
Flags: W
LayerCount: 2
Fore
SplineSet
-109 385 m 1,0,-1
 -70 571 l 1,1,-1
 1049 571 l 1,2,-1
 1008 385 l 1,3,-1
 -109 385 l 1,0,-1
EndSplineSet
Validated: 1
EndChar

StartChar: quotedblleft
Encoding: 8220 8220 178
Width: 1118
VWidth: 2048
Flags: W
LayerCount: 2
Fore
SplineSet
418 680 m 1,0,-1
 45 680 l 1,1,-1
 102 946 l 2,2,3
 117 1016 117 1016 148.5 1080.5 c 128,-1,4
 180 1145 180 1145 235.5 1195 c 128,-1,5
 291 1245 291 1245 368.5 1275 c 128,-1,6
 446 1305 446 1305 551 1305 c 1,7,-1
 514 1133 l 1,8,9
 455 1133 455 1133 412 1119.5 c 128,-1,10
 369 1106 369 1106 340 1081.5 c 128,-1,11
 311 1057 311 1057 293.5 1023 c 128,-1,12
 276 989 276 989 268 946 c 1,13,-1
 264 932 l 1,14,-1
 471 932 l 1,15,-1
 418 680 l 1,0,-1
977 680 m 1,16,-1
 604 680 l 1,17,-1
 662 946 l 2,18,19
 676 1016 676 1016 707.5 1080.5 c 128,-1,20
 739 1145 739 1145 794.5 1195 c 128,-1,21
 850 1245 850 1245 928 1275 c 128,-1,22
 1006 1305 1006 1305 1110 1305 c 1,23,-1
 1073 1133 l 1,24,25
 1014 1133 1014 1133 971 1119.5 c 128,-1,26
 928 1106 928 1106 899 1081.5 c 128,-1,27
 870 1057 870 1057 853 1023 c 128,-1,28
 836 989 836 989 827 946 c 2,29,-1
 823 932 l 1,30,-1
 1030 932 l 1,31,-1
 977 680 l 1,16,-1
EndSplineSet
Validated: 1
EndChar

StartChar: quotedblright
Encoding: 8221 8221 179
Width: 1118
VWidth: 2048
Flags: W
LayerCount: 2
Fore
SplineSet
737 1305 m 1,0,-1
 1110 1305 l 1,1,-1
 1053 1038 l 2,2,3
 1038 969 1038 969 1006.5 904.5 c 128,-1,4
 975 840 975 840 919.5 789.5 c 128,-1,5
 864 739 864 739 786.5 709.5 c 128,-1,6
 709 680 709 680 604 680 c 1,7,-1
 641 852 l 1,8,9
 760 852 760 852 815 903 c 128,-1,10
 870 954 870 954 887 1038 c 1,11,-1
 891 1053 l 1,12,-1
 684 1053 l 1,13,-1
 737 1305 l 1,0,-1
178 1305 m 1,14,-1
 551 1305 l 1,15,-1
 494 1038 l 2,16,17
 479 969 479 969 447.5 904.5 c 128,-1,18
 416 840 416 840 360.5 789.5 c 128,-1,19
 305 739 305 739 227.5 709.5 c 128,-1,20
 150 680 150 680 45 680 c 1,21,-1
 82 852 l 1,22,23
 201 852 201 852 256 903 c 128,-1,24
 311 954 311 954 328 1038 c 1,25,-1
 332 1053 l 1,26,-1
 125 1053 l 1,27,-1
 178 1305 l 1,14,-1
EndSplineSet
Validated: 1
EndChar

StartChar: quoteleft
Encoding: 8216 8216 180
Width: 1118
VWidth: 2048
Flags: W
LayerCount: 2
Fore
SplineSet
791 680 m 1,0,-1
 418 680 l 1,1,-1
 475 946 l 2,2,3
 489 1016 489 1016 521 1080.5 c 128,-1,4
 553 1145 553 1145 608.5 1195 c 128,-1,5
 664 1245 664 1245 741.5 1275 c 128,-1,6
 819 1305 819 1305 924 1305 c 1,7,-1
 887 1133 l 1,8,9
 827 1133 827 1133 784 1119.5 c 128,-1,10
 741 1106 741 1106 712.5 1081.5 c 128,-1,11
 684 1057 684 1057 666.5 1023 c 128,-1,12
 649 989 649 989 641 946 c 1,13,-1
 637 932 l 1,14,-1
 844 932 l 1,15,-1
 791 680 l 1,0,-1
EndSplineSet
Validated: 1
EndChar

StartChar: quoteright
Encoding: 8217 8217 181
Width: 1118
VWidth: 2048
Flags: W
LayerCount: 2
Fore
SplineSet
365 1305 m 1,0,-1
 737 1305 l 1,1,-1
 680 1038 l 2,2,3
 666 969 666 969 634 904.5 c 128,-1,4
 602 840 602 840 547 789.5 c 128,-1,5
 492 739 492 739 414 709.5 c 128,-1,6
 336 680 336 680 231 680 c 1,7,-1
 268 852 l 1,8,9
 387 852 387 852 442.5 903 c 128,-1,10
 498 954 498 954 514 1038 c 1,11,-1
 518 1053 l 1,12,-1
 311 1053 l 1,13,-1
 365 1305 l 1,0,-1
EndSplineSet
Validated: 1
EndChar

StartChar: divide
Encoding: 247 247 182
Width: 1118
VWidth: 2048
Flags: W
LayerCount: 2
Fore
SplineSet
647 725 m 1,0,-1
 395 725 l 1,1,-1
 448 977 l 1,2,-1
 700 977 l 1,3,-1
 647 725 l 1,0,-1
489 -20 m 1,4,-1
 237 -20 l 1,5,-1
 291 232 l 1,6,-1
 543 232 l 1,7,-1
 489 -20 l 1,4,-1
915 385 m 1,8,-1
 -16 385 l 1,9,-1
 22 572 l 1,10,-1
 954 572 l 1,11,-1
 915 385 l 1,8,-1
EndSplineSet
Validated: 1
EndChar

StartChar: lozenge
Encoding: 9674 9674 183
Width: 1118
VWidth: 2048
Flags: W
LayerCount: 2
Fore
SplineSet
950 467 m 1,0,-1
 365 -16 l 1,1,-1
 -18 467 l 1,2,-1
 569 952 l 1,3,-1
 950 467 l 1,0,-1
756 467 m 1,4,-1
 528 758 l 1,5,-1
 174 467 l 1,6,-1
 406 176 l 1,7,-1
 756 467 l 1,4,-1
EndSplineSet
Validated: 1
EndChar

StartChar: fraction
Encoding: 8260 8260 186
Width: 1118
VWidth: 2048
Flags: W
LayerCount: 2
Fore
SplineSet
1122 1257 m 1,0,-1
 10 -41 l 1,1,-1
 -106 47 l 1,2,-1
 1008 1350 l 1,3,-1
 1122 1257 l 1,0,-1
EndSplineSet
Validated: 1
EndChar

StartChar: Euro
Encoding: 8364 8364 187
Width: 1118
VWidth: 2048
Flags: W
LayerCount: 2
Fore
SplineSet
94 907 m 1,0,-1
 266 907 l 1,1,2
 301 995 301 995 349 1072 c 128,-1,3
 397 1149 397 1149 457.5 1206.5 c 128,-1,4
 518 1264 518 1264 590 1295.5 c 128,-1,5
 662 1327 662 1327 745 1327 c 0,6,7
 827 1327 827 1327 884.5 1296.5 c 128,-1,8
 942 1266 942 1266 978 1210.5 c 128,-1,9
 1014 1155 1014 1155 1029 1077 c 128,-1,10
 1044 999 1044 999 1044 903 c 1,11,-1
 854 866 l 1,12,13
 860 1006 860 1006 830.5 1073.5 c 128,-1,14
 801 1141 801 1141 709 1141 c 0,15,16
 629 1141 629 1141 570.5 1073.5 c 128,-1,17
 512 1006 512 1006 471 907 c 1,18,-1
 653 907 l 1,19,-1
 616 733 l 1,20,-1
 416 733 l 1,21,22
 408 713 408 713 403.5 693.5 c 128,-1,23
 399 674 399 674 395 653 c 0,24,25
 391 631 391 631 387 611.5 c 128,-1,26
 383 592 383 592 381 571 c 1,27,-1
 582 571 l 1,28,-1
 545 397 l 1,29,-1
 362 397 l 1,30,31
 360 297 360 297 391 230.5 c 128,-1,32
 422 164 422 164 502 164 c 0,33,34
 592 164 592 164 649.5 231.5 c 128,-1,35
 707 299 707 299 764 436 c 1,36,-1
 938 399 l 1,37,38
 897 303 897 303 849 225 c 128,-1,39
 801 147 801 147 740.5 92 c 128,-1,40
 680 37 680 37 610.5 7 c 128,-1,41
 541 -23 541 -23 459 -23 c 0,42,43
 375 -23 375 -23 316.5 9 c 128,-1,44
 258 41 258 41 221 97.5 c 128,-1,45
 184 154 184 154 169 230.5 c 128,-1,46
 154 307 154 307 158 397 c 1,47,-1
 -14 397 l 1,48,-1
 23 571 l 1,49,-1
 174 571 l 1,50,51
 176 592 176 592 180 611.5 c 128,-1,52
 184 631 184 631 188 653 c 0,53,54
 193 674 193 674 197 693.5 c 128,-1,55
 201 713 201 713 209 733 c 1,56,-1
 57 733 l 1,57,-1
 94 907 l 1,0,-1
EndSplineSet
Validated: 33
EndChar

StartChar: guilsinglleft
Encoding: 8249 8249 188
Width: 1118
VWidth: 2048
Flags: W
LayerCount: 2
Fore
SplineSet
637 444 m 1,0,-1
 492 324 l 1,1,-1
 238 651 l 1,2,-1
 631 981 l 1,3,-1
 725 860 l 1,4,-1
 477 651 l 1,5,-1
 637 444 l 1,0,-1
EndSplineSet
Validated: 1
EndChar

StartChar: guilsinglright
Encoding: 8250 8250 189
Width: 1118
VWidth: 2048
Flags: W
LayerCount: 2
Fore
SplineSet
532 651 m 1,0,-1
 375 860 l 1,1,-1
 518 981 l 1,2,-1
 772 651 l 1,3,-1
 379 324 l 1,4,-1
 287 444 l 1,5,-1
 532 651 l 1,0,-1
EndSplineSet
Validated: 1
EndChar

StartChar: fi
Encoding: 64257 64257 190
Width: 1118
VWidth: 2048
Flags: W
LayerCount: 2
Fore
SplineSet
676 186 m 1,0,-1
 795 745 l 1,1,-1
 442 745 l 1,2,-1
 324 186 l 1,3,-1
 676 186 l 1,0,-1
1040 932 m 1,4,-1
 883 186 l 1,5,-1
 1059 186 l 1,6,-1
 1020 0 l 1,7,-1
 -98 0 l 1,8,-1
 -59 186 l 1,9,-1
 117 186 l 1,10,-1
 236 745 l 1,11,-1
 59 745 l 1,12,-1
 98 932 l 1,13,-1
 274 932 l 1,14,15
 315 1124 315 1124 454.5 1225.5 c 128,-1,16
 594 1327 594 1327 795 1327 c 0,17,18
 825 1327 825 1327 859 1324 c 128,-1,19
 893 1321 893 1321 926 1317 c 1,20,-1
 887 1135 l 1,21,22
 829 1141 829 1141 780 1141 c 0,23,24
 700 1141 700 1141 649 1129.5 c 128,-1,25
 598 1118 598 1118 564 1092.5 c 128,-1,26
 530 1067 530 1067 512 1027 c 128,-1,27
 494 987 494 987 481 932 c 1,28,-1
 1040 932 l 1,4,-1
EndSplineSet
Validated: 1
EndChar

StartChar: fl
Encoding: 64258 64258 191
Width: 1118
VWidth: 2048
Flags: W
LayerCount: 2
Fore
SplineSet
-98 0 m 1,0,-1
 -59 186 l 1,1,-1
 117 186 l 1,2,-1
 236 745 l 1,3,-1
 59 745 l 1,4,-1
 98 932 l 1,5,-1
 274 932 l 1,6,7
 315 1124 315 1124 454.5 1225.5 c 128,-1,8
 594 1327 594 1327 795 1327 c 0,9,10
 891 1327 891 1327 974 1320 c 128,-1,11
 1057 1313 1057 1313 1118 1300 c 1,12,-1
 883 186 l 1,13,-1
 1059 186 l 1,14,-1
 1020 0 l 1,15,-1
 -98 0 l 1,0,-1
877 1135 m 1,16,17
 854 1139 854 1139 828.5 1140 c 128,-1,18
 803 1141 803 1141 780 1141 c 0,19,20
 700 1141 700 1141 649 1129.5 c 128,-1,21
 598 1118 598 1118 564 1092.5 c 128,-1,22
 530 1067 530 1067 512 1027 c 128,-1,23
 494 987 494 987 481 932 c 1,24,-1
 723 932 l 1,25,-1
 684 745 l 1,26,-1
 442 745 l 1,27,-1
 324 186 l 1,28,-1
 676 186 l 1,29,-1
 877 1135 l 1,16,17
EndSplineSet
Validated: 1
EndChar

StartChar: daggerdbl
Encoding: 8225 8225 192
Width: 1118
VWidth: 2048
Flags: W
LayerCount: 2
Fore
SplineSet
766 410 m 1,0,-1
 530 424 l 1,1,-1
 494 186 l 1,2,-1
 322 186 l 1,3,-1
 385 424 l 1,4,-1
 145 410 l 1,5,-1
 182 582 l 1,6,-1
 418 569 l 1,7,-1
 492 922 l 1,8,-1
 252 907 l 1,9,-1
 289 1081 l 1,10,-1
 522 1067 l 1,11,-1
 559 1305 l 1,12,-1
 731 1305 l 1,13,-1
 668 1067 l 1,14,-1
 909 1081 l 1,15,-1
 872 907 l 1,16,-1
 637 922 l 1,17,-1
 563 569 l 1,18,-1
 803 582 l 1,19,-1
 766 410 l 1,0,-1
EndSplineSet
Validated: 1
EndChar

StartChar: periodcentered
Encoding: 183 183 193
Width: 1118
VWidth: 2048
Flags: W
LayerCount: 2
Fore
SplineSet
567 352 m 1,0,-1
 315 352 l 1,1,-1
 369 604 l 1,2,-1
 621 604 l 1,3,-1
 567 352 l 1,0,-1
EndSplineSet
Validated: 1
EndChar

StartChar: quotesinglbase
Encoding: 8218 8218 194
Width: 1118
VWidth: 2048
Flags: W
LayerCount: 2
Fore
SplineSet
514 252 m 1,0,-1
 886 252 l 1,1,-1
 829 -15 l 2,2,3
 815 -84 815 -84 783 -148.5 c 128,-1,4
 751 -213 751 -213 696 -263.5 c 128,-1,5
 641 -314 641 -314 563 -343.5 c 128,-1,6
 485 -373 485 -373 380 -373 c 1,7,-1
 417 -201 l 1,8,9
 536 -201 536 -201 591.5 -150 c 128,-1,10
 647 -99 647 -99 663 -15 c 1,11,-1
 667 0 l 1,12,-1
 460 0 l 1,13,-1
 514 252 l 1,0,-1
EndSplineSet
Validated: 1
EndChar

StartChar: quotedblbase
Encoding: 8222 8222 195
Width: 1118
VWidth: 2048
Flags: W
LayerCount: 2
Fore
SplineSet
514 252 m 1,0,-1
 887 252 l 1,1,-1
 830 -15 l 2,2,3
 815 -84 815 -84 783.5 -148.5 c 128,-1,4
 752 -213 752 -213 696.5 -263.5 c 128,-1,5
 641 -314 641 -314 563.5 -343.5 c 128,-1,6
 486 -373 486 -373 381 -373 c 1,7,-1
 418 -201 l 1,8,9
 537 -201 537 -201 592 -150 c 128,-1,10
 647 -99 647 -99 664 -15 c 1,11,-1
 668 0 l 1,12,-1
 461 0 l 1,13,-1
 514 252 l 1,0,-1
-45 252 m 1,14,-1
 328 252 l 1,15,-1
 271 -15 l 2,16,17
 256 -84 256 -84 224.5 -148.5 c 128,-1,18
 193 -213 193 -213 137.5 -263.5 c 128,-1,19
 82 -314 82 -314 4.5 -343.5 c 128,-1,20
 -73 -373 -73 -373 -178 -373 c 1,21,-1
 -141 -201 l 1,22,23
 -22 -201 -22 -201 33 -150 c 128,-1,24
 88 -99 88 -99 105 -15 c 1,25,-1
 109 0 l 1,26,-1
 -98 0 l 1,27,-1
 -45 252 l 1,14,-1
EndSplineSet
Validated: 1
EndChar

StartChar: perthousand
Encoding: 8240 8240 196
Width: 1118
VWidth: 2048
Flags: W
LayerCount: 2
Fore
SplineSet
866 1274 m 1,0,-1
 14 -39 l 1,1,-1
 -119 27 l 1,2,-1
 731 1343 l 1,3,-1
 866 1274 l 1,0,-1
104 1073 m 0,4,5
 115 1124 115 1124 136.5 1171.5 c 128,-1,6
 158 1219 158 1219 189.5 1252.5 c 128,-1,7
 221 1286 221 1286 263 1306.5 c 128,-1,8
 305 1327 305 1327 358 1327 c 0,9,10
 412 1327 412 1327 445.5 1306.5 c 128,-1,11
 479 1286 479 1286 496.5 1252.5 c 128,-1,12
 514 1219 514 1219 515 1171.5 c 128,-1,13
 516 1124 516 1124 506 1073 c 0,14,15
 494 1020 494 1020 473.5 974 c 128,-1,16
 453 928 453 928 421 894 c 128,-1,17
 389 860 389 860 347 839.5 c 128,-1,18
 305 819 305 819 252 819 c 256,19,20
 199 819 199 819 165 839.5 c 128,-1,21
 131 860 131 860 113.5 894 c 128,-1,22
 96 928 96 928 94 974 c 128,-1,23
 92 1020 92 1020 104 1073 c 0,4,5
254 1075 m 256,24,25
 242 1020 242 1020 251 995.5 c 128,-1,26
 260 971 260 971 283 971 c 0,27,28
 305 971 305 971 325.5 995.5 c 128,-1,29
 346 1020 346 1020 358 1075 c 0,30,31
 371 1130 371 1130 360.5 1155 c 128,-1,32
 350 1180 350 1180 328 1180 c 0,33,34
 305 1180 305 1180 285.5 1155 c 128,-1,35
 266 1130 266 1130 254 1075 c 256,24,25
393 236 m 0,36,37
 381 180 381 180 390 155.5 c 128,-1,38
 399 131 399 131 422 131 c 0,39,40
 444 131 444 131 464.5 155.5 c 128,-1,41
 485 180 485 180 498 236 c 0,42,43
 510 291 510 291 499.5 315.5 c 128,-1,44
 489 340 489 340 467 340 c 0,45,46
 444 340 444 340 425 315.5 c 128,-1,47
 406 291 406 291 393 236 c 0,36,37
815 236 m 0,48,49
 803 180 803 180 812 155.5 c 128,-1,50
 821 131 821 131 844 131 c 0,51,52
 866 131 866 131 886.5 155.5 c 128,-1,53
 907 180 907 180 920 236 c 0,54,55
 932 291 932 291 921.5 315.5 c 128,-1,56
 911 340 911 340 889 340 c 0,57,58
 866 340 866 340 846.5 315.5 c 128,-1,59
 827 291 827 291 815 236 c 0,48,49
244 231 m 0,60,61
 254 283 254 283 275.5 330 c 128,-1,62
 297 377 297 377 328.5 410.5 c 128,-1,63
 360 444 360 444 402 464.5 c 128,-1,64
 444 485 444 485 498 485 c 0,65,66
 551 485 551 485 584.5 464.5 c 128,-1,67
 618 444 618 444 635.5 410.5 c 128,-1,68
 653 377 653 377 654 330 c 128,-1,69
 655 283 655 283 645 231 c 0,70,71
 633 178 633 178 611.5 132 c 128,-1,72
 590 86 590 86 558 52 c 128,-1,73
 526 18 526 18 484 -2.5 c 128,-1,74
 442 -23 442 -23 389 -23 c 256,75,76
 336 -23 336 -23 302 -2.5 c 128,-1,77
 268 18 268 18 250.5 52 c 128,-1,78
 233 86 233 86 232 132 c 128,-1,79
 231 178 231 178 244 231 c 0,60,61
666 231 m 0,80,81
 676 283 676 283 697.5 330 c 128,-1,82
 719 377 719 377 750.5 410.5 c 128,-1,83
 782 444 782 444 824 464.5 c 128,-1,84
 866 485 866 485 920 485 c 0,85,86
 973 485 973 485 1006.5 464.5 c 128,-1,87
 1040 444 1040 444 1057.5 410.5 c 128,-1,88
 1075 377 1075 377 1076 330 c 128,-1,89
 1077 283 1077 283 1067 231 c 0,90,91
 1055 178 1055 178 1033.5 132 c 128,-1,92
 1012 86 1012 86 980 52 c 128,-1,93
 948 18 948 18 906 -2.5 c 128,-1,94
 864 -23 864 -23 811 -23 c 256,95,96
 758 -23 758 -23 724 -2.5 c 128,-1,97
 690 18 690 18 672.5 52 c 128,-1,98
 655 86 655 86 654 132 c 128,-1,99
 653 178 653 178 666 231 c 0,80,81
EndSplineSet
Validated: 33
EndChar

StartChar: apple
Encoding: 63743 63743 208
Width: 1118
VWidth: 2048
Flags: W
LayerCount: 2
Fore
SplineSet
1006 1343 m 1,0,1
 973 1194 973 1194 882 1111 c 128,-1,2
 791 1028 791 1028 672 1018 c 1,3,4
 731 1284 731 1284 1006 1343 c 1,0,1
1106 362 m 1,5,6
 1083 319 1083 319 1041 258 c 128,-1,7
 999 197 999 197 947 140.5 c 128,-1,8
 895 84 895 84 836.5 43 c 128,-1,9
 778 2 778 2 723 2 c 0,10,11
 692 2 692 2 664.5 10 c 128,-1,12
 637 18 637 18 611.5 28.5 c 128,-1,13
 586 39 586 39 557 47 c 128,-1,14
 528 55 528 55 498 55 c 0,15,16
 467 55 467 55 437.5 47 c 128,-1,17
 408 39 408 39 378 27.5 c 128,-1,18
 348 16 348 16 320.5 8 c 128,-1,19
 293 0 293 0 266 0 c 0,20,21
 199 0 199 0 145.5 61.5 c 128,-1,22
 92 123 92 123 61.5 216 c 128,-1,23
 31 309 31 309 22.5 416.5 c 128,-1,24
 14 524 14 524 33 616 c 0,25,26
 49 690 49 690 85 765 c 128,-1,27
 121 840 121 840 172 899 c 128,-1,28
 223 958 223 958 291.5 996 c 128,-1,29
 360 1034 360 1034 444 1034 c 0,30,31
 481 1034 481 1034 514 1027 c 128,-1,32
 547 1020 547 1020 575.5 1010.5 c 128,-1,33
 604 1001 604 1001 631.5 994 c 128,-1,34
 659 987 659 987 688 987 c 0,35,36
 721 987 721 987 753.5 995.5 c 128,-1,37
 786 1004 786 1004 820 1014 c 128,-1,38
 854 1024 854 1024 887 1032 c 128,-1,39
 920 1040 920 1040 954 1040 c 0,40,41
 1102 1040 1102 1040 1184 907 c 1,42,43
 1012 784 1012 784 981 645 c 0,44,45
 973 602 973 602 976 558 c 128,-1,46
 979 514 979 514 994.5 475 c 128,-1,47
 1010 436 1010 436 1038.5 406.5 c 128,-1,48
 1067 377 1067 377 1106 362 c 1,5,6
EndSplineSet
Validated: 33
EndChar

StartChar: dotlessi
Encoding: 305 305 213
Width: 1118
VWidth: 2048
Flags: W
LayerCount: 2
Fore
SplineSet
684 0 m 1,0,-1
 57 0 l 1,1,-1
 96 186 l 1,2,-1
 303 186 l 1,3,-1
 422 745 l 1,4,-1
 215 745 l 1,5,-1
 254 932 l 1,6,-1
 668 932 l 1,7,-1
 510 186 l 1,8,-1
 723 186 l 1,9,-1
 684 0 l 1,0,-1
EndSplineSet
Validated: 1
EndChar

StartChar: circumflex
Encoding: 710 710 214
Width: 1118
VWidth: 2048
Flags: W
LayerCount: 2
Fore
SplineSet
922 1085 m 1,0,-1
 821 983 l 1,1,-1
 623 1188 l 1,2,-1
 332 981 l 1,3,-1
 274 1081 l 1,4,-1
 666 1399 l 1,5,-1
 922 1085 l 1,0,-1
EndSplineSet
Validated: 1
EndChar

StartChar: tilde
Encoding: 732 732 215
Width: 1118
VWidth: 2048
Flags: W
LayerCount: 2
Fore
SplineSet
1040 1245 m 1,0,1
 973 1149 973 1149 893 1094.5 c 128,-1,2
 813 1040 813 1040 721 1040 c 0,3,4
 672 1040 672 1040 641 1058.5 c 128,-1,5
 610 1077 610 1077 584.5 1098.5 c 128,-1,6
 559 1120 559 1120 533.5 1138.5 c 128,-1,7
 508 1157 508 1157 471 1157 c 0,8,9
 420 1157 420 1157 378 1125.5 c 128,-1,10
 336 1094 336 1094 291 1038 c 1,11,-1
 184 1108 l 1,12,13
 252 1202 252 1202 332 1256.5 c 128,-1,14
 412 1311 412 1311 504 1311 c 0,15,16
 553 1311 553 1311 583.5 1292.5 c 128,-1,17
 614 1274 614 1274 640 1252.5 c 128,-1,18
 666 1231 666 1231 691.5 1212.5 c 128,-1,19
 717 1194 717 1194 754 1194 c 0,20,21
 805 1194 805 1194 847 1225.5 c 128,-1,22
 889 1257 889 1257 934 1315 c 1,23,-1
 1040 1245 l 1,0,1
EndSplineSet
Validated: 1
EndChar

StartChar: macron
Encoding: 175 175 216
Width: 1118
VWidth: 2048
Flags: W
LayerCount: 2
Fore
SplineSet
868 1044 m 1,0,-1
 309 1044 l 1,1,-1
 346 1219 l 1,2,-1
 905 1219 l 1,3,-1
 868 1044 l 1,0,-1
EndSplineSet
Validated: 1
EndChar

StartChar: breve
Encoding: 728 728 217
Width: 1118
VWidth: 2048
Flags: W
LayerCount: 2
Fore
SplineSet
944 1167 m 1,0,1
 780 1032 780 1032 588 1032 c 0,2,3
 395 1032 395 1032 289 1167 c 1,4,-1
 434 1286 l 1,5,6
 508 1192 508 1192 621 1192 c 0,7,8
 733 1192 733 1192 848 1286 c 1,9,-1
 944 1167 l 1,0,1
EndSplineSet
Validated: 1
EndChar

StartChar: dotaccent
Encoding: 729 729 218
Width: 1118
VWidth: 2048
Flags: W
LayerCount: 2
Fore
SplineSet
717 1053 m 1,0,-1
 465 1053 l 1,1,-1
 518 1305 l 1,2,-1
 770 1305 l 1,3,-1
 717 1053 l 1,0,-1
EndSplineSet
Validated: 1
EndChar

StartChar: ring
Encoding: 730 730 219
Width: 1118
VWidth: 2048
Flags: W
LayerCount: 2
Fore
SplineSet
410 1257 m 0,0,1
 420 1305 420 1305 445.5 1345.5 c 128,-1,2
 471 1386 471 1386 509 1417 c 128,-1,3
 547 1448 547 1448 591 1465.5 c 128,-1,4
 635 1483 635 1483 682 1483 c 256,5,6
 729 1483 729 1483 767 1465.5 c 128,-1,7
 805 1448 805 1448 828.5 1417 c 128,-1,8
 852 1386 852 1386 861 1345.5 c 128,-1,9
 870 1305 870 1305 860 1257 c 0,10,11
 850 1210 850 1210 824.5 1169 c 128,-1,12
 799 1128 799 1128 761 1097.5 c 128,-1,13
 723 1067 723 1067 679 1049.5 c 128,-1,14
 635 1032 635 1032 588 1032 c 256,15,16
 541 1032 541 1032 503 1049.5 c 128,-1,17
 465 1067 465 1067 441.5 1097.5 c 128,-1,18
 418 1128 418 1128 408.5 1169 c 128,-1,19
 399 1210 399 1210 410 1257 c 0,0,1
543 1257 m 0,20,21
 535 1219 535 1219 555 1192 c 128,-1,22
 575 1165 575 1165 614 1165 c 256,23,24
 653 1165 653 1165 686 1192 c 128,-1,25
 719 1219 719 1219 727 1257 c 0,26,27
 735 1296 735 1296 714.5 1323 c 128,-1,28
 694 1350 694 1350 655 1350 c 256,29,30
 616 1350 616 1350 583.5 1323 c 128,-1,31
 551 1296 551 1296 543 1257 c 0,20,21
EndSplineSet
Validated: 33
EndChar

StartChar: cedilla
Encoding: 184 184 220
Width: 1118
VWidth: 2048
Flags: W
LayerCount: 2
Fore
SplineSet
481 -41 m 1,0,1
 467 -111 467 -111 430 -171 c 128,-1,2
 393 -231 393 -231 339 -275 c 128,-1,3
 285 -319 285 -319 215 -345 c 128,-1,4
 145 -371 145 -371 63 -371 c 1,5,-1
 102 -193 l 1,6,7
 190 -193 190 -193 240.5 -153 c 128,-1,8
 291 -113 291 -113 305 -41 c 2,9,-1
 315 0 l 1,10,-1
 492 0 l 1,11,-1
 481 -41 l 1,0,1
EndSplineSet
Validated: 1
EndChar

StartChar: hungarumlaut
Encoding: 733 733 221
Width: 1118
VWidth: 2048
Flags: W
LayerCount: 2
Fore
SplineSet
817 1024 m 1,0,-1
 645 1024 l 1,1,-1
 866 1399 l 1,2,-1
 1083 1399 l 1,3,-1
 817 1024 l 1,0,-1
444 1024 m 1,4,-1
 274 1024 l 1,5,-1
 494 1399 l 1,6,-1
 711 1399 l 1,7,-1
 444 1024 l 1,4,-1
EndSplineSet
Validated: 1
EndChar

StartChar: ogonek
Encoding: 731 731 222
Width: 1118
VWidth: 2048
Flags: W
LayerCount: 2
Fore
SplineSet
813 -379 m 1,0,1
 678 -379 678 -379 612.5 -319.5 c 128,-1,2
 547 -260 547 -260 571 -141 c 0,3,4
 586 -76 586 -76 631 -24.5 c 128,-1,5
 676 27 676 27 729 55 c 1,6,-1
 782 0 l 1,7,8
 733 -43 733 -43 721 -104 c 0,9,10
 707 -168 707 -168 743.5 -199.5 c 128,-1,11
 780 -231 780 -231 844 -231 c 1,12,-1
 813 -379 l 1,0,1
EndSplineSet
Validated: 33
EndChar

StartChar: caron
Encoding: 711 711 223
Width: 1118
VWidth: 2048
Flags: W
LayerCount: 2
Fore
SplineSet
575 981 m 1,0,-1
 319 1298 l 1,1,-1
 422 1399 l 1,2,-1
 623 1192 l 1,3,-1
 907 1397 l 1,4,-1
 967 1294 l 1,5,-1
 575 981 l 1,0,-1
EndSplineSet
Validated: 1
EndChar

StartChar: quotedbl
Encoding: 34 34 224
Width: 1118
VWidth: 2048
Flags: W
LayerCount: 2
Fore
SplineSet
954 1305 m 1,0,-1
 803 805 l 1,1,-1
 645 805 l 1,2,-1
 707 1305 l 1,3,-1
 954 1305 l 1,0,-1
582 1305 m 1,4,-1
 430 805 l 1,5,-1
 272 805 l 1,6,-1
 334 1305 l 1,7,-1
 582 1305 l 1,4,-1
EndSplineSet
Validated: 1
EndChar

StartChar: exclam
Encoding: 33 33 225
Width: 1118
VWidth: 2048
Flags: W
LayerCount: 2
Fore
SplineSet
780 1305 m 1,0,-1
 530 373 l 1,1,-1
 360 373 l 1,2,-1
 508 1305 l 1,3,-1
 780 1305 l 1,0,-1
494 0 m 1,4,-1
 242 0 l 1,5,-1
 295 252 l 1,6,-1
 547 252 l 1,7,-1
 494 0 l 1,4,-1
EndSplineSet
Validated: 1
EndChar

StartChar: commaaccent
Encoding: 63171 63171 226
Width: 1118
VWidth: 2048
Flags: W
LayerCount: 2
Fore
SplineSet
561 -109 m 1,0,-1
 313 -373 l 1,1,-1
 123 -373 l 1,2,-1
 283 -109 l 1,3,-1
 561 -109 l 1,0,-1
EndSplineSet
Validated: 1
EndChar

StartChar: currency
Encoding: 164 164 227
Width: 1118
VWidth: 2048
Flags: W
LayerCount: 2
Fore
SplineSet
973 938 m 1,0,1
 999 879 999 879 1005.5 807 c 128,-1,2
 1012 735 1012 735 993 651 c 0,3,4
 975 567 975 567 938 495.5 c 128,-1,5
 901 424 901 424 850 365 c 1,6,-1
 944 246 l 1,7,-1
 797 125 l 1,8,-1
 705 244 l 1,9,10
 571 164 571 164 401 164 c 256,11,12
 231 164 231 164 131 244 c 1,13,-1
 -14 125 l 1,14,-1
 -106 246 l 1,15,-1
 35 365 l 1,16,17
 8 424 8 424 3 495.5 c 128,-1,18
 -2 567 -2 567 16 651 c 0,19,20
 51 815 51 815 158 936 c 1,21,-1
 63 1057 l 1,22,-1
 211 1178 l 1,23,-1
 303 1059 l 1,24,25
 440 1141 440 1141 608 1141 c 0,26,27
 692 1141 692 1141 758.5 1119.5 c 128,-1,28
 825 1098 825 1098 877 1059 c 1,29,-1
 1022 1178 l 1,30,-1
 1116 1057 l 1,31,-1
 973 938 l 1,0,1
786 651 m 0,32,33
 801 715 801 715 792.5 771 c 128,-1,34
 784 827 784 827 756.5 867 c 128,-1,35
 729 907 729 907 682 930.5 c 128,-1,36
 635 954 635 954 569 954 c 0,37,38
 504 954 504 954 446.5 930.5 c 128,-1,39
 389 907 389 907 344 867 c 128,-1,40
 299 827 299 827 268.5 771 c 128,-1,41
 238 715 238 715 223 651 c 0,42,43
 209 586 209 586 217 531.5 c 128,-1,44
 225 477 225 477 253 436 c 128,-1,45
 281 395 281 395 328 372.5 c 128,-1,46
 375 350 375 350 440 350 c 0,47,48
 506 350 506 350 563.5 372.5 c 128,-1,49
 621 395 621 395 666 436 c 128,-1,50
 711 477 711 477 741.5 531.5 c 128,-1,51
 772 586 772 586 786 651 c 0,32,33
EndSplineSet
Validated: 33
EndChar

StartChar: brokenbar
Encoding: 166 166 228
Width: 1118
VWidth: 2048
Flags: W
LayerCount: 2
Fore
SplineSet
430 -186 m 1,0,-1
 223 -186 l 1,1,-1
 385 578 l 1,2,-1
 592 578 l 1,3,-1
 430 -186 l 1,0,-1
625 727 m 1,4,-1
 418 727 l 1,5,-1
 580 1491 l 1,6,-1
 786 1491 l 1,7,-1
 625 727 l 1,4,-1
EndSplineSet
Validated: 1
EndChar

StartChar: uni00AD
Encoding: 173 173 229
Width: 1118
VWidth: 2048
Flags: W
LayerCount: 2
Fore
SplineSet
915 385 m 1,0,-1
 -16 385 l 1,1,-1
 22 572 l 1,2,-1
 954 572 l 1,3,-1
 915 385 l 1,0,-1
EndSplineSet
Validated: 1
EndChar

StartChar: twosuperior
Encoding: 178 178 230
Width: 1118
VWidth: 2048
Flags: W
LayerCount: 2
Fore
SplineSet
594 1149 m 0,0,1
 584 1106 584 1106 558 1070 c 128,-1,2
 532 1034 532 1034 496 1006 c 2,3,-1
 328 872 l 1,4,-1
 532 872 l 1,5,-1
 506 745 l 1,6,-1
 102 745 l 1,7,-1
 129 872 l 1,8,-1
 389 1081 l 2,9,10
 410 1098 410 1098 420 1111 c 128,-1,11
 430 1124 430 1124 434 1145 c 0,12,13
 438 1163 438 1163 426 1173.5 c 128,-1,14
 414 1184 414 1184 395 1184 c 0,15,16
 362 1184 362 1184 343 1162.5 c 128,-1,17
 324 1141 324 1141 311 1083 c 1,18,-1
 158 1083 l 1,19,20
 207 1315 207 1315 424 1315 c 0,21,22
 461 1315 461 1315 495.5 1304.5 c 128,-1,23
 530 1294 530 1294 556 1273.5 c 128,-1,24
 582 1253 582 1253 592 1222.5 c 128,-1,25
 602 1192 602 1192 594 1149 c 0,0,1
EndSplineSet
Validated: 33
EndChar

StartChar: threesuperior
Encoding: 179 179 231
Width: 1118
VWidth: 2048
Flags: W
LayerCount: 2
Fore
SplineSet
545 915 m 1,0,1
 528 848 528 848 461.5 795.5 c 128,-1,2
 395 743 395 743 307 743 c 0,3,4
 104 743 104 743 125 940 c 1,5,-1
 281 954 l 1,6,7
 270 870 270 870 332 870 c 0,8,9
 352 870 352 870 369.5 883.5 c 128,-1,10
 387 897 387 897 391 920 c 0,11,12
 399 958 399 958 380.5 973.5 c 128,-1,13
 362 989 362 989 315 989 c 1,14,-1
 336 1087 l 1,15,16
 416 1087 416 1087 428 1143 c 0,17,18
 436 1184 436 1184 391 1184 c 0,19,20
 369 1184 369 1184 349.5 1163.5 c 128,-1,21
 330 1143 330 1143 322 1102 c 1,22,-1
 172 1102 l 1,23,24
 195 1206 195 1206 266 1260 c 0,25,26
 334 1309 334 1309 426 1309 c 0,27,28
 514 1309 514 1309 556 1265 c 128,-1,29
 598 1221 598 1221 584 1151 c 0,30,31
 567 1077 567 1077 498 1042 c 1,32,33
 559 989 559 989 545 915 c 1,0,1
EndSplineSet
Validated: 33
EndChar

StartChar: onesuperior
Encoding: 185 185 232
Width: 1118
VWidth: 2048
Flags: W
LayerCount: 2
Fore
SplineSet
473 745 m 1,0,-1
 135 745 l 1,1,-1
 162 872 l 1,2,-1
 252 872 l 1,3,-1
 301 1106 l 1,4,5
 281 1087 281 1087 237 1067 c 128,-1,6
 193 1047 193 1047 123 1047 c 1,7,-1
 152 1182 l 1,8,9
 178 1182 178 1182 209 1191 c 128,-1,10
 240 1200 240 1200 267.5 1216.5 c 128,-1,11
 295 1233 295 1233 316.5 1255.5 c 128,-1,12
 338 1278 338 1278 344 1305 c 1,13,-1
 502 1305 l 1,14,-1
 410 872 l 1,15,-1
 500 872 l 1,16,-1
 473 745 l 1,0,-1
EndSplineSet
Validated: 1
EndChar

StartChar: onequarter
Encoding: 188 188 233
Width: 1118
VWidth: 2048
Flags: W
LayerCount: 2
Fore
SplineSet
1122 1257 m 1,0,-1
 10 -41 l 1,1,-1
 -106 47 l 1,2,-1
 1008 1350 l 1,3,-1
 1122 1257 l 1,0,-1
473 745 m 1,4,-1
 135 745 l 1,5,-1
 162 872 l 1,6,-1
 252 872 l 1,7,-1
 301 1106 l 1,8,9
 281 1087 281 1087 237 1067 c 128,-1,10
 193 1047 193 1047 123 1047 c 1,11,-1
 152 1182 l 1,12,13
 178 1182 178 1182 209 1191 c 128,-1,14
 240 1200 240 1200 267.5 1216.5 c 128,-1,15
 295 1233 295 1233 316.5 1255.5 c 128,-1,16
 338 1278 338 1278 344 1305 c 1,17,-1
 502 1305 l 1,18,-1
 410 872 l 1,19,-1
 500 872 l 1,20,-1
 473 745 l 1,4,-1
754 0 m 1,21,-1
 598 0 l 1,22,-1
 621 113 l 1,23,-1
 422 113 l 1,24,-1
 455 264 l 1,25,-1
 731 559 l 1,26,-1
 872 559 l 1,27,-1
 805 242 l 1,28,-1
 895 242 l 1,29,-1
 866 113 l 1,30,-1
 776 113 l 1,31,-1
 754 0 l 1,21,-1
649 242 m 1,32,-1
 670 346 l 1,33,-1
 569 242 l 1,34,-1
 649 242 l 1,32,-1
EndSplineSet
Validated: 1
EndChar

StartChar: onehalf
Encoding: 189 189 234
Width: 1118
VWidth: 2048
Flags: W
LayerCount: 2
Fore
SplineSet
930 403 m 0,0,1
 922 360 922 360 895 324.5 c 128,-1,2
 868 289 868 289 831 260 c 2,3,-1
 666 127 l 1,4,-1
 870 127 l 1,5,-1
 844 0 l 1,6,-1
 440 0 l 1,7,-1
 467 127 l 1,8,-1
 725 336 l 2,9,10
 748 352 748 352 758 365.5 c 128,-1,11
 768 379 768 379 772 399 c 0,12,13
 776 418 776 418 764 428 c 128,-1,14
 752 438 752 438 733 438 c 0,15,16
 700 438 700 438 681 416.5 c 128,-1,17
 662 395 662 395 649 338 c 1,18,-1
 496 338 l 1,19,20
 545 569 545 569 762 569 c 0,21,22
 799 569 799 569 832.5 559 c 128,-1,23
 866 549 866 549 892 528.5 c 128,-1,24
 918 508 918 508 929 477 c 128,-1,25
 940 446 940 446 930 403 c 0,0,1
1122 1257 m 1,26,-1
 10 -41 l 1,27,-1
 -106 47 l 1,28,-1
 1008 1350 l 1,29,-1
 1122 1257 l 1,26,-1
473 745 m 1,30,-1
 135 745 l 1,31,-1
 162 872 l 1,32,-1
 252 872 l 1,33,-1
 301 1106 l 1,34,35
 281 1087 281 1087 237 1067 c 128,-1,36
 193 1047 193 1047 123 1047 c 1,37,-1
 152 1182 l 1,38,39
 178 1182 178 1182 209 1191 c 128,-1,40
 240 1200 240 1200 267.5 1216.5 c 128,-1,41
 295 1233 295 1233 316.5 1255.5 c 128,-1,42
 338 1278 338 1278 344 1305 c 1,43,-1
 502 1305 l 1,44,-1
 410 872 l 1,45,-1
 500 872 l 1,46,-1
 473 745 l 1,30,-1
EndSplineSet
Validated: 33
EndChar

StartChar: threequarters
Encoding: 190 190 235
Width: 1118
VWidth: 2048
Flags: W
LayerCount: 2
Fore
SplineSet
545 915 m 1,0,1
 528 848 528 848 461.5 795.5 c 128,-1,2
 395 743 395 743 307 743 c 0,3,4
 104 743 104 743 125 940 c 1,5,-1
 281 954 l 1,6,7
 270 870 270 870 332 870 c 0,8,9
 352 870 352 870 369.5 883.5 c 128,-1,10
 387 897 387 897 391 920 c 0,11,12
 399 958 399 958 380.5 973.5 c 128,-1,13
 362 989 362 989 315 989 c 1,14,-1
 336 1087 l 1,15,16
 416 1087 416 1087 428 1143 c 0,17,18
 436 1184 436 1184 391 1184 c 0,19,20
 369 1184 369 1184 349.5 1163.5 c 128,-1,21
 330 1143 330 1143 322 1102 c 1,22,-1
 172 1102 l 1,23,24
 195 1206 195 1206 266 1260 c 0,25,26
 334 1309 334 1309 426 1309 c 0,27,28
 514 1309 514 1309 556 1265 c 128,-1,29
 598 1221 598 1221 584 1151 c 0,30,31
 567 1077 567 1077 498 1042 c 1,32,33
 559 989 559 989 545 915 c 1,0,1
754 0 m 1,34,-1
 598 0 l 1,35,-1
 621 113 l 1,36,-1
 422 113 l 1,37,-1
 455 264 l 1,38,-1
 731 559 l 1,39,-1
 872 559 l 1,40,-1
 805 242 l 1,41,-1
 895 242 l 1,42,-1
 866 113 l 1,43,-1
 776 113 l 1,44,-1
 754 0 l 1,34,-1
649 242 m 1,45,-1
 670 346 l 1,46,-1
 569 242 l 1,47,-1
 649 242 l 1,45,-1
1122 1257 m 1,48,-1
 10 -41 l 1,49,-1
 -106 47 l 1,50,-1
 1008 1350 l 1,51,-1
 1122 1257 l 1,48,-1
EndSplineSet
Validated: 33
EndChar

StartChar: Eth
Encoding: 208 208 236
Width: 1118
VWidth: 2048
Flags: W
LayerCount: 2
Fore
SplineSet
-55 758 m 1,0,-1
 111 758 l 1,1,-1
 227 1305 l 1,2,-1
 651 1305 l 2,3,4
 784 1305 784 1305 868 1251.5 c 128,-1,5
 952 1198 952 1198 993 1109 c 128,-1,6
 1034 1020 1034 1020 1038 902 c 128,-1,7
 1042 784 1042 784 1014 653 c 0,8,9
 987 522 987 522 934 403.5 c 128,-1,10
 881 285 881 285 802 195.5 c 128,-1,11
 723 106 723 106 616.5 53 c 128,-1,12
 510 0 510 0 375 0 c 2,13,-1
 -49 0 l 1,14,-1
 72 571 l 1,15,-1
 -94 571 l 1,16,-1
 -55 758 l 1,0,-1
807 653 m 0,17,18
 856 879 856 879 805 998.5 c 128,-1,19
 754 1118 754 1118 612 1118 c 2,20,-1
 395 1118 l 1,21,-1
 317 758 l 1,22,-1
 502 758 l 1,23,-1
 463 571 l 1,24,-1
 279 571 l 1,25,-1
 197 186 l 1,26,-1
 414 186 l 2,27,28
 555 186 555 186 657.5 308 c 128,-1,29
 760 430 760 430 807 653 c 0,17,18
EndSplineSet
Validated: 33
EndChar

StartChar: multiply
Encoding: 215 215 237
Width: 1118
VWidth: 2048
Flags: W
LayerCount: 2
Fore
SplineSet
915 748 m 1,0,-1
 588 478 l 1,1,-1
 801 207 l 1,2,-1
 655 88 l 1,3,-1
 444 359 l 1,4,-1
 117 88 l 1,5,-1
 22 207 l 1,6,-1
 348 478 l 1,7,-1
 137 748 l 1,8,-1
 283 867 l 1,9,-1
 496 596 l 1,10,-1
 821 867 l 1,11,-1
 915 748 l 1,0,-1
EndSplineSet
Validated: 1
EndChar

StartChar: Thorn
Encoding: 222 222 239
Width: 1118
VWidth: 2048
Flags: W
LayerCount: 2
Fore
SplineSet
973 664 m 0,0,1
 932 467 932 467 792.5 373 c 128,-1,2
 653 279 653 279 440 279 c 2,3,-1
 215 279 l 1,4,-1
 158 0 l 1,5,-1
 -49 0 l 1,6,-1
 227 1305 l 1,7,-1
 434 1305 l 1,8,-1
 379 1049 l 1,9,-1
 602 1049 l 2,10,11
 817 1049 817 1049 915.5 952.5 c 128,-1,12
 1014 856 1014 856 973 664 c 0,0,1
768 664 m 0,13,14
 791 764 791 764 734.5 813 c 128,-1,15
 678 862 678 862 565 862 c 2,16,-1
 340 862 l 1,17,-1
 256 465 l 1,18,-1
 481 465 l 2,19,20
 594 465 594 465 671 513 c 128,-1,21
 748 561 748 561 768 664 c 0,13,14
EndSplineSet
Validated: 33
EndChar

StartChar: eth
Encoding: 240 240 240
Width: 1118
VWidth: 2048
Flags: W
LayerCount: 2
Fore
SplineSet
342 977 m 1,0,-1
 475 1087 l 1,1,2
 444 1104 444 1104 412.5 1118.5 c 128,-1,3
 381 1133 381 1133 346 1147 c 1,4,-1
 446 1327 l 1,5,6
 500 1305 500 1305 549 1280 c 128,-1,7
 598 1255 598 1255 645 1227 c 1,8,-1
 821 1372 l 1,9,-1
 913 1251 l 1,10,-1
 774 1137 l 1,11,12
 834 1085 834 1085 879 1024 c 128,-1,13
 924 963 924 963 950.5 889 c 128,-1,14
 977 815 977 815 982 728 c 128,-1,15
 987 641 987 641 965 537 c 0,16,17
 938 408 938 408 879.5 304.5 c 128,-1,18
 821 201 821 201 738 128 c 128,-1,19
 655 55 655 55 550.5 16 c 128,-1,20
 446 -23 446 -23 326 -23 c 0,21,22
 121 -23 121 -23 18.5 73.5 c 128,-1,23
 -84 170 -84 170 -45 354 c 0,24,25
 -23 457 -23 457 43 537.5 c 128,-1,26
 109 618 109 618 210 679.5 c 128,-1,27
 311 741 311 741 445.5 783 c 128,-1,28
 580 825 580 825 739 850 c 1,29,30
 696 938 696 938 614 1004 c 1,31,-1
 434 856 l 1,32,-1
 342 977 l 1,0,-1
758 537 m 0,33,34
 774 608 774 608 774 670 c 1,35,36
 514 647 514 647 352 565 c 128,-1,37
 190 483 190 483 162 354 c 0,38,39
 143 262 143 262 197.5 213 c 128,-1,40
 252 164 252 164 367 164 c 0,41,42
 506 164 506 164 612.5 260 c 128,-1,43
 719 356 719 356 758 537 c 0,33,34
EndSplineSet
Validated: 33
EndChar

StartChar: thorn
Encoding: 254 254 242
Width: 1118
VWidth: 2048
Flags: W
LayerCount: 2
Fore
SplineSet
227 1305 m 1,0,-1
 434 1305 l 1,1,-1
 336 848 l 1,2,3
 408 901 408 901 474.5 927.5 c 128,-1,4
 541 954 541 954 618 954 c 0,5,6
 709 954 709 954 777.5 917.5 c 128,-1,7
 846 881 846 881 888 816.5 c 128,-1,8
 930 752 930 752 942 661.5 c 128,-1,9
 954 571 954 571 932 465 c 0,10,11
 909 358 909 358 858 268 c 128,-1,12
 807 178 807 178 738.5 113.5 c 128,-1,13
 670 49 670 49 585 13 c 128,-1,14
 500 -23 500 -23 410 -23 c 0,15,16
 332 -23 332 -23 277.5 5 c 128,-1,17
 223 33 223 33 174 86 c 1,18,-1
 78 -373 l 1,19,-1
 -127 -373 l 1,20,-1
 227 1305 l 1,0,-1
209 248 m 1,21,22
 238 207 238 207 291 185.5 c 128,-1,23
 344 164 344 164 397 164 c 0,24,25
 514 164 514 164 605 247 c 128,-1,26
 696 330 696 330 725 465 c 256,27,28
 754 600 754 600 697.5 684 c 128,-1,29
 641 768 641 768 524 768 c 0,30,31
 471 768 471 768 409.5 746.5 c 128,-1,32
 348 725 348 725 301 684 c 1,33,-1
 209 248 l 1,21,22
EndSplineSet
Validated: 33
EndChar

StartChar: Aogonek
Encoding: 260 260 247
Width: 1118
VWidth: 2048
Flags: W
LayerCount: 2
Fore
SplineSet
926 -379 m 1,0,1
 791 -379 791 -379 725 -319.5 c 128,-1,2
 659 -260 659 -260 684 -141 c 0,3,4
 692 -100 692 -100 714.5 -64.5 c 128,-1,5
 737 -29 737 -29 768 0 c 1,6,-1
 678 0 l 1,7,-1
 649 311 l 1,8,-1
 217 311 l 1,9,-1
 59 0 l 1,10,-1
 -158 0 l 1,11,-1
 526 1305 l 1,12,-1
 764 1305 l 1,13,-1
 895 0 l 1,14,15
 846 -43 846 -43 834 -104 c 0,16,17
 819 -168 819 -168 856 -199.5 c 128,-1,18
 893 -231 893 -231 956 -231 c 1,19,-1
 926 -379 l 1,0,1
311 494 m 1,20,-1
 633 494 l 1,21,-1
 588 1032 l 1,22,-1
 311 494 l 1,20,-1
EndSplineSet
Validated: 33
EndChar

StartChar: aogonek
Encoding: 261 261 248
Width: 1118
VWidth: 2048
Flags: W
LayerCount: 2
Fore
SplineSet
578 0 m 1,0,-1
 606 137 l 1,1,2
 541 61 541 61 436.5 19 c 128,-1,3
 332 -23 332 -23 221 -23 c 0,4,5
 154 -23 154 -23 97.5 -4.5 c 128,-1,6
 41 14 41 14 5 51 c 128,-1,7
 -31 88 -31 88 -46 142.5 c 128,-1,8
 -61 197 -61 197 -47 268 c 0,9,10
 -29 350 -29 350 28.5 411.5 c 128,-1,11
 86 473 86 473 166 514 c 128,-1,12
 246 555 246 555 342 575.5 c 128,-1,13
 438 596 438 596 535 596 c 0,14,15
 588 596 588 596 626 594 c 128,-1,16
 664 592 664 592 702 588 c 1,17,-1
 709 625 l 2,18,19
 725 698 725 698 676 734 c 128,-1,20
 627 770 627 770 535 770 c 0,21,22
 451 770 451 770 359.5 746.5 c 128,-1,23
 268 723 268 723 180 678 c 1,24,-1
 131 840 l 1,25,26
 233 893 233 893 346 923.5 c 128,-1,27
 459 954 459 954 575 954 c 0,28,29
 651 954 651 954 721 937 c 128,-1,30
 791 920 791 920 841 881 c 128,-1,31
 891 842 891 842 912.5 779.5 c 128,-1,32
 934 717 934 717 913 625 c 2,33,-1
 782 0 l 1,34,35
 733 -43 733 -43 721 -104 c 0,36,37
 707 -168 707 -168 743.5 -199.5 c 128,-1,38
 780 -231 780 -231 844 -231 c 1,39,-1
 813 -379 l 1,40,41
 678 -379 678 -379 612.5 -319.5 c 128,-1,42
 547 -260 547 -260 571 -141 c 0,43,44
 580 -100 580 -100 602.5 -64.5 c 128,-1,45
 625 -29 625 -29 655 0 c 1,46,-1
 578 0 l 1,0,-1
313 162 m 0,47,48
 375 162 375 162 431 177.5 c 128,-1,49
 487 193 487 193 534.5 220.5 c 128,-1,50
 582 248 582 248 613.5 287 c 128,-1,51
 645 326 645 326 655 373 c 2,52,-1
 664 408 l 1,53,54
 616 416 616 416 573 417 c 128,-1,55
 530 418 530 418 498 418 c 0,56,57
 346 418 346 418 260 378 c 128,-1,58
 174 338 174 338 160 279 c 0,59,60
 135 162 135 162 313 162 c 0,47,48
EndSplineSet
Validated: 33
EndChar

StartChar: dcaron
Encoding: 271 271 258
Width: 1118
VWidth: 2048
Flags: W
LayerCount: 2
Fore
SplineSet
668 0 m 1,0,-1
 461 0 l 1,1,-1
 477 86 l 1,2,3
 416 33 416 33 356.5 5 c 128,-1,4
 297 -23 297 -23 231 -23 c 0,5,6
 154 -23 154 -23 97.5 13 c 128,-1,7
 41 49 41 49 6 113.5 c 128,-1,8
 -29 178 -29 178 -36 268 c 128,-1,9
 -43 358 -43 358 -20 465 c 0,10,11
 2 571 2 571 48 661.5 c 128,-1,12
 94 752 94 752 155.5 816.5 c 128,-1,13
 217 881 217 881 289.5 917.5 c 128,-1,14
 362 954 362 954 440 954 c 0,15,16
 506 954 506 954 553 927.5 c 128,-1,17
 600 901 600 901 639 848 c 1,18,-1
 698 1118 l 1,19,-1
 512 1118 l 1,20,-1
 551 1305 l 1,21,-1
 944 1305 l 1,22,-1
 668 0 l 1,0,-1
604 684 m 1,23,24
 586 725 586 725 544 746.5 c 128,-1,25
 502 768 502 768 459 768 c 0,26,27
 367 768 367 768 291 684 c 128,-1,28
 215 600 215 600 186 465 c 0,29,30
 158 330 158 330 199 247 c 128,-1,31
 240 164 240 164 332 164 c 0,32,33
 375 164 375 164 425 185.5 c 128,-1,34
 475 207 475 207 512 248 c 1,35,-1
 604 684 l 1,23,24
1294 1304 m 1,36,-1
 1094 747 l 1,37,-1
 932 747 l 1,38,-1
 1049 1304 l 1,39,-1
 1294 1304 l 1,36,-1
EndSplineSet
Validated: 33
EndChar

StartChar: dcroat
Encoding: 273 273 260
Width: 1118
VWidth: 2048
Flags: W
LayerCount: 2
Fore
SplineSet
1165 989 m 1,0,-1
 993 989 l 1,1,-1
 784 0 l 1,2,-1
 578 0 l 1,3,-1
 594 86 l 1,4,5
 524 33 524 33 456.5 5 c 128,-1,6
 389 -23 389 -23 311 -23 c 0,7,8
 221 -23 221 -23 152.5 13 c 128,-1,9
 84 49 84 49 42 113.5 c 128,-1,10
 0 178 0 178 -12.5 268 c 128,-1,11
 -25 358 -25 358 -2 465 c 0,12,13
 20 571 20 571 71.5 661.5 c 128,-1,14
 123 752 123 752 191.5 816.5 c 128,-1,15
 260 881 260 881 345 917.5 c 128,-1,16
 430 954 430 954 520 954 c 0,17,18
 598 954 598 954 653.5 927.5 c 128,-1,19
 709 901 709 901 756 848 c 1,20,-1
 786 989 l 1,21,-1
 606 989 l 1,22,-1
 643 1163 l 1,23,-1
 823 1163 l 1,24,-1
 854 1305 l 1,25,-1
 1061 1305 l 1,26,-1
 1030 1163 l 1,27,-1
 1202 1163 l 1,28,-1
 1165 989 l 1,0,-1
721 684 m 1,29,30
 694 725 694 725 640 746.5 c 128,-1,31
 586 768 586 768 532 768 c 0,32,33
 416 768 416 768 324.5 684 c 128,-1,34
 233 600 233 600 205 465 c 0,35,36
 176 330 176 330 232.5 247 c 128,-1,37
 289 164 289 164 406 164 c 0,38,39
 459 164 459 164 521.5 185.5 c 128,-1,40
 584 207 584 207 629 248 c 1,41,-1
 721 684 l 1,29,30
EndSplineSet
Validated: 33
EndChar

StartChar: Eogonek
Encoding: 280 280 267
Width: 1118
VWidth: 2048
Flags: W
LayerCount: 2
Fore
SplineSet
815 -379 m 1,0,1
 680 -379 680 -379 614.5 -319.5 c 128,-1,2
 549 -260 549 -260 573 -141 c 0,3,4
 582 -100 582 -100 604.5 -64.5 c 128,-1,5
 627 -29 627 -29 657 0 c 1,6,-1
 -49 0 l 1,7,-1
 227 1305 l 1,8,-1
 1061 1305 l 1,9,-1
 1022 1118 l 1,10,-1
 395 1118 l 1,11,-1
 317 758 l 1,12,-1
 807 758 l 1,13,-1
 768 571 l 1,14,-1
 279 571 l 1,15,-1
 197 186 l 1,16,-1
 823 186 l 1,17,-1
 784 0 l 1,18,19
 735 -43 735 -43 723 -104 c 0,20,21
 709 -168 709 -168 745.5 -199.5 c 128,-1,22
 782 -231 782 -231 846 -231 c 1,23,-1
 815 -379 l 1,0,1
EndSplineSet
Validated: 33
EndChar

StartChar: eogonek
Encoding: 281 281 268
Width: 1118
VWidth: 2048
Flags: W
LayerCount: 2
Fore
SplineSet
604 -379 m 1,0,1
 469 -379 469 -379 403.5 -319.5 c 128,-1,2
 338 -260 338 -260 362 -141 c 0,3,4
 369 -106 369 -106 386 -76.5 c 128,-1,5
 403 -47 403 -47 424 -20 c 1,6,7
 414 -23 414 -23 403.5 -23 c 128,-1,8
 393 -23 393 -23 383 -23 c 0,9,10
 274 -23 274 -23 189 13 c 128,-1,11
 104 49 104 49 50 113.5 c 128,-1,12
 -4 178 -4 178 -24.5 267 c 128,-1,13
 -45 356 -45 356 -20 465 c 0,14,15
 2 571 2 571 56.5 660.5 c 128,-1,16
 111 750 111 750 189.5 815.5 c 128,-1,17
 268 881 268 881 366.5 917.5 c 128,-1,18
 465 954 465 954 573 954 c 0,19,20
 686 954 686 954 769 915.5 c 128,-1,21
 852 877 852 877 902 804 c 128,-1,22
 952 731 952 731 966.5 625.5 c 128,-1,23
 981 520 981 520 954 387 c 1,24,-1
 174 387 l 1,25,26
 168 291 168 291 231.5 227.5 c 128,-1,27
 295 164 295 164 424 164 c 0,28,29
 524 164 524 164 605 195.5 c 128,-1,30
 686 227 686 227 750 279 c 1,31,-1
 825 133 l 1,32,33
 762 80 762 80 698.5 48 c 128,-1,34
 635 16 635 16 573 0 c 1,35,36
 524 -43 524 -43 512 -104 c 0,37,38
 498 -168 498 -168 534.5 -199.5 c 128,-1,39
 571 -231 571 -231 635 -231 c 1,40,-1
 604 -379 l 1,0,1
760 569 m 1,41,42
 762 659 762 659 696.5 713.5 c 128,-1,43
 631 768 631 768 532 768 c 0,44,45
 434 768 434 768 345 713.5 c 128,-1,46
 256 659 256 659 221 569 c 1,47,-1
 760 569 l 1,41,42
EndSplineSet
Validated: 33
EndChar

StartChar: gcommaaccent
Encoding: 291 291 278
Width: 1118
VWidth: 2048
Flags: W
LayerCount: 2
Fore
SplineSet
508 1118 m 1,0,-1
 758 1491 l 1,1,-1
 915 1491 l 1,2,-1
 754 1118 l 1,3,-1
 508 1118 l 1,0,-1
786 10 m 2,4,5
 766 -86 766 -86 717 -161 c 128,-1,6
 668 -236 668 -236 597 -288 c 128,-1,7
 526 -340 526 -340 439 -367.5 c 128,-1,8
 352 -395 352 -395 254 -395 c 0,9,10
 10 -395 10 -395 -127 -248 c 1,11,-1
 2 -88 l 1,12,13
 121 -211 121 -211 295 -211 c 0,14,15
 401 -211 401 -211 477 -158.5 c 128,-1,16
 553 -106 553 -106 578 6 c 2,17,-1
 600 106 l 1,18,19
 524 51 524 51 458.5 24.5 c 128,-1,20
 393 -2 393 -2 315 -2 c 0,21,22
 225 -2 225 -2 156.5 36 c 128,-1,23
 88 74 88 74 47 139.5 c 128,-1,24
 6 205 6 205 -7 292 c 128,-1,25
 -20 379 -20 379 0 477 c 256,26,27
 20 575 20 575 70.5 662.5 c 128,-1,28
 121 750 121 750 190.5 814.5 c 128,-1,29
 260 879 260 879 345 916.5 c 128,-1,30
 430 954 430 954 520 954 c 0,31,32
 598 954 598 954 653.5 927.5 c 128,-1,33
 709 901 709 901 756 848 c 1,34,-1
 774 932 l 1,35,-1
 981 932 l 1,36,-1
 786 10 l 2,4,5
721 684 m 1,37,38
 694 725 694 725 640 746.5 c 128,-1,39
 586 768 586 768 530 768 c 0,40,41
 414 768 414 768 323.5 686 c 128,-1,42
 233 604 233 604 207 477 c 0,43,44
 193 414 193 414 201 360.5 c 128,-1,45
 209 307 209 307 235.5 268 c 128,-1,46
 262 229 262 229 306 206.5 c 128,-1,47
 350 184 350 184 408 184 c 0,48,49
 463 184 463 184 525.5 206.5 c 128,-1,50
 588 229 588 229 635 270 c 1,51,-1
 721 684 l 1,37,38
EndSplineSet
Validated: 33
EndChar

StartChar: Hbar
Encoding: 294 294 281
Width: 1118
VWidth: 2048
Flags: W
LayerCount: 2
Fore
SplineSet
1022 1118 m 1,0,-1
 1208 1118 l 1,1,-1
 1169 944 l 1,2,-1
 983 944 l 1,3,-1
 784 0 l 1,4,-1
 578 0 l 1,5,-1
 698 571 l 1,6,-1
 279 571 l 1,7,-1
 158 0 l 1,8,-1
 -49 0 l 1,9,-1
 150 944 l 1,10,-1
 -37 944 l 1,11,-1
 2 1118 l 1,12,-1
 188 1118 l 1,13,-1
 227 1305 l 1,14,-1
 434 1305 l 1,15,-1
 395 1118 l 1,16,-1
 815 1118 l 1,17,-1
 854 1305 l 1,18,-1
 1061 1305 l 1,19,-1
 1022 1118 l 1,0,-1
737 758 m 1,20,-1
 776 944 l 1,21,-1
 356 944 l 1,22,-1
 317 758 l 1,23,-1
 737 758 l 1,20,-1
EndSplineSet
Validated: 1
EndChar

StartChar: hbar
Encoding: 295 295 282
Width: 1118
VWidth: 2048
Flags: W
LayerCount: 2
Fore
SplineSet
784 0 m 1,0,-1
 578 0 l 1,1,-1
 698 575 l 2,2,3
 721 684 721 684 689 726 c 128,-1,4
 657 768 657 768 580 768 c 0,5,6
 465 768 465 768 373 675 c 128,-1,7
 281 582 281 582 246 418 c 2,8,-1
 158 0 l 1,9,-1
 -49 0 l 1,10,-1
 160 989 l 1,11,-1
 -12 989 l 1,12,-1
 25 1163 l 1,13,-1
 197 1163 l 1,14,-1
 227 1305 l 1,15,-1
 434 1305 l 1,16,-1
 403 1163 l 1,17,-1
 584 1163 l 1,18,-1
 547 989 l 1,19,-1
 367 989 l 1,20,-1
 305 698 l 1,21,22
 362 819 362 819 460.5 886.5 c 128,-1,23
 559 954 559 954 682 954 c 0,24,25
 825 954 825 954 885.5 861 c 128,-1,26
 946 768 946 768 905 575 c 2,27,-1
 784 0 l 1,0,-1
EndSplineSet
Validated: 33
EndChar

StartChar: Iogonek
Encoding: 302 302 289
Width: 1118
VWidth: 2048
Flags: W
LayerCount: 2
Fore
SplineSet
715 -379 m 1,0,1
 580 -379 580 -379 514.5 -319.5 c 128,-1,2
 449 -260 449 -260 473 -141 c 0,3,4
 481 -100 481 -100 503.5 -64.5 c 128,-1,5
 526 -29 526 -29 557 0 c 1,6,-1
 57 0 l 1,7,-1
 96 186 l 1,8,-1
 303 186 l 1,9,-1
 502 1118 l 1,10,-1
 295 1118 l 1,11,-1
 334 1305 l 1,12,-1
 961 1305 l 1,13,-1
 922 1118 l 1,14,-1
 709 1118 l 1,15,-1
 510 186 l 1,16,-1
 723 186 l 1,17,-1
 684 0 l 1,18,19
 635 -43 635 -43 623 -104 c 0,20,21
 608 -168 608 -168 645 -199.5 c 128,-1,22
 682 -231 682 -231 745 -231 c 1,23,-1
 715 -379 l 1,0,1
EndSplineSet
Validated: 33
EndChar

StartChar: iogonek
Encoding: 303 303 290
Width: 1118
VWidth: 2048
Flags: W
LayerCount: 2
Fore
SplineSet
715 -379 m 1,0,1
 580 -379 580 -379 514.5 -319.5 c 128,-1,2
 449 -260 449 -260 473 -141 c 0,3,4
 481 -100 481 -100 503.5 -64.5 c 128,-1,5
 526 -29 526 -29 557 0 c 1,6,-1
 57 0 l 1,7,-1
 96 186 l 1,8,-1
 303 186 l 1,9,-1
 422 745 l 1,10,-1
 215 745 l 1,11,-1
 254 932 l 1,12,-1
 668 932 l 1,13,-1
 510 186 l 1,14,-1
 723 186 l 1,15,-1
 684 0 l 1,16,17
 635 -43 635 -43 623 -104 c 0,18,19
 608 -168 608 -168 645 -199.5 c 128,-1,20
 682 -231 682 -231 745 -231 c 1,21,-1
 715 -379 l 1,0,1
717 1053 m 1,22,-1
 465 1053 l 1,23,-1
 518 1305 l 1,24,-1
 770 1305 l 1,25,-1
 717 1053 l 1,22,-1
EndSplineSet
Validated: 33
EndChar

StartChar: IJ
Encoding: 306 306 292
Width: 1118
VWidth: 2048
Flags: W
LayerCount: 2
Fore
SplineSet
213 -135 m 1,0,1
 268 -209 268 -209 381 -209 c 0,2,3
 449 -209 449 -209 498 -181.5 c 128,-1,4
 547 -154 547 -154 580.5 -107.5 c 128,-1,5
 614 -61 614 -61 636.5 -1 c 128,-1,6
 659 59 659 59 672 125 c 2,7,-1
 924 1305 l 1,8,-1
 1130 1305 l 1,9,-1
 879 125 l 2,10,11
 827 -123 827 -123 692 -259 c 128,-1,12
 557 -395 557 -395 340 -395 c 0,13,14
 156 -395 156 -395 55 -291 c 1,15,-1
 213 -135 l 1,0,1
498 0 m 1,16,-1
 -129 0 l 1,17,-1
 -90 186 l 1,18,-1
 117 186 l 1,19,-1
 316 1118 l 1,20,-1
 109 1118 l 1,21,-1
 148 1305 l 1,22,-1
 775 1305 l 1,23,-1
 736 1118 l 1,24,-1
 523 1118 l 1,25,-1
 324 186 l 1,26,-1
 537 186 l 1,27,-1
 498 0 l 1,16,-1
EndSplineSet
Validated: 1
EndChar

StartChar: jcircumflex
Encoding: 309 309 295
Width: 1118
VWidth: 2048
Flags: W
LayerCount: 2
Fore
SplineSet
160 -395 m 0,0,1
 -53 -395 -53 -395 -147 -236 c 1,2,-1
 2 -98 l 1,3,4
 39 -154 39 -154 86 -181.5 c 128,-1,5
 133 -209 133 -209 201 -209 c 0,6,7
 305 -209 305 -209 367.5 -151.5 c 128,-1,8
 430 -94 430 -94 451 0 c 2,9,-1
 608 745 l 1,10,-1
 397 745 l 1,11,-1
 436 932 l 1,12,-1
 854 932 l 1,13,-1
 657 0 l 2,14,15
 637 -90 637 -90 592 -163 c 128,-1,16
 547 -236 547 -236 481.5 -288 c 128,-1,17
 416 -340 416 -340 334 -367.5 c 128,-1,18
 252 -395 252 -395 160 -395 c 0,0,1
1014 1085 m 1,19,-1
 913 983 l 1,20,-1
 715 1188 l 1,21,-1
 424 981 l 1,22,-1
 366 1081 l 1,23,-1
 758 1399 l 1,24,-1
 1014 1085 l 1,19,-1
EndSplineSet
Validated: 1
EndChar

StartChar: kgreenlandic
Encoding: 312 312 298
Width: 1118
VWidth: 2048
Flags: W
LayerCount: 2
Fore
SplineSet
831 0 m 1,0,-1
 563 0 l 1,1,-1
 332 377 l 1,2,-1
 217 281 l 1,3,-1
 158 0 l 1,4,-1
 -49 0 l 1,5,-1
 147 932 l 1,6,-1
 354 932 l 1,7,-1
 270 537 l 1,8,-1
 727 932 l 1,9,-1
 1012 932 l 1,10,-1
 492 504 l 1,11,-1
 831 0 l 1,0,-1
EndSplineSet
Validated: 1
EndChar

StartChar: Lslash
Encoding: 321 321 307
Width: 1118
VWidth: 2048
Flags: W
LayerCount: 2
Fore
SplineSet
784 0 m 1,0,-1
 -49 0 l 1,1,-1
 59 520 l 1,2,-1
 -123 463 l 1,3,-1
 -86 651 l 1,4,-1
 100 709 l 1,5,-1
 227 1305 l 1,6,-1
 434 1305 l 1,7,-1
 322 776 l 1,8,-1
 512 838 l 1,9,-1
 473 649 l 1,10,-1
 283 588 l 1,11,-1
 197 186 l 1,12,-1
 823 186 l 1,13,-1
 784 0 l 1,0,-1
EndSplineSet
Validated: 1
EndChar

StartChar: lslash
Encoding: 322 322 308
Width: 1118
VWidth: 2048
Flags: W
LayerCount: 2
Fore
SplineSet
686 0 m 1,0,-1
 59 0 l 1,1,-1
 98 186 l 1,2,-1
 303 186 l 1,3,-1
 373 520 l 1,4,-1
 182 461 l 1,5,-1
 223 649 l 1,6,-1
 414 709 l 1,7,-1
 502 1118 l 1,8,-1
 297 1118 l 1,9,-1
 336 1305 l 1,10,-1
 748 1305 l 1,11,-1
 635 776 l 1,12,-1
 821 836 l 1,13,-1
 782 647 l 1,14,-1
 596 588 l 1,15,-1
 510 186 l 1,16,-1
 725 186 l 1,17,-1
 686 0 l 1,0,-1
EndSplineSet
Validated: 1
EndChar

StartChar: Eng
Encoding: 330 330 316
Width: 1118
VWidth: 2048
Flags: W
LayerCount: 2
Fore
SplineSet
809 125 m 2,0,1
 758 -123 758 -123 622.5 -259 c 128,-1,2
 487 -395 487 -395 270 -395 c 0,3,4
 86 -395 86 -395 -14 -291 c 1,5,-1
 143 -135 l 1,6,7
 199 -209 199 -209 311 -209 c 0,8,9
 399 -209 399 -209 456.5 -161 c 128,-1,10
 514 -113 514 -113 549 -41 c 1,11,-1
 358 946 l 1,12,-1
 158 0 l 1,13,-1
 -49 0 l 1,14,-1
 227 1305 l 1,15,-1
 487 1305 l 1,16,-1
 664 406 l 1,17,-1
 854 1305 l 1,18,-1
 1061 1305 l 1,19,-1
 809 125 l 2,0,1
EndSplineSet
Validated: 1
EndChar

StartChar: eng
Encoding: 331 331 317
Width: 1118
VWidth: 2048
Flags: W
LayerCount: 2
Fore
SplineSet
195 -164 m 1,0,1
 250 -209 250 -209 328 -209 c 0,2,3
 432 -209 432 -209 494.5 -151.5 c 128,-1,4
 557 -94 557 -94 578 0 c 2,5,-1
 698 575 l 2,6,7
 721 684 721 684 689 726 c 128,-1,8
 657 768 657 768 580 768 c 0,9,10
 465 768 465 768 373 675 c 128,-1,11
 281 582 281 582 246 418 c 2,12,-1
 158 0 l 1,13,-1
 -49 0 l 1,14,-1
 147 932 l 1,15,-1
 354 932 l 1,16,-1
 305 698 l 1,17,18
 362 819 362 819 460.5 886.5 c 128,-1,19
 559 954 559 954 682 954 c 0,20,21
 825 954 825 954 885.5 861 c 128,-1,22
 946 768 946 768 905 575 c 2,23,-1
 784 0 l 2,24,25
 764 -90 764 -90 719 -163 c 128,-1,26
 674 -236 674 -236 608.5 -288 c 128,-1,27
 543 -340 543 -340 461 -367.5 c 128,-1,28
 379 -395 379 -395 287 -395 c 0,29,30
 160 -395 160 -395 74 -338 c 1,31,-1
 195 -164 l 1,0,1
EndSplineSet
Validated: 33
EndChar

StartChar: Scedilla
Encoding: 350 350 334
Width: 1118
VWidth: 2048
Flags: W
LayerCount: 2
Fore
SplineSet
877 358 m 0,0,1
 860 281 860 281 822 217.5 c 128,-1,2
 784 154 784 154 733 105.5 c 128,-1,3
 682 57 682 57 619.5 27.5 c 128,-1,4
 557 -2 557 -2 487 -14 c 1,5,-1
 481 -41 l 2,6,7
 467 -111 467 -111 430 -171 c 128,-1,8
 393 -231 393 -231 339 -275 c 128,-1,9
 285 -319 285 -319 215 -345 c 128,-1,10
 145 -371 145 -371 63 -371 c 1,11,-1
 102 -193 l 1,12,13
 190 -193 190 -193 240.5 -153 c 128,-1,14
 291 -113 291 -113 305 -41 c 2,15,-1
 311 -14 l 1,16,17
 195 10 195 10 139 119 c 1,18,-1
 115 0 l 1,19,-1
 -72 0 l 1,20,-1
 18 426 l 1,21,-1
 205 426 l 1,22,23
 190 362 190 362 202.5 313 c 128,-1,24
 215 264 215 264 244.5 230.5 c 128,-1,25
 274 197 274 197 319.5 179.5 c 128,-1,26
 365 162 365 162 420 162 c 0,27,28
 512 162 512 162 578.5 205 c 128,-1,29
 645 248 645 248 666 342 c 0,30,31
 676 391 676 391 665.5 426 c 128,-1,32
 655 461 655 461 628.5 488.5 c 128,-1,33
 602 516 602 516 559 536.5 c 128,-1,34
 516 557 516 557 463 580 c 1,35,36
 395 604 395 604 330.5 634 c 128,-1,37
 266 664 266 664 220 708 c 128,-1,38
 174 752 174 752 152.5 816.5 c 128,-1,39
 131 881 131 881 152 979 c 0,40,41
 170 1065 170 1065 215 1129.5 c 128,-1,42
 260 1194 260 1194 322.5 1238 c 128,-1,43
 385 1282 385 1282 458.5 1304.5 c 128,-1,44
 532 1327 532 1327 610 1327 c 0,45,46
 700 1327 700 1327 756.5 1289 c 128,-1,47
 813 1251 813 1251 836 1188 c 1,48,-1
 860 1305 l 1,49,-1
 1047 1305 l 1,50,-1
 961 899 l 1,51,-1
 774 899 l 1,52,53
 799 1014 799 1014 752 1078.5 c 128,-1,54
 705 1143 705 1143 602 1143 c 0,55,56
 512 1143 512 1143 443.5 1101 c 128,-1,57
 375 1059 375 1059 360 983 c 0,58,59
 350 944 350 944 360.5 916.5 c 128,-1,60
 371 889 371 889 395.5 866.5 c 128,-1,61
 420 844 420 844 461 824.5 c 128,-1,62
 502 805 502 805 557 782 c 0,63,64
 625 756 625 756 690.5 723 c 128,-1,65
 756 690 756 690 804 642 c 128,-1,66
 852 594 852 594 874.5 525.5 c 128,-1,67
 897 457 897 457 877 358 c 0,0,1
EndSplineSet
Validated: 33
EndChar

StartChar: scedilla
Encoding: 351 351 335
Width: 1118
VWidth: 2048
Flags: W
LayerCount: 2
Fore
SplineSet
866 279 m 0,0,1
 852 207 852 207 815 156.5 c 128,-1,2
 778 106 778 106 726 71.5 c 128,-1,3
 674 37 674 37 612.5 16.5 c 128,-1,4
 551 -4 551 -4 487 -12 c 1,5,-1
 481 -41 l 2,6,7
 467 -111 467 -111 430 -171 c 128,-1,8
 393 -231 393 -231 339 -275 c 128,-1,9
 285 -319 285 -319 215 -345 c 128,-1,10
 145 -371 145 -371 63 -371 c 1,11,-1
 102 -193 l 1,12,13
 190 -193 190 -193 240.5 -153 c 128,-1,14
 291 -113 291 -113 305 -41 c 2,15,-1
 309 -20 l 1,16,17
 195 -14 195 -14 90.5 20.5 c 128,-1,18
 -14 55 -14 55 -86 111 c 1,19,-1
 37 281 l 1,20,21
 133 217 133 217 219 190.5 c 128,-1,22
 305 164 305 164 397 164 c 0,23,24
 522 164 522 164 584.5 190.5 c 128,-1,25
 647 217 647 217 657 264 c 0,26,27
 662 287 662 287 648.5 302 c 128,-1,28
 635 317 635 317 601 329.5 c 128,-1,29
 567 342 567 342 510 354.5 c 128,-1,30
 453 367 453 367 365 381 c 0,31,32
 295 393 295 393 234.5 410.5 c 128,-1,33
 174 428 174 428 132 460 c 128,-1,34
 90 492 90 492 70.5 541 c 128,-1,35
 51 590 51 590 66 664 c 0,36,37
 82 739 82 739 133 794.5 c 128,-1,38
 184 850 184 850 254 886 c 128,-1,39
 324 922 324 922 405.5 938 c 128,-1,40
 487 954 487 954 565 954 c 0,41,42
 676 954 676 954 773 925.5 c 128,-1,43
 870 897 870 897 936 844 c 1,44,-1
 819 684 l 1,45,46
 754 733 754 733 683 750.5 c 128,-1,47
 612 768 612 768 524 768 c 0,48,49
 487 768 487 768 446.5 764 c 128,-1,50
 406 760 406 760 370 748.5 c 128,-1,51
 334 737 334 737 307.5 717.5 c 128,-1,52
 281 698 281 698 274 670 c 0,53,54
 266 633 266 633 326.5 609.5 c 128,-1,55
 387 586 387 586 541 563 c 0,56,57
 625 551 625 551 691.5 532.5 c 128,-1,58
 758 514 758 514 802 482.5 c 128,-1,59
 846 451 846 451 864.5 401.5 c 128,-1,60
 883 352 883 352 866 279 c 0,0,1
EndSplineSet
Validated: 33
EndChar

StartChar: Tbar
Encoding: 358 358 342
Width: 1118
VWidth: 2048
Flags: W
LayerCount: 2
Fore
SplineSet
768 571 m 1,0,-1
 592 571 l 1,1,-1
 510 186 l 1,2,-1
 717 186 l 1,3,-1
 678 0 l 1,4,-1
 57 0 l 1,5,-1
 96 186 l 1,6,-1
 303 186 l 1,7,-1
 385 571 l 1,8,-1
 209 571 l 1,9,-1
 246 745 l 1,10,-1
 422 745 l 1,11,-1
 502 1118 l 1,12,-1
 324 1118 l 1,13,-1
 262 829 l 1,14,-1
 78 829 l 1,15,-1
 178 1305 l 1,16,-1
 1108 1305 l 1,17,-1
 1008 829 l 1,18,-1
 823 829 l 1,19,-1
 885 1118 l 1,20,-1
 709 1118 l 1,21,-1
 629 745 l 1,22,-1
 805 745 l 1,23,-1
 768 571 l 1,0,-1
EndSplineSet
Validated: 1
EndChar

StartChar: tbar
Encoding: 359 359 343
Width: 1118
VWidth: 2048
Flags: W
LayerCount: 2
Fore
SplineSet
905 297 m 1,0,1
 858 150 858 150 740.5 63.5 c 128,-1,2
 623 -23 623 -23 473 -23 c 0,3,4
 391 -23 391 -23 329.5 4 c 128,-1,5
 268 31 268 31 230.5 79 c 128,-1,6
 193 127 193 127 180.5 194.5 c 128,-1,7
 168 262 168 262 184 342 c 2,8,-1
 193 385 l 1,9,-1
 -18 385 l 1,10,-1
 20 559 l 1,11,-1
 231 559 l 1,12,-1
 270 745 l 1,13,-1
 59 745 l 1,14,-1
 98 932 l 1,15,-1
 309 932 l 1,16,-1
 389 1305 l 1,17,-1
 596 1305 l 1,18,-1
 516 932 l 1,19,-1
 907 932 l 1,20,-1
 868 745 l 1,21,-1
 477 745 l 1,22,-1
 438 559 l 1,23,-1
 647 559 l 1,24,-1
 608 385 l 1,25,-1
 399 385 l 1,26,-1
 391 342 l 2,27,28
 373 252 373 252 407.5 208 c 128,-1,29
 442 164 442 164 514 164 c 0,30,31
 602 164 602 164 655.5 215 c 128,-1,32
 709 266 709 266 733 338 c 1,33,-1
 905 297 l 1,0,1
EndSplineSet
Validated: 33
EndChar

StartChar: Uogonek
Encoding: 370 370 354
Width: 1118
VWidth: 2048
Flags: W
LayerCount: 2
Fore
SplineSet
551 -379 m 1,0,1
 416 -379 416 -379 350.5 -319.5 c 128,-1,2
 285 -260 285 -260 309 -141 c 0,3,4
 324 -76 324 -76 371 -23 c 1,5,-1
 360 -23 l 2,6,7
 252 -23 252 -23 181.5 12 c 128,-1,8
 111 47 111 47 74 110.5 c 128,-1,9
 37 174 37 174 31 265 c 128,-1,10
 25 356 25 356 49 467 c 2,11,-1
 227 1305 l 1,12,-1
 434 1305 l 1,13,-1
 256 465 l 2,14,15
 246 416 246 416 242 363.5 c 128,-1,16
 238 311 238 311 249 266 c 128,-1,17
 260 221 260 221 297 192.5 c 128,-1,18
 334 164 334 164 401 164 c 0,19,20
 469 164 469 164 516 192.5 c 128,-1,21
 563 221 563 221 596 265 c 128,-1,22
 629 309 629 309 647.5 362.5 c 128,-1,23
 666 416 666 416 676 465 c 2,24,-1
 854 1305 l 1,25,-1
 1061 1305 l 1,26,-1
 883 465 l 2,27,28
 844 285 844 285 754 164 c 128,-1,29
 664 43 664 43 520 0 c 1,30,31
 471 -43 471 -43 459 -104 c 0,32,33
 444 -168 444 -168 481 -199.5 c 128,-1,34
 518 -231 518 -231 582 -231 c 1,35,-1
 551 -379 l 1,0,1
EndSplineSet
Validated: 33
EndChar

StartChar: uogonek
Encoding: 371 371 355
Width: 1118
VWidth: 2048
Flags: W
LayerCount: 2
Fore
SplineSet
815 -379 m 1,0,1
 680 -379 680 -379 614.5 -319.5 c 128,-1,2
 549 -260 549 -260 573 -141 c 0,3,4
 582 -100 582 -100 604.5 -64.5 c 128,-1,5
 627 -29 627 -29 657 0 c 1,6,-1
 578 0 l 1,7,-1
 627 233 l 1,8,9
 569 113 569 113 471 45 c 128,-1,10
 373 -23 373 -23 250 -23 c 0,11,12
 106 -23 106 -23 46 70.5 c 128,-1,13
 -14 164 -14 164 25 356 c 2,14,-1
 147 932 l 1,15,-1
 354 932 l 1,16,-1
 231 356 l 2,17,18
 209 248 209 248 241.5 206 c 128,-1,19
 274 164 274 164 352 164 c 0,20,21
 467 164 467 164 559 257 c 128,-1,22
 651 350 651 350 686 514 c 2,23,-1
 774 932 l 1,24,-1
 981 932 l 1,25,-1
 784 0 l 1,26,27
 735 -43 735 -43 723 -104 c 0,28,29
 709 -168 709 -168 745.5 -199.5 c 128,-1,30
 782 -231 782 -231 846 -231 c 1,31,-1
 815 -379 l 1,0,1
EndSplineSet
Validated: 33
EndChar

StartChar: longs
Encoding: 383 383 366
Width: 1118
VWidth: 2048
Flags: W
LayerCount: 2
Fore
SplineSet
510 186 m 1,0,-1
 723 186 l 1,1,-1
 684 0 l 1,2,-1
 57 0 l 1,3,-1
 96 186 l 1,4,-1
 303 186 l 1,5,-1
 422 745 l 1,6,-1
 215 745 l 1,7,-1
 254 932 l 1,8,-1
 461 932 l 1,9,10
 502 1124 502 1124 641 1225.5 c 128,-1,11
 780 1327 780 1327 981 1327 c 0,12,13
 1012 1327 1012 1327 1045.5 1324 c 128,-1,14
 1079 1321 1079 1321 1112 1317 c 1,15,-1
 1073 1135 l 1,16,17
 1016 1141 1016 1141 967 1141 c 0,18,19
 887 1141 887 1141 835.5 1129.5 c 128,-1,20
 784 1118 784 1118 750.5 1092.5 c 128,-1,21
 717 1067 717 1067 698.5 1027 c 128,-1,22
 680 987 680 987 668 932 c 2,23,-1
 510 186 l 1,0,-1
EndSplineSet
Validated: 1
EndChar

StartChar: tonos
Encoding: 900 900 375
Width: 1118
VWidth: 2048
Flags: W
LayerCount: 2
Fore
SplineSet
874 1675 m 1,0,-1
 674 1118 l 1,1,-1
 512 1118 l 1,2,-1
 629 1675 l 1,3,-1
 874 1675 l 1,0,-1
EndSplineSet
Validated: 1
EndChar

StartChar: dieresistonos
Encoding: 901 901 376
Width: 1118
VWidth: 2048
Flags: W
LayerCount: 2
Fore
SplineSet
1071 1118 m 1,0,-1
 819 1118 l 1,1,-1
 872 1370 l 1,2,-1
 1124 1370 l 1,3,-1
 1071 1118 l 1,0,-1
391 1118 m 1,4,-1
 139 1118 l 1,5,-1
 193 1370 l 1,6,-1
 444 1370 l 1,7,-1
 391 1118 l 1,4,-1
874 1675 m 1,8,-1
 674 1118 l 1,9,-1
 512 1118 l 1,10,-1
 629 1675 l 1,11,-1
 874 1675 l 1,8,-1
EndSplineSet
Validated: 1
EndChar

StartChar: Iotatonos
Encoding: 906 906 380
Width: 1118
VWidth: 2048
Flags: W
LayerCount: 2
Fore
SplineSet
782 0 m 1,0,-1
 156 0 l 1,1,-1
 195 186 l 1,2,-1
 401 186 l 1,3,-1
 600 1118 l 1,4,-1
 475 1118 l 1,5,-1
 514 1305 l 1,6,-1
 1059 1305 l 1,7,-1
 1020 1118 l 1,8,-1
 807 1118 l 1,9,-1
 608 186 l 1,10,-1
 821 186 l 1,11,-1
 782 0 l 1,0,-1
501 1675 m 1,12,-1
 301 1118 l 1,13,-1
 139 1118 l 1,14,-1
 256 1675 l 1,15,-1
 501 1675 l 1,12,-1
EndSplineSet
Validated: 1
EndChar

StartChar: Upsilontonos
Encoding: 910 910 382
Width: 1118
VWidth: 2048
Flags: W
LayerCount: 2
Fore
SplineSet
1190 1118 m 1,0,-1
 1096 1118 l 1,1,-1
 682 532 l 1,2,-1
 608 186 l 1,3,-1
 817 186 l 1,4,-1
 778 0 l 1,5,-1
 154 0 l 1,6,-1
 193 186 l 1,7,-1
 401 186 l 1,8,-1
 475 532 l 1,9,-1
 311 1118 l 1,10,-1
 287 1118 l 1,11,-1
 326 1305 l 1,12,-1
 668 1305 l 1,13,-1
 629 1118 l 1,14,-1
 539 1118 l 1,15,-1
 623 735 l 1,16,-1
 868 1118 l 1,17,-1
 778 1118 l 1,18,-1
 817 1305 l 1,19,-1
 1229 1305 l 1,20,-1
 1190 1118 l 1,0,-1
315 1675 m 1,21,-1
 115 1118 l 1,22,-1
 -47 1118 l 1,23,-1
 70 1675 l 1,24,-1
 315 1675 l 1,21,-1
EndSplineSet
Validated: 1
EndChar

StartChar: Alpha
Encoding: 913 913 385
Width: 1118
VWidth: 2048
Flags: W
LayerCount: 2
Fore
SplineSet
678 0 m 1,0,-1
 649 311 l 1,1,-1
 217 311 l 1,2,-1
 59 0 l 1,3,-1
 -158 0 l 1,4,-1
 526 1305 l 1,5,-1
 764 1305 l 1,6,-1
 895 0 l 1,7,-1
 678 0 l 1,0,-1
311 494 m 1,8,-1
 633 494 l 1,9,-1
 588 1032 l 1,10,-1
 311 494 l 1,8,-1
EndSplineSet
Validated: 1
EndChar

StartChar: Beta
Encoding: 914 914 386
Width: 1118
VWidth: 2048
Flags: W
LayerCount: 2
Fore
SplineSet
907 358 m 0,0,1
 868 180 868 180 729 90 c 128,-1,2
 590 0 590 0 367 0 c 2,3,-1
 -49 0 l 1,4,-1
 227 1305 l 1,5,-1
 621 1305 l 2,6,7
 702 1305 702 1305 778 1291.5 c 128,-1,8
 854 1278 854 1278 908.5 1241 c 128,-1,9
 963 1204 963 1204 988.5 1137.5 c 128,-1,10
 1014 1071 1014 1071 991 965 c 0,11,12
 969 866 969 866 901.5 784 c 128,-1,13
 834 702 834 702 725 666 c 1,14,15
 842 627 842 627 888 557 c 128,-1,16
 934 487 934 487 907 358 c 0,0,1
780 938 m 0,17,18
 793 995 793 995 778.5 1031 c 128,-1,19
 764 1067 764 1067 734.5 1086.5 c 128,-1,20
 705 1106 705 1106 665 1112 c 128,-1,21
 625 1118 625 1118 582 1118 c 2,22,-1
 395 1118 l 1,23,-1
 317 758 l 1,24,-1
 504 758 l 2,25,26
 547 758 547 758 590 764 c 128,-1,27
 633 770 633 770 671 789.5 c 128,-1,28
 709 809 709 809 738.5 845 c 128,-1,29
 768 881 768 881 780 938 c 0,17,18
707 379 m 0,30,31
 727 477 727 477 668.5 524 c 128,-1,32
 610 571 610 571 487 571 c 2,33,-1
 279 571 l 1,34,-1
 197 186 l 1,35,-1
 406 186 l 2,36,37
 528 186 528 186 607 233.5 c 128,-1,38
 686 281 686 281 707 379 c 0,30,31
EndSplineSet
Validated: 33
EndChar

StartChar: Gamma
Encoding: 915 915 387
Width: 1118
VWidth: 2048
Flags: W
LayerCount: 2
Fore
SplineSet
227 1305 m 1,0,-1
 1110 1305 l 1,1,-1
 1071 1118 l 1,2,-1
 395 1118 l 1,3,-1
 158 0 l 1,4,-1
 -49 0 l 1,5,-1
 227 1305 l 1,0,-1
EndSplineSet
Validated: 1
EndChar

StartChar: uni0394
Encoding: 916 916 388
Width: 1118
VWidth: 2048
Flags: W
LayerCount: 2
Fore
SplineSet
-158 0 m 1,0,-1
 526 1305 l 1,1,-1
 764 1305 l 1,2,-1
 895 0 l 1,3,-1
 -158 0 l 1,0,-1
154 184 m 1,4,-1
 662 184 l 1,5,-1
 588 1032 l 1,6,-1
 154 184 l 1,4,-1
EndSplineSet
Validated: 1
EndChar

StartChar: Epsilon
Encoding: 917 917 389
Width: 1118
VWidth: 2048
Flags: W
LayerCount: 2
Fore
SplineSet
784 0 m 1,0,-1
 -49 0 l 1,1,-1
 227 1305 l 1,2,-1
 1061 1305 l 1,3,-1
 1022 1118 l 1,4,-1
 395 1118 l 1,5,-1
 317 758 l 1,6,-1
 807 758 l 1,7,-1
 768 571 l 1,8,-1
 279 571 l 1,9,-1
 197 186 l 1,10,-1
 823 186 l 1,11,-1
 784 0 l 1,0,-1
EndSplineSet
Validated: 1
EndChar

StartChar: Zeta
Encoding: 918 918 390
Width: 1118
VWidth: 2048
Flags: W
LayerCount: 2
Fore
SplineSet
784 0 m 1,0,-1
 -49 0 l 1,1,-1
 -10 184 l 1,2,-1
 772 1118 l 1,3,-1
 375 1118 l 1,4,-1
 313 834 l 1,5,-1
 127 834 l 1,6,-1
 227 1305 l 1,7,-1
 1044 1305 l 1,8,-1
 1006 1118 l 1,9,-1
 240 186 l 1,10,-1
 641 186 l 1,11,-1
 702 473 l 1,12,-1
 885 473 l 1,13,-1
 784 0 l 1,0,-1
EndSplineSet
Validated: 1
EndChar

StartChar: Eta
Encoding: 919 919 391
Width: 1118
VWidth: 2048
Flags: W
LayerCount: 2
Fore
SplineSet
784 0 m 1,0,-1
 578 0 l 1,1,-1
 698 571 l 1,2,-1
 279 571 l 1,3,-1
 158 0 l 1,4,-1
 -49 0 l 1,5,-1
 227 1305 l 1,6,-1
 434 1305 l 1,7,-1
 317 758 l 1,8,-1
 737 758 l 1,9,-1
 854 1305 l 1,10,-1
 1061 1305 l 1,11,-1
 784 0 l 1,0,-1
EndSplineSet
Validated: 1
EndChar

StartChar: Theta
Encoding: 920 920 392
Width: 1118
VWidth: 2048
Flags: W
LayerCount: 2
Fore
SplineSet
291 758 m 1,0,-1
 762 758 l 1,1,-1
 723 571 l 1,2,-1
 252 571 l 1,3,-1
 291 758 l 1,0,-1
6 653 m 0,4,5
 35 784 35 784 88 906 c 128,-1,6
 141 1028 141 1028 221 1121 c 128,-1,7
 301 1214 301 1214 407.5 1270.5 c 128,-1,8
 514 1327 514 1327 649 1327 c 256,9,10
 784 1327 784 1327 868 1270.5 c 128,-1,11
 952 1214 952 1214 992 1121 c 128,-1,12
 1032 1028 1032 1028 1033 906 c 128,-1,13
 1034 784 1034 784 1006 653 c 0,14,15
 979 522 979 522 925.5 400.5 c 128,-1,16
 872 279 872 279 793.5 184.5 c 128,-1,17
 715 90 715 90 607.5 33.5 c 128,-1,18
 500 -23 500 -23 362 -23 c 0,19,20
 225 -23 225 -23 142 33.5 c 128,-1,21
 59 90 59 90 19.5 184.5 c 128,-1,22
 -20 279 -20 279 -20 400.5 c 128,-1,23
 -20 522 -20 522 6 653 c 0,4,5
213 653 m 0,24,25
 195 565 195 565 189.5 477 c 128,-1,26
 184 389 184 389 201.5 319.5 c 128,-1,27
 219 250 219 250 267 207 c 128,-1,28
 315 164 315 164 403 164 c 0,29,30
 492 164 492 164 556.5 207 c 128,-1,31
 621 250 621 250 669 319.5 c 128,-1,32
 717 389 717 389 748.5 477 c 128,-1,33
 780 565 780 565 799 653 c 0,34,35
 817 741 817 741 823 828 c 128,-1,36
 829 915 829 915 811 985 c 128,-1,37
 793 1055 793 1055 744.5 1098 c 128,-1,38
 696 1141 696 1141 610 1141 c 0,39,40
 467 1141 467 1141 364.5 1012 c 128,-1,41
 262 883 262 883 213 653 c 0,24,25
EndSplineSet
Validated: 33
EndChar

StartChar: Iota
Encoding: 921 921 393
Width: 1118
VWidth: 2048
Flags: W
LayerCount: 2
Fore
SplineSet
684 0 m 1,0,-1
 57 0 l 1,1,-1
 96 186 l 1,2,-1
 303 186 l 1,3,-1
 502 1118 l 1,4,-1
 295 1118 l 1,5,-1
 334 1305 l 1,6,-1
 961 1305 l 1,7,-1
 922 1118 l 1,8,-1
 709 1118 l 1,9,-1
 510 186 l 1,10,-1
 723 186 l 1,11,-1
 684 0 l 1,0,-1
EndSplineSet
Validated: 1
EndChar

StartChar: Kappa
Encoding: 922 922 394
Width: 1118
VWidth: 2048
Flags: W
LayerCount: 2
Fore
SplineSet
827 0 m 1,0,-1
 586 0 l 1,1,-1
 373 608 l 1,2,-1
 264 506 l 1,3,-1
 158 0 l 1,4,-1
 -49 0 l 1,5,-1
 227 1305 l 1,6,-1
 434 1305 l 1,7,-1
 326 793 l 1,8,-1
 840 1305 l 1,9,-1
 1106 1305 l 1,10,-1
 537 764 l 1,11,-1
 827 0 l 1,0,-1
EndSplineSet
Validated: 1
EndChar

StartChar: Lambda
Encoding: 923 923 395
Width: 1118
VWidth: 2048
Flags: W
LayerCount: 2
Fore
SplineSet
676 0 m 1,0,-1
 588 1032 l 1,1,-1
 59 0 l 1,2,-1
 -158 0 l 1,3,-1
 526 1305 l 1,4,-1
 762 1305 l 1,5,-1
 893 0 l 1,6,-1
 676 0 l 1,0,-1
EndSplineSet
Validated: 1
EndChar

StartChar: Mu
Encoding: 924 924 396
Width: 1118
VWidth: 2048
Flags: W
LayerCount: 2
Fore
SplineSet
784 0 m 1,0,-1
 578 0 l 1,1,-1
 764 883 l 1,2,-1
 532 414 l 1,3,-1
 373 414 l 1,4,-1
 344 883 l 1,5,-1
 158 0 l 1,6,-1
 -49 0 l 1,7,-1
 227 1305 l 1,8,-1
 473 1305 l 1,9,-1
 518 715 l 1,10,-1
 813 1305 l 1,11,-1
 1061 1305 l 1,12,-1
 784 0 l 1,0,-1
EndSplineSet
Validated: 1
EndChar

StartChar: Nu
Encoding: 925 925 397
Width: 1118
VWidth: 2048
Flags: W
LayerCount: 2
Fore
SplineSet
784 0 m 1,0,-1
 545 0 l 1,1,-1
 358 946 l 1,2,-1
 158 0 l 1,3,-1
 -49 0 l 1,4,-1
 227 1305 l 1,5,-1
 487 1305 l 1,6,-1
 664 406 l 1,7,-1
 854 1305 l 1,8,-1
 1061 1305 l 1,9,-1
 784 0 l 1,0,-1
EndSplineSet
Validated: 1
EndChar

StartChar: Xi
Encoding: 926 926 398
Width: 1118
VWidth: 2048
Flags: W
LayerCount: 2
Fore
SplineSet
-29 334 m 1,0,-1
 158 334 l 1,1,-1
 127 186 l 1,2,-1
 686 186 l 1,3,-1
 717 334 l 1,4,-1
 903 334 l 1,5,-1
 834 0 l 1,6,-1
 -98 0 l 1,7,-1
 -29 334 l 1,0,-1
885 1118 m 1,8,-1
 326 1118 l 1,9,-1
 293 969 l 1,10,-1
 106 969 l 1,11,-1
 178 1305 l 1,12,-1
 1110 1305 l 1,13,-1
 1038 969 l 1,14,-1
 852 969 l 1,15,-1
 885 1118 l 1,8,-1
248 758 m 1,16,-1
 807 758 l 1,17,-1
 768 571 l 1,18,-1
 209 571 l 1,19,-1
 248 758 l 1,16,-1
EndSplineSet
Validated: 1
EndChar

StartChar: Omicron
Encoding: 927 927 399
Width: 1118
VWidth: 2048
Flags: W
LayerCount: 2
Fore
SplineSet
6 653 m 0,0,1
 35 784 35 784 88 906 c 128,-1,2
 141 1028 141 1028 221 1121 c 128,-1,3
 301 1214 301 1214 407.5 1270.5 c 128,-1,4
 514 1327 514 1327 649 1327 c 256,5,6
 784 1327 784 1327 868 1270.5 c 128,-1,7
 952 1214 952 1214 992 1121 c 128,-1,8
 1032 1028 1032 1028 1033 906 c 128,-1,9
 1034 784 1034 784 1006 653 c 0,10,11
 979 522 979 522 925.5 400.5 c 128,-1,12
 872 279 872 279 793.5 184.5 c 128,-1,13
 715 90 715 90 607.5 33.5 c 128,-1,14
 500 -23 500 -23 362 -23 c 0,15,16
 225 -23 225 -23 142 33.5 c 128,-1,17
 59 90 59 90 19.5 184.5 c 128,-1,18
 -20 279 -20 279 -20 400.5 c 128,-1,19
 -20 522 -20 522 6 653 c 0,0,1
213 653 m 0,20,21
 195 565 195 565 189.5 477 c 128,-1,22
 184 389 184 389 201.5 319.5 c 128,-1,23
 219 250 219 250 267 207 c 128,-1,24
 315 164 315 164 403 164 c 0,25,26
 492 164 492 164 556.5 207 c 128,-1,27
 621 250 621 250 669 319.5 c 128,-1,28
 717 389 717 389 748.5 477 c 128,-1,29
 780 565 780 565 799 653 c 0,30,31
 817 741 817 741 823 828 c 128,-1,32
 829 915 829 915 811 985 c 128,-1,33
 793 1055 793 1055 744.5 1098 c 128,-1,34
 696 1141 696 1141 610 1141 c 0,35,36
 467 1141 467 1141 364.5 1012 c 128,-1,37
 262 883 262 883 213 653 c 0,20,21
EndSplineSet
Validated: 33
EndChar

StartChar: Pi
Encoding: 928 928 400
Width: 1118
VWidth: 2048
Flags: W
LayerCount: 2
Fore
SplineSet
784 0 m 1,0,-1
 578 0 l 1,1,-1
 815 1118 l 1,2,-1
 395 1118 l 1,3,-1
 158 0 l 1,4,-1
 -49 0 l 1,5,-1
 227 1305 l 1,6,-1
 1061 1305 l 1,7,-1
 784 0 l 1,0,-1
EndSplineSet
Validated: 1
EndChar

StartChar: Rho
Encoding: 929 929 401
Width: 1118
VWidth: 2048
Flags: W
LayerCount: 2
Fore
SplineSet
1028 915 m 0,0,1
 985 719 985 719 846 623.5 c 128,-1,2
 707 528 707 528 494 528 c 2,3,-1
 268 528 l 1,4,-1
 158 0 l 1,5,-1
 -49 0 l 1,6,-1
 227 1305 l 1,7,-1
 657 1305 l 2,8,9
 872 1305 872 1305 969.5 1206.5 c 128,-1,10
 1067 1108 1067 1108 1028 915 c 0,0,1
821 918 m 0,11,12
 842 1018 842 1018 787.5 1068 c 128,-1,13
 733 1118 733 1118 621 1118 c 2,14,-1
 395 1118 l 1,15,-1
 309 715 l 1,16,-1
 535 715 l 2,17,18
 647 715 647 715 723 765 c 128,-1,19
 799 815 799 815 821 918 c 0,11,12
EndSplineSet
Validated: 33
EndChar

StartChar: Sigma
Encoding: 931 931 402
Width: 1118
VWidth: 2048
Flags: W
LayerCount: 2
Fore
SplineSet
784 0 m 1,0,-1
 -55 0 l 1,1,-1
 -16 186 l 1,2,-1
 377 651 l 1,3,-1
 182 1118 l 1,4,-1
 221 1305 l 1,5,-1
 1061 1305 l 1,6,-1
 967 864 l 1,7,-1
 780 864 l 1,8,-1
 836 1118 l 1,9,-1
 434 1118 l 1,10,-1
 621 651 l 1,11,-1
 236 186 l 1,12,-1
 637 186 l 1,13,-1
 690 442 l 1,14,-1
 877 442 l 1,15,-1
 784 0 l 1,0,-1
EndSplineSet
Validated: 1
EndChar

StartChar: Tau
Encoding: 932 932 403
Width: 1118
VWidth: 2048
Flags: W
LayerCount: 2
Fore
SplineSet
1008 829 m 1,0,-1
 823 829 l 1,1,-1
 885 1118 l 1,2,-1
 709 1118 l 1,3,-1
 510 186 l 1,4,-1
 717 186 l 1,5,-1
 678 0 l 1,6,-1
 57 0 l 1,7,-1
 96 186 l 1,8,-1
 303 186 l 1,9,-1
 502 1118 l 1,10,-1
 324 1118 l 1,11,-1
 262 829 l 1,12,-1
 78 829 l 1,13,-1
 178 1305 l 1,14,-1
 1108 1305 l 1,15,-1
 1008 829 l 1,0,-1
EndSplineSet
Validated: 1
EndChar

StartChar: Upsilon
Encoding: 933 933 404
Width: 1118
VWidth: 2048
Flags: W
LayerCount: 2
Fore
SplineSet
1092 1118 m 1,0,-1
 997 1118 l 1,1,-1
 584 532 l 1,2,-1
 510 186 l 1,3,-1
 719 186 l 1,4,-1
 680 0 l 1,5,-1
 55 0 l 1,6,-1
 94 186 l 1,7,-1
 303 186 l 1,8,-1
 377 532 l 1,9,-1
 213 1118 l 1,10,-1
 119 1118 l 1,11,-1
 158 1305 l 1,12,-1
 569 1305 l 1,13,-1
 530 1118 l 1,14,-1
 440 1118 l 1,15,-1
 524 735 l 1,16,-1
 770 1118 l 1,17,-1
 680 1118 l 1,18,-1
 719 1305 l 1,19,-1
 1130 1305 l 1,20,-1
 1092 1118 l 1,0,-1
EndSplineSet
Validated: 1
EndChar

StartChar: Phi
Encoding: 934 934 405
Width: 1118
VWidth: 2048
Flags: W
LayerCount: 2
Fore
SplineSet
999 666 m 0,0,1
 979 569 979 569 934 488.5 c 128,-1,2
 889 408 889 408 824.5 346.5 c 128,-1,3
 760 285 760 285 679 243 c 128,-1,4
 598 201 598 201 508 186 c 1,5,-1
 469 0 l 1,6,-1
 264 0 l 1,7,-1
 303 186 l 1,8,9
 133 219 133 219 57.5 347 c 128,-1,10
 -18 475 -18 475 23 666 c 0,11,12
 41 760 41 760 85 840 c 128,-1,13
 129 920 129 920 192.5 982 c 128,-1,14
 256 1044 256 1044 336 1086 c 128,-1,15
 416 1128 416 1128 506 1145 c 1,16,-1
 541 1305 l 1,17,-1
 745 1305 l 1,18,-1
 713 1147 l 1,19,20
 797 1130 797 1130 859.5 1089.5 c 128,-1,21
 922 1049 922 1049 959.5 985.5 c 128,-1,22
 997 922 997 922 1007.5 841 c 128,-1,23
 1018 760 1018 760 999 666 c 0,0,1
793 666 m 0,24,25
 813 768 813 768 781.5 845 c 128,-1,26
 750 922 750 922 670 952 c 1,27,-1
 549 379 l 1,28,29
 641 410 641 410 705.5 485.5 c 128,-1,30
 770 561 770 561 793 666 c 0,24,25
229 666 m 0,31,32
 207 563 207 563 235.5 487.5 c 128,-1,33
 264 412 264 412 344 381 c 1,34,-1
 465 950 l 1,35,36
 373 920 373 920 311.5 843 c 128,-1,37
 250 766 250 766 229 666 c 0,31,32
EndSplineSet
Validated: 33
EndChar

StartChar: Chi
Encoding: 935 935 406
Width: 1118
VWidth: 2048
Flags: W
LayerCount: 2
Fore
SplineSet
854 0 m 1,0,-1
 428 0 l 1,1,-1
 467 186 l 1,2,-1
 541 186 l 1,3,-1
 465 481 l 1,4,-1
 266 186 l 1,5,-1
 340 186 l 1,6,-1
 301 0 l 1,7,-1
 -121 0 l 1,8,-1
 -82 186 l 1,9,-1
 31 186 l 1,10,-1
 385 659 l 1,11,-1
 233 1118 l 1,12,-1
 139 1118 l 1,13,-1
 178 1305 l 1,14,-1
 592 1305 l 1,15,-1
 553 1118 l 1,16,-1
 469 1118 l 1,17,-1
 541 829 l 1,18,-1
 737 1118 l 1,19,-1
 655 1118 l 1,20,-1
 694 1305 l 1,21,-1
 1110 1305 l 1,22,-1
 1071 1118 l 1,23,-1
 971 1118 l 1,24,-1
 623 659 l 1,25,-1
 776 186 l 1,26,-1
 893 186 l 1,27,-1
 854 0 l 1,0,-1
EndSplineSet
Validated: 1
EndChar

StartChar: Psi
Encoding: 936 936 407
Width: 1118
VWidth: 2048
Flags: W
LayerCount: 2
Fore
SplineSet
1014 856 m 2,0,1
 987 729 987 729 943 636 c 128,-1,2
 899 543 899 543 837.5 478.5 c 128,-1,3
 776 414 776 414 701.5 376 c 128,-1,4
 627 338 627 338 539 326 c 1,5,-1
 471 0 l 1,6,-1
 264 0 l 1,7,-1
 332 326 l 1,8,9
 168 352 168 352 98.5 479 c 128,-1,10
 29 606 29 606 82 856 c 2,11,-1
 178 1305 l 1,12,-1
 385 1305 l 1,13,-1
 289 856 l 2,14,15
 262 731 262 731 279.5 642 c 128,-1,16
 297 553 297 553 373 518 c 1,17,-1
 541 1305 l 1,18,-1
 748 1305 l 1,19,-1
 580 518 l 1,20,21
 672 553 672 553 727 641 c 128,-1,22
 782 729 782 729 809 856 c 2,23,-1
 905 1305 l 1,24,-1
 1110 1305 l 1,25,-1
 1014 856 l 2,0,1
EndSplineSet
Validated: 33
EndChar

StartChar: alpha
Encoding: 945 945 415
Width: 1118
VWidth: 2048
Flags: W
LayerCount: 2
Fore
SplineSet
186 465 m 0,0,1
 174 412 174 412 174 358.5 c 128,-1,2
 174 305 174 305 189.5 262 c 128,-1,3
 205 219 205 219 236.5 191.5 c 128,-1,4
 268 164 268 164 322 164 c 0,5,6
 367 164 367 164 409 191.5 c 128,-1,7
 451 219 451 219 488.5 262 c 128,-1,8
 526 305 526 305 558 358.5 c 128,-1,9
 590 412 590 412 618 465 c 1,10,11
 612 518 612 518 604 572.5 c 128,-1,12
 596 627 596 627 575.5 670 c 128,-1,13
 555 713 555 713 524.5 740.5 c 128,-1,14
 494 768 494 768 449 768 c 0,15,16
 395 768 395 768 352 740.5 c 128,-1,17
 309 713 309 713 276.5 670 c 128,-1,18
 244 627 244 627 220.5 572.5 c 128,-1,19
 197 518 197 518 186 465 c 0,0,1
-20 465 m 0,20,21
 0 559 0 559 43 647 c 128,-1,22
 86 735 86 735 150.5 803.5 c 128,-1,23
 215 872 215 872 299 913 c 128,-1,24
 383 954 383 954 483 954 c 0,25,26
 604 954 604 954 661.5 898 c 128,-1,27
 719 842 719 842 743 733 c 1,28,-1
 827 932 l 1,29,-1
 1036 932 l 1,30,-1
 807 465 l 1,31,-1
 840 0 l 1,32,-1
 631 0 l 1,33,-1
 629 197 l 1,34,35
 559 88 559 88 477 32.5 c 128,-1,36
 395 -23 395 -23 274 -23 c 0,37,38
 174 -23 174 -23 108.5 18 c 128,-1,39
 43 59 43 59 7 127 c 128,-1,40
 -29 195 -29 195 -35 283 c 128,-1,41
 -41 371 -41 371 -20 465 c 0,20,21
EndSplineSet
Validated: 33
EndChar

StartChar: beta
Encoding: 946 946 416
Width: 1118
VWidth: 2048
Flags: W
LayerCount: 2
Fore
SplineSet
430 -23 m 256,0,1
 342 -23 342 -23 281.5 1 c 128,-1,2
 221 25 221 25 172 74 c 1,3,-1
 78 -373 l 1,4,-1
 -127 -373 l 1,5,-1
 147 926 l 2,6,7
 166 1014 166 1014 214 1088.5 c 128,-1,8
 262 1163 262 1163 329.5 1215.5 c 128,-1,9
 397 1268 397 1268 481 1297.5 c 128,-1,10
 565 1327 565 1327 655 1327 c 0,11,12
 752 1327 752 1327 822.5 1296.5 c 128,-1,13
 893 1266 893 1266 935 1216.5 c 128,-1,14
 977 1167 977 1167 991.5 1104.5 c 128,-1,15
 1006 1042 1006 1042 991 979 c 0,16,17
 969 874 969 874 893 791.5 c 128,-1,18
 817 709 817 709 700 672 c 1,19,20
 825 631 825 631 882.5 551 c 128,-1,21
 940 471 940 471 915 348 c 0,22,23
 897 266 897 266 853 198.5 c 128,-1,24
 809 131 809 131 744.5 82 c 128,-1,25
 680 33 680 33 599 5 c 128,-1,26
 518 -23 518 -23 430 -23 c 256,0,1
434 164 m 0,27,28
 547 164 547 164 619.5 217 c 128,-1,29
 692 270 692 270 711 365 c 0,30,31
 731 459 731 459 679 515 c 128,-1,32
 627 571 627 571 494 571 c 2,33,-1
 395 571 l 1,34,-1
 434 758 l 1,35,-1
 526 758 l 2,36,37
 639 758 639 758 700.5 814 c 128,-1,38
 762 870 762 870 780 956 c 0,39,40
 786 985 786 985 783 1018 c 128,-1,41
 780 1051 780 1051 760.5 1078.5 c 128,-1,42
 741 1106 741 1106 706.5 1123.5 c 128,-1,43
 672 1141 672 1141 616 1141 c 0,44,45
 575 1141 575 1141 533.5 1127.5 c 128,-1,46
 492 1114 492 1114 456 1087.5 c 128,-1,47
 420 1061 420 1061 392.5 1021 c 128,-1,48
 365 981 365 981 354 926 c 2,49,-1
 215 274 l 1,50,51
 279 164 279 164 434 164 c 0,27,28
EndSplineSet
Validated: 33
EndChar

StartChar: gamma
Encoding: 947 947 417
Width: 1118
VWidth: 2048
Flags: W
LayerCount: 2
Fore
SplineSet
997 932 m 1,0,1
 956 813 956 813 903 688 c 128,-1,2
 850 563 850 563 783.5 440 c 128,-1,3
 717 317 717 317 636 199.5 c 128,-1,4
 555 82 555 82 455 -25 c 1,5,-1
 381 -373 l 1,6,-1
 176 -373 l 1,7,-1
 250 -25 l 1,8,-1
 98 932 l 1,9,-1
 319 932 l 1,10,-1
 420 193 l 1,11,12
 539 338 539 338 625 527.5 c 128,-1,13
 711 717 711 717 780 932 c 1,14,-1
 997 932 l 1,0,1
EndSplineSet
Validated: 1
EndChar

StartChar: delta
Encoding: 948 948 418
Width: 1118
VWidth: 2048
Flags: W
LayerCount: 2
Fore
SplineSet
27 406 m 0,0,1
 49 514 49 514 142.5 624.5 c 128,-1,2
 236 735 236 735 401 827 c 1,3,4
 356 870 356 870 330.5 923.5 c 128,-1,5
 305 977 305 977 322 1057 c 0,6,7
 334 1112 334 1112 364.5 1161 c 128,-1,8
 395 1210 395 1210 442 1247 c 128,-1,9
 489 1284 489 1284 551.5 1305.5 c 128,-1,10
 614 1327 614 1327 688 1327 c 256,11,12
 762 1327 762 1327 823.5 1310.5 c 128,-1,13
 885 1294 885 1294 938 1253 c 1,14,-1
 817 1098 l 1,15,16
 778 1130 778 1130 733 1143.5 c 128,-1,17
 688 1157 688 1157 653 1157 c 0,18,19
 606 1157 606 1157 571.5 1133.5 c 128,-1,20
 537 1110 537 1110 526 1069 c 0,21,22
 518 1022 518 1022 545.5 983 c 128,-1,23
 573 944 573 944 619.5 905 c 128,-1,24
 666 866 666 866 721 822 c 128,-1,25
 776 778 776 778 818 720 c 128,-1,26
 860 662 860 662 880.5 585 c 128,-1,27
 901 508 901 508 881 406 c 0,28,29
 860 309 860 309 812 231.5 c 128,-1,30
 764 154 764 154 696.5 96.5 c 128,-1,31
 629 39 629 39 543 8 c 128,-1,32
 457 -23 457 -23 358 -23 c 0,33,34
 262 -23 262 -23 190.5 8 c 128,-1,35
 119 39 119 39 75 96.5 c 128,-1,36
 31 154 31 154 18.5 231.5 c 128,-1,37
 6 309 6 309 27 406 c 0,0,1
674 406 m 0,38,39
 686 463 686 463 679 510 c 128,-1,40
 672 557 672 557 652.5 594 c 128,-1,41
 633 631 633 631 602 661.5 c 128,-1,42
 571 692 571 692 539 719 c 1,43,44
 399 651 399 651 325.5 574.5 c 128,-1,45
 252 498 252 498 231 403 c 0,46,47
 211 299 211 299 256 231.5 c 128,-1,48
 301 164 301 164 399 164 c 0,49,50
 508 164 508 164 579.5 231.5 c 128,-1,51
 651 299 651 299 674 406 c 0,38,39
EndSplineSet
Validated: 33
EndChar

StartChar: epsilon
Encoding: 949 949 419
Width: 1118
VWidth: 2048
Flags: W
LayerCount: 2
Fore
SplineSet
47 676 m 0,0,1
 59 739 59 739 105.5 791.5 c 128,-1,2
 152 844 152 844 220.5 879.5 c 128,-1,3
 289 915 289 915 376 934.5 c 128,-1,4
 463 954 463 954 559 954 c 0,5,6
 713 954 713 954 802 904 c 128,-1,7
 891 854 891 854 932 754 c 1,8,-1
 758 649 l 1,9,10
 707 768 707 768 516 768 c 0,11,12
 406 768 406 768 333 738.5 c 128,-1,13
 260 709 260 709 250 659 c 0,14,15
 242 625 242 625 289 598 c 128,-1,16
 336 571 336 571 440 571 c 2,17,-1
 637 571 l 1,18,-1
 596 385 l 1,19,-1
 397 385 l 2,20,21
 293 385 293 385 234.5 352 c 128,-1,22
 176 319 176 319 168 281 c 0,23,24
 156 227 156 227 220.5 195.5 c 128,-1,25
 285 164 285 164 399 164 c 0,26,27
 498 164 498 164 577.5 197.5 c 128,-1,28
 657 231 657 231 696 285 c 1,29,-1
 836 176 l 1,30,31
 750 76 750 76 636 26.5 c 128,-1,32
 522 -23 522 -23 362 -23 c 0,33,34
 262 -23 262 -23 181 -3.5 c 128,-1,35
 100 16 100 16 46 53 c 128,-1,36
 -8 90 -8 90 -32.5 143.5 c 128,-1,37
 -57 197 -57 197 -43 264 c 0,38,39
 -29 336 -29 336 41 395.5 c 128,-1,40
 111 455 111 455 207 473 c 1,41,42
 111 489 111 489 72 548.5 c 128,-1,43
 33 608 33 608 47 676 c 0,0,1
EndSplineSet
Validated: 33
EndChar

StartChar: zeta
Encoding: 950 950 420
Width: 1118
VWidth: 2048
Flags: W
LayerCount: 2
Fore
SplineSet
451 2 m 0,0,1
 195 14 195 14 74 131 c 128,-1,2
 -47 248 -47 248 2 475 c 0,3,4
 27 588 27 588 90.5 682 c 128,-1,5
 154 776 154 776 250 856 c 128,-1,6
 346 936 346 936 466 1000.5 c 128,-1,7
 586 1065 586 1065 723 1118 c 1,8,-1
 326 1118 l 1,9,-1
 365 1305 l 1,10,-1
 1110 1305 l 1,11,-1
 1071 1118 l 1,12,13
 856 1059 856 1059 703.5 987 c 128,-1,14
 551 915 551 915 446.5 832.5 c 128,-1,15
 342 750 342 750 285.5 659.5 c 128,-1,16
 229 569 229 569 209 475 c 0,17,18
 150 201 150 201 512 180 c 0,19,20
 684 170 684 170 752.5 96.5 c 128,-1,21
 821 23 821 23 797 -94 c 0,22,23
 784 -145 784 -145 755.5 -194.5 c 128,-1,24
 727 -244 727 -244 680 -283 c 128,-1,25
 633 -322 633 -322 568.5 -346.5 c 128,-1,26
 504 -371 504 -371 424 -373 c 1,27,-1
 436 -195 l 1,28,29
 510 -186 510 -186 545 -161.5 c 128,-1,30
 580 -137 580 -137 590 -94 c 0,31,32
 600 -45 600 -45 560 -23.5 c 128,-1,33
 520 -2 520 -2 451 2 c 0,0,1
EndSplineSet
Validated: 33
EndChar

StartChar: eta
Encoding: 951 951 421
Width: 1118
VWidth: 2048
Flags: W
LayerCount: 2
Fore
SplineSet
416 774 m 1,0,1
 455 852 455 852 539 903 c 128,-1,2
 623 954 623 954 711 954 c 0,3,4
 854 954 854 954 900 861 c 128,-1,5
 946 768 946 768 905 578 c 2,6,-1
 705 -373 l 1,7,-1
 498 -373 l 1,8,-1
 698 578 l 2,9,10
 723 692 723 692 698.5 730 c 128,-1,11
 674 768 674 768 623 768 c 0,12,13
 537 768 537 768 471.5 694.5 c 128,-1,14
 406 621 406 621 375 479 c 2,15,-1
 274 0 l 1,16,-1
 68 0 l 1,17,-1
 211 682 l 2,18,19
 221 725 221 725 202.5 746.5 c 128,-1,20
 184 768 184 768 150 768 c 0,21,22
 129 768 129 768 114.5 765 c 128,-1,23
 100 762 100 762 82 758 c 1,24,-1
 78 926 l 1,25,26
 113 940 113 940 160 947 c 128,-1,27
 207 954 207 954 252 954 c 0,28,29
 291 954 291 954 323.5 943 c 128,-1,30
 356 932 356 932 379.5 910.5 c 128,-1,31
 403 889 403 889 413.5 854 c 128,-1,32
 424 819 424 819 416 774 c 1,0,1
EndSplineSet
Validated: 33
EndChar

